SplineFontDB: 3.2
FontName: ZainRo-LightItalic
FullName: ZainRo Light Italic
FamilyName: ZainRo Light
Weight: Light
Copyright: Copyright 2024 The Zain Project Authors (https://github.com/googlefonts/zain) and 2025 Lazar (https://bylazar.com)
Version: 1.51; ttfautohint (v1.8.4)
ItalicAngle: -10
UnderlinePosition: -100
UnderlineWidth: 50
Ascent: 800
Descent: 200
InvalidEm: 0
sfntRevision: 0x0001828f
LayerCount: 2
Layer: 0 1 "Back" 1
Layer: 1 1 "Fore" 0
XUID: [1021 736 -289526145 23630]
StyleMap: 0x0001
FSType: 0
OS2Version: 4
OS2_WeightWidthSlopeOnly: 0
OS2_UseTypoMetrics: 1
CreationTime: 1722724887
ModificationTime: 1760719516
PfmFamily: 81
TTFWeight: 300
TTFWidth: 5
LineGap: 0
VLineGap: 0
Panose: 0 0 9 0 0 0 0 0 0 0
OS2TypoAscent: 900
OS2TypoAOffset: 0
OS2TypoDescent: -500
OS2TypoDOffset: 0
OS2TypoLinegap: 0
OS2WinAscent: 881
OS2WinAOffset: 0
OS2WinDescent: 501
OS2WinDOffset: 0
HheadAscent: 900
HheadAOffset: 0
HheadDescent: -500
HheadDOffset: 0
OS2SubXSize: 650
OS2SubYSize: 600
OS2SubXOff: -13
OS2SubYOff: 75
OS2SupXSize: 650
OS2SupYSize: 600
OS2SupXOff: 62
OS2SupYOff: 350
OS2StrikeYSize: 45
OS2StrikeYPos: 267
OS2CapHeight: 556
OS2XHeight: 360
OS2Vendor: '1BOU'
OS2CodePages: 00000041.00000000
OS2UnicodeRanges: 800020af.d000204a.00000008.00000000
Lookup: 1 0 0 "'aalt' Access All Alternates lookup 0" { "'aalt' Access All Alternates lookup 0 subtable"  } ['aalt' ('DFLT' <'dflt' > 'arab' <'URD ' 'dflt' > 'latn' <'dflt' > ) ]
Lookup: 3 0 0 "'aalt' Access All Alternates lookup 1" { "'aalt' Access All Alternates lookup 1 subtable"  } ['aalt' ('DFLT' <'dflt' > 'arab' <'URD ' 'dflt' > 'latn' <'dflt' > ) ]
Lookup: 1 0 0 "Single Substitution lookup 2" { "Single Substitution lookup 2 subtable"  } []
Lookup: 1 0 0 "'sups' Superscript lookup 3" { "'sups' Superscript lookup 3 subtable" ("superior") } ['sups' ('DFLT' <'dflt' > 'arab' <'URD ' 'dflt' > 'latn' <'dflt' > ) ]

StartChar: .notdef
Encoding: 65536 -1 0
Width: 524
GlyphClass: 1
Flags: W
LayerCount: 2
Fore
SplineSet
401 545 m 1,0,-1
 542 -254 l 1,1,-1
 81 -254 l 1,2,-1
 -60 545 l 1,3,-1
 401 545 l 1,0,-1
373 511 m 1,4,-1
 -19 511 l 1,5,-1
 110 -220 l 1,6,-1
 502 -220 l 1,7,-1
 373 511 l 1,4,-1
234 41 m 2,8,9
 230 41 230 41 229 46 c 2,10,-1
 223 80 l 2,11,12
 222 83 222 83 222 86 c 128,-1,13
 222 89 222 89 222 92 c 0,14,15
 222 109 222 109 231.5 124 c 128,-1,16
 241 139 241 139 266 161 c 0,17,18
 292 184 292 184 302 201.5 c 128,-1,19
 312 219 312 219 312 242 c 0,20,21
 312 289 312 289 280 318.5 c 128,-1,22
 248 348 248 348 198 348 c 0,23,24
 144 348 144 348 99 312 c 0,25,26
 94 308 94 308 90 308 c 0,27,28
 87 308 87 308 83 315 c 2,29,-1
 77 328 l 2,30,31
 74 333 74 333 74 338 c 0,32,33
 74 350 74 350 92 361 c 128,-1,34
 110 372 110 372 137 379.5 c 128,-1,35
 164 387 164 387 191 387 c 0,36,37
 280 387 280 387 323 330 c 0,38,39
 337 312 337 312 345 288 c 128,-1,40
 353 264 353 264 353 243 c 0,41,42
 353 225 353 225 346.5 209 c 128,-1,43
 340 193 340 193 322 172 c 128,-1,44
 304 151 304 151 269 116 c 0,45,46
 259 106 259 106 259 93 c 0,47,48
 259 90 259 90 259.5 85.5 c 128,-1,49
 260 81 260 81 261 76 c 2,50,-1
 266 46 l 1,51,-1
 266 44 l 2,52,53
 266 41 266 41 263 41 c 2,54,-1
 234 41 l 2,8,9
257 -12 m 0,55,56
 273 -12 273 -12 284.5 -23.5 c 128,-1,57
 296 -35 296 -35 296 -51 c 0,58,59
 296 -63 296 -63 288 -71 c 128,-1,60
 280 -79 280 -79 269 -79 c 0,61,62
 253 -79 253 -79 241.5 -67 c 128,-1,63
 230 -55 230 -55 230 -40 c 0,64,65
 230 -28 230 -28 238 -20 c 128,-1,66
 246 -12 246 -12 257 -12 c 0,55,56
EndSplineSet
EndChar

StartChar: exclam
Encoding: 33 33 3
Width: 141
GlyphClass: 1
Flags: W
LayerCount: 2
Fore
SplineSet
30 135 m 2,0,1
 26 135 26 135 26 138 c 2,2,-1
 26 141 l 1,3,-1
 95 549 l 2,4,5
 96 556 96 556 101 556 c 2,6,-1
 106 556 l 2,7,8
 121 556 121 556 130 546 c 128,-1,9
 139 536 139 536 139 519 c 0,10,11
 139 515 139 515 138.5 511.5 c 128,-1,12
 138 508 138 508 137 503 c 2,13,-1
 70 141 l 2,14,15
 69 135 69 135 65 135 c 2,16,-1
 30 135 l 2,0,1
34 69 m 0,17,18
 48 69 48 69 59.5 59 c 128,-1,19
 71 49 71 49 71 34 c 0,20,21
 71 15 71 15 57 -0.5 c 128,-1,22
 43 -16 43 -16 24 -16 c 0,23,24
 9 -16 9 -16 -2 -5.5 c 128,-1,25
 -13 5 -13 5 -13 19 c 0,26,27
 -13 39 -13 39 1 54 c 128,-1,28
 15 69 15 69 34 69 c 0,17,18
EndSplineSet
Substitution2: "'locl' Localized Forms lookup 17 subtable" exclam.ar
EndChar

StartChar: quotedbl
Encoding: 34 34 4
Width: 218
GlyphClass: 1
Flags: W
LayerCount: 2
Fore
SplineSet
49 382 m 2,0,1
 44 382 44 382 43 388 c 2,2,-1
 1 549 l 1,3,-1
 1 551 l 2,4,5
 1 556 1 556 5 556 c 2,6,-1
 12 556 l 2,7,8
 56 556 56 556 62 503 c 2,9,-1
 75 388 l 1,10,-1
 75 385 l 2,11,12
 75 382 75 382 71 382 c 2,13,-1
 49 382 l 2,0,1
148 382 m 2,14,15
 143 382 143 382 141 388 c 2,16,-1
 100 549 l 1,17,-1
 100 551 l 2,18,19
 100 556 100 556 104 556 c 2,20,-1
 111 556 l 2,21,22
 155 556 155 556 161 503 c 2,23,-1
 174 388 l 1,24,-1
 174 385 l 2,25,26
 174 382 174 382 170 382 c 2,27,-1
 148 382 l 2,14,15
EndSplineSet
EndChar

StartChar: numbersign
Encoding: 35 35 5
Width: 529
GlyphClass: 1
Flags: W
LayerCount: 2
Fore
SplineSet
154 159 m 1,0,-1
 82 159 l 2,1,2
 76 159 76 159 74 164 c 2,3,-1
 74 165 l 1,4,-1
 64 198 l 2,5,6
 63 204 63 204 68 204 c 2,7,-1
 142 204 l 1,8,-1
 101 352 l 1,9,-1
 29 352 l 2,10,11
 22 352 22 352 21 357 c 2,12,-1
 21 358 l 1,13,-1
 11 391 l 2,14,15
 10 397 10 397 15 397 c 2,16,-1
 89 397 l 1,17,-1
 47 549 l 1,18,-1
 47 551 l 2,19,20
 45 556 45 556 49 556 c 2,21,-1
 58 556 l 2,22,23
 94 556 94 556 108 517 c 0,24,25
 109 515 109 515 109 513 c 128,-1,26
 109 511 109 511 110 509 c 2,27,-1
 141 397 l 1,28,-1
 298 397 l 1,29,-1
 256 549 l 1,30,-1
 256 551 l 2,31,32
 254 556 254 556 258 556 c 2,33,-1
 267 556 l 2,34,35
 303 556 303 556 317 515 c 0,36,37
 318 514 318 514 318 512.5 c 128,-1,38
 318 511 318 511 319 509 c 2,39,-1
 350 397 l 1,40,-1
 422 397 l 2,41,42
 428 397 428 397 430 391 c 2,43,-1
 439 358 l 2,44,45
 441 352 441 352 436 352 c 2,46,-1
 362 352 l 1,47,-1
 403 204 l 1,48,-1
 476 204 l 2,49,50
 483 204 483 204 484 198 c 2,51,-1
 493 165 l 2,52,53
 495 159 495 159 489 159 c 2,54,-1
 414 159 l 1,55,-1
 456 6 l 2,56,57
 458 2 458 2 457.5 1 c 128,-1,58
 457 0 457 0 455 0 c 2,59,-1
 413 0 l 2,60,61
 408 0 408 0 406 5 c 2,62,-1
 406 6 l 1,63,-1
 363 159 l 1,64,-1
 206 159 l 1,65,-1
 247 6 l 1,66,-1
 248 3 l 2,67,68
 249 0 249 0 246 0 c 2,69,-1
 205 0 l 2,70,71
 199 0 199 0 197 5 c 2,72,-1
 197 6 l 1,73,-1
 154 159 l 1,0,-1
194 204 m 1,74,-1
 351 204 l 1,75,-1
 310 352 l 1,76,-1
 154 352 l 1,77,-1
 194 204 l 1,74,-1
EndSplineSet
EndChar

StartChar: dollar
Encoding: 36 36 6
Width: 446
GlyphClass: 1
Flags: W
LayerCount: 2
Fore
SplineSet
241 36 m 1,0,-1
 201 268 l 1,1,2
 154 283 154 283 127 294.5 c 128,-1,3
 100 306 100 306 79 319 c 0,4,5
 47 341 47 341 28.5 374 c 128,-1,6
 10 407 10 407 10 444 c 0,7,8
 10 492 10 492 46 526 c 0,9,10
 66 544 66 544 88.5 553 c 128,-1,11
 111 562 111 562 148 566 c 1,12,-1
 139 616 l 1,13,-1
 139 618 l 2,14,15
 139 622 139 622 143 622 c 2,16,-1
 174 622 l 2,17,18
 180 622 180 622 180 616 c 2,19,-1
 189 566 l 1,20,21
 234 563 234 563 271 551.5 c 128,-1,22
 308 540 308 540 330 524.5 c 128,-1,23
 352 509 352 509 352 492 c 0,24,25
 352 491 352 491 351.5 490.5 c 128,-1,26
 351 490 351 490 351 489 c 2,27,-1
 350 474 l 2,28,29
 350 466 350 466 344 466 c 0,30,31
 341 466 341 466 331 472 c 0,32,33
 300 491 300 491 266 503 c 128,-1,34
 232 515 232 515 197 518 c 1,35,-1
 236 300 l 1,36,37
 284 285 284 285 309.5 274.5 c 128,-1,38
 335 264 335 264 355 251 c 0,39,40
 425 207 425 207 425 125 c 0,41,42
 425 81 425 81 401 48 c 0,43,44
 383 24 383 24 357.5 11 c 128,-1,45
 332 -2 332 -2 290 -9 c 1,46,-1
 299 -59 l 1,47,-1
 299 -61 l 2,48,49
 299 -65 299 -65 295 -65 c 2,50,-1
 264 -65 l 2,51,52
 260 -65 260 -65 258 -59 c 2,53,-1
 250 -11 l 1,54,55
 195 -7 195 -7 158.5 5.5 c 128,-1,56
 122 18 122 18 93 44 c 0,57,58
 74 61 74 61 62 80.5 c 128,-1,59
 50 100 50 100 50 113 c 0,60,61
 50 127 50 127 60 127 c 0,62,63
 67 127 67 127 77 117 c 0,64,65
 120 74 120 74 157.5 56 c 128,-1,66
 195 38 195 38 241 36 c 1,0,-1
192 315 m 1,67,-1
 156 519 l 1,68,69
 58 510 58 510 58 439 c 0,70,71
 58 398 58 398 88.5 369.5 c 128,-1,72
 119 341 119 341 192 315 c 1,67,-1
244 253 m 1,73,-1
 282 39 l 1,74,75
 377 55 377 55 377 127 c 0,76,77
 377 170 377 170 347.5 197.5 c 128,-1,78
 318 225 318 225 244 253 c 1,73,-1
EndSplineSet
EndChar

StartChar: percent
Encoding: 37 37 7
Width: 719
GlyphClass: 1
Flags: W
LayerCount: 2
Fore
SplineSet
187 223 m 0,0,1
 102 223 102 223 58 305 c 0,2,3
 42 334 42 334 33 371.5 c 128,-1,4
 24 409 24 409 24 444 c 0,5,6
 24 476 24 476 36.5 504 c 128,-1,7
 49 532 49 532 72.5 549.5 c 128,-1,8
 96 567 96 567 128 567 c 0,9,10
 173 567 173 567 209 537 c 128,-1,11
 245 507 245 507 266.5 456.5 c 128,-1,12
 288 406 288 406 288 343 c 0,13,14
 288 291 288 291 259.5 257 c 128,-1,15
 231 223 231 223 187 223 c 0,0,1
247 0 m 2,16,17
 243 0 243 0 243 3 c 0,18,19
 243 4 243 4 243.5 4.5 c 128,-1,20
 244 5 244 5 244 6 c 2,21,-1
 447 549 l 2,22,23
 449 556 449 556 453 556 c 2,24,-1
 459 556 l 2,25,26
 485 556 485 556 485 529 c 0,27,28
 485 520 485 520 480 503 c 2,29,-1
 296 6 l 2,30,31
 294 0 294 0 289 0 c 2,32,-1
 247 0 l 2,16,17
180 261 m 0,33,34
 209 261 209 261 227 281 c 128,-1,35
 245 301 245 301 245 333 c 0,36,37
 245 380 245 380 233 425 c 128,-1,38
 221 470 221 470 202 494 c 0,39,40
 177 528 177 528 133 528 c 0,41,42
 99 528 99 528 83.5 505.5 c 128,-1,43
 68 483 68 483 68 454 c 0,44,45
 68 409 68 409 79.5 365 c 128,-1,46
 91 321 91 321 110 295 c 0,47,48
 135 261 135 261 180 261 c 0,33,34
616 -9 m 0,49,50
 532 -9 532 -9 488 73 c 0,51,52
 472 102 472 102 463 139.5 c 128,-1,53
 454 177 454 177 454 213 c 0,54,55
 454 261 454 261 481 298 c 128,-1,56
 508 335 508 335 558 335 c 0,57,58
 638 335 638 335 683 252 c 0,59,60
 699 223 699 223 708.5 185 c 128,-1,61
 718 147 718 147 718 111 c 0,62,63
 718 50 718 50 689 20.5 c 128,-1,64
 660 -9 660 -9 616 -9 c 0,49,50
610 29 m 0,65,66
 639 29 639 29 656.5 44 c 128,-1,67
 674 59 674 59 674 101 c 0,68,69
 674 148 674 148 662.5 192.5 c 128,-1,70
 651 237 651 237 632 262 c 0,71,72
 606 297 606 297 562 297 c 0,73,74
 528 297 528 297 512.5 273.5 c 128,-1,75
 497 250 497 250 497 221 c 0,76,77
 497 176 497 176 508.5 132.5 c 128,-1,78
 520 89 520 89 539 63 c 0,79,80
 564 29 564 29 610 29 c 0,65,66
EndSplineSet
EndChar

StartChar: ampersand
Encoding: 38 38 8
Width: 518
GlyphClass: 1
Flags: W
LayerCount: 2
Fore
SplineSet
371 159 m 1,0,-1
 421 280 l 2,1,2
 425 290 425 290 435 290 c 2,3,-1
 466 290 l 2,4,5
 472 290 472 290 472 285 c 0,6,7
 472 283 472 283 471 283 c 2,8,-1
 406 127 l 1,9,-1
 529 8 l 2,10,11
 531 4 531 4 531 3 c 0,12,13
 531 0 531 0 527 0 c 2,14,-1
 488 0 l 2,15,16
 480 0 480 0 476.5 1.5 c 128,-1,17
 473 3 473 3 467 9 c 2,18,-1
 388 86 l 1,19,20
 354 36 354 36 320.5 15 c 128,-1,21
 287 -6 287 -6 241 -6 c 0,22,23
 190 -6 190 -6 147.5 15 c 128,-1,24
 105 36 105 36 80 76 c 128,-1,25
 55 116 55 116 55 172 c 0,26,27
 55 210 55 210 78.5 242 c 128,-1,28
 102 274 102 274 154 309 c 1,29,30
 97 362 97 362 75.5 396 c 128,-1,31
 54 430 54 430 54 468 c 0,32,33
 54 491 54 491 69 514 c 128,-1,34
 84 537 84 537 110.5 552 c 128,-1,35
 137 567 137 567 173 567 c 0,36,37
 248 567 248 567 287 531.5 c 128,-1,38
 326 496 326 496 326 434 c 0,39,40
 326 364 326 364 225 298 c 1,41,-1
 371 159 l 1,0,-1
193 331 m 1,42,43
 240 358 240 358 258.5 380.5 c 128,-1,44
 277 403 277 403 277 434 c 0,45,46
 277 476 277 476 254 499 c 128,-1,47
 231 522 231 522 180 522 c 0,48,49
 145 522 145 522 124.5 501 c 128,-1,50
 104 480 104 480 104 462 c 0,51,52
 104 435 104 435 125 404 c 128,-1,53
 146 373 146 373 193 331 c 1,42,43
354 117 m 1,54,-1
 188 276 l 1,55,56
 140 248 140 248 122 225.5 c 128,-1,57
 104 203 104 203 104 171 c 0,58,59
 104 105 104 105 142 72.5 c 128,-1,60
 180 40 180 40 238 40 c 0,61,62
 279 40 279 40 305.5 57 c 128,-1,63
 332 74 332 74 354 117 c 1,54,-1
EndSplineSet
EndChar

StartChar: quotesingle
Encoding: 39 39 9
Width: 118
GlyphClass: 1
Flags: W
LayerCount: 2
Fore
SplineSet
35 382 m 2,0,1
 30 382 30 382 29 388 c 2,2,-1
 -13 549 l 1,3,-1
 -13 551 l 2,4,5
 -13 556 -13 556 -9 556 c 2,6,-1
 -2 556 l 2,7,8
 42 556 42 556 48 503 c 2,9,-1
 61 388 l 1,10,-1
 61 385 l 2,11,12
 61 382 61 382 57 382 c 2,13,-1
 35 382 l 2,0,1
EndSplineSet
EndChar

StartChar: parenleft
Encoding: 40 40 10
Width: 319
GlyphClass: 1
Flags: W
LayerCount: 2
Fore
SplineSet
82 277 m 0,0,1
 63 382 63 382 76.5 466.5 c 128,-1,2
 90 551 90 551 124.5 610 c 128,-1,3
 159 669 159 669 202 697 c 0,4,5
 210 702 210 702 212 691 c 0,6,7
 216 668 216 668 212.5 658 c 128,-1,8
 209 648 209 648 198 634 c 0,9,10
 145 573 145 573 126.5 484 c 128,-1,11
 108 395 108 395 130 277 c 0,12,13
 150 159 150 159 197.5 71 c 128,-1,14
 245 -17 245 -17 324 -78 c 0,15,16
 342 -91 342 -91 348 -102 c 128,-1,17
 354 -113 354 -113 358 -138 c 0,18,19
 361 -150 361 -150 350 -144 c 0,20,21
 247 -95 247 -95 179.5 9.5 c 128,-1,22
 112 114 112 114 82 277 c 0,0,1
EndSplineSet
PairPos2: "'kern' Horizontal Kerning lookup 2 per glyph data 1" uni0632 dx=4 dy=0 dh=4 dv=0 dx=0 dy=0 dh=0 dv=0
PairPos2: "'kern' Horizontal Kerning lookup 2 per glyph data 1" uni0631 dx=4 dy=0 dh=4 dv=0 dx=0 dy=0 dh=0 dv=0
EndChar

StartChar: parenright
Encoding: 41 41 11
Width: 324
GlyphClass: 1
Flags: W
LayerCount: 2
Fore
SplineSet
255 277 m 0,0,1
 275 163 275 163 262.5 79 c 128,-1,2
 250 -5 250 -5 215.5 -60.5 c 128,-1,3
 181 -116 181 -116 136 -144 c 0,4,5
 127 -148 127 -148 126 -138 c 0,6,7
 122 -115 122 -115 124 -104.5 c 128,-1,8
 126 -94 126 -94 139 -81 c 0,9,10
 199 -17 199 -17 214 71 c 128,-1,11
 229 159 229 159 207 277 c 0,12,13
 193 363 193 363 166.5 427 c 128,-1,14
 140 491 140 491 102 540.5 c 128,-1,15
 64 590 64 590 13 631 c 0,16,17
 -3 645 -3 645 -9.5 655.5 c 128,-1,18
 -16 666 -16 666 -21 691 c 0,19,20
 -22 702 -22 702 -12 697 c 0,21,22
 80 651 80 651 153.5 545.5 c 128,-1,23
 227 440 227 440 255 277 c 0,0,1
EndSplineSet
PairPos2: "'kern' Horizontal Kerning lookup 2 per glyph data 1" uni0698 dx=-8 dy=0 dh=-8 dv=0 dx=0 dy=0 dh=0 dv=0
PairPos2: "'kern' Horizontal Kerning lookup 2 per glyph data 1" uni0695 dx=-8 dy=0 dh=-8 dv=0 dx=0 dy=0 dh=0 dv=0
PairPos2: "'kern' Horizontal Kerning lookup 2 per glyph data 1" uni0694 dx=-8 dy=0 dh=-8 dv=0 dx=0 dy=0 dh=0 dv=0
PairPos2: "'kern' Horizontal Kerning lookup 2 per glyph data 1" uni0691 dx=-1 dy=0 dh=-1 dv=0 dx=0 dy=0 dh=0 dv=0
PairPos2: "'kern' Horizontal Kerning lookup 2 per glyph data 1" uni0671 dx=26 dy=0 dh=26 dv=0 dx=0 dy=0 dh=0 dv=0
PairPos2: "'kern' Horizontal Kerning lookup 2 per glyph data 1" uni0632 dx=-8 dy=0 dh=-8 dv=0 dx=0 dy=0 dh=0 dv=0
PairPos2: "'kern' Horizontal Kerning lookup 2 per glyph data 1" uni0631 dx=-8 dy=0 dh=-8 dv=0 dx=0 dy=0 dh=0 dv=0
PairPos2: "'kern' Horizontal Kerning lookup 2 per glyph data 1" uni0625 dx=17 dy=0 dh=17 dv=0 dx=0 dy=0 dh=0 dv=0
PairPos2: "'kern' Horizontal Kerning lookup 2 per glyph data 1" uni0623 dx=43 dy=0 dh=43 dv=0 dx=0 dy=0 dh=0 dv=0
PairPos2: "'kern' Horizontal Kerning lookup 2 per glyph data 1" uni0622 dx=43 dy=0 dh=43 dv=0 dx=0 dy=0 dh=0 dv=0
EndChar

StartChar: asterisk
Encoding: 42 42 12
Width: 341
GlyphClass: 1
Flags: W
LayerCount: 2
Fore
SplineSet
112 388 m 1,0,-1
 13 414 l 2,1,2
 8 416 8 416 8 422 c 2,3,-1
 8 423 l 1,4,-1
 16 466 l 2,5,6
 16 469 16 469 19 469 c 2,7,-1
 21 469 l 1,8,-1
 118 432 l 1,9,-1
 92 533 l 1,10,-1
 92 534 l 2,11,12
 92 538 92 538 97 538 c 2,13,-1
 149 538 l 2,14,15
 156 538 156 538 156 533 c 2,16,-1
 168 432 l 1,17,-1
 250 469 l 1,18,-1
 252 469 l 2,19,20
 256 469 256 469 257 466 c 2,21,-1
 279 423 l 2,22,23
 279 422 279 422 279.5 421 c 128,-1,24
 280 420 280 420 280 418 c 256,25,26
 280 416 280 416 277 414 c 2,27,-1
 188 388 l 1,28,-1
 263 310 l 2,29,30
 265 308 265 308 265 307 c 0,31,32
 265 305 265 305 262 303 c 2,33,-1
 228 280 l 2,34,35
 225 278 225 278 224 278 c 256,36,37
 223 278 223 278 221 281 c 2,38,-1
 152 368 l 1,39,-1
 117 281 l 2,40,41
 116 278 116 278 114 278 c 2,42,43
 114 278 114 278 113 278.5 c 128,-1,44
 112 279 112 279 111 280 c 2,45,-1
 110 280 l 1,46,-1
 68 303 l 2,47,48
 64 304 64 304 64 307 c 0,49,50
 64 309 64 309 65 310 c 2,51,-1
 112 388 l 1,0,-1
EndSplineSet
EndChar

StartChar: plus
Encoding: 43 43 13
Width: 384
GlyphClass: 1
Flags: W
LayerCount: 2
Fore
SplineSet
170 249 m 1,0,-1
 47 249 l 2,1,2
 42 249 42 249 42 255 c 2,3,-1
 42 289 l 2,4,5
 42 295 42 295 47 295 c 2,6,-1
 170 295 l 1,7,-1
 170 437 l 2,8,9
 170 443 170 443 175 443 c 0,10,11
 216 443 216 443 216 397 c 2,12,-1
 216 295 l 1,13,-1
 340 295 l 2,14,15
 345 295 345 295 345 289 c 2,16,-1
 345 255 l 2,17,18
 345 249 345 249 340 249 c 2,19,-1
 216 249 l 1,20,-1
 216 107 l 2,21,22
 218 101 218 101 211 101 c 2,23,-1
 175 101 l 2,24,25
 170 101 170 101 170 107 c 2,26,-1
 170 249 l 1,0,-1
EndSplineSet
EndChar

StartChar: comma
Encoding: 44 44 14
Width: 137
GlyphClass: 1
Flags: W
LayerCount: 2
Fore
SplineSet
71 -16 m 1,0,1
 52 -12 52 -12 40 2 c 128,-1,2
 28 16 28 16 28 33 c 0,3,4
 28 48 28 48 38 58 c 128,-1,5
 48 68 48 68 62 68 c 0,6,7
 85 68 85 68 99 51 c 128,-1,8
 113 34 113 34 113 6 c 0,9,10
 113 -12 113 -12 109.5 -26.5 c 128,-1,11
 106 -41 106 -41 95.5 -58 c 128,-1,12
 85 -75 85 -75 65 -101 c 0,13,14
 64 -102 64 -102 63 -102 c 0,15,16
 59 -102 59 -102 54 -94.5 c 128,-1,17
 49 -87 49 -87 49 -81 c 0,18,19
 49 -74 49 -74 56 -61 c 0,20,21
 64 -44 64 -44 67 -36 c 128,-1,22
 70 -28 70 -28 71 -16 c 1,0,1
EndSplineSet
EndChar

StartChar: hyphen
Encoding: 45 45 15
Width: 305
GlyphClass: 1
Flags: W
LayerCount: 2
Fore
SplineSet
48 180 m 2,0,1
 43 180 43 180 42 184 c 2,2,-1
 42 186 l 1,3,-1
 36 221 l 2,4,5
 35 227 35 227 40 227 c 2,6,-1
 254 227 l 2,7,8
 258 227 258 227 259 223 c 2,9,10
 259 223 259 223 259 222.5 c 128,-1,11
 259 222 259 222 260 221 c 2,12,-1
 266 186 l 2,13,14
 267 180 267 180 262 180 c 2,15,-1
 48 180 l 2,0,1
EndSplineSet
EndChar

StartChar: period
Encoding: 46 46 16
Width: 183
GlyphClass: 1
Flags: W
LayerCount: 2
Fore
SplineSet
109 69 m 0,0,1
 129 69 129 69 143.5 54 c 128,-1,2
 158 39 158 39 158 19 c 0,3,4
 158 4 158 4 148.5 -6 c 128,-1,5
 139 -16 139 -16 124 -16 c 0,6,7
 105 -16 105 -16 90 -0.5 c 128,-1,8
 75 15 75 15 75 34 c 0,9,10
 75 48 75 48 85 58.5 c 128,-1,11
 95 69 95 69 109 69 c 0,0,1
EndSplineSet
PairPos2: "'kern' Horizontal Kerning lookup 1 subtable" quotedblright dx=0 dy=0 dh=-1 dv=0 dx=0 dy=0 dh=0 dv=0
PairPos2: "'kern' Horizontal Kerning lookup 1 subtable" quoteright dx=0 dy=0 dh=-1 dv=0 dx=0 dy=0 dh=0 dv=0
EndChar

StartChar: slash
Encoding: 47 47 17
Width: 271
GlyphClass: 1
Flags: W
LayerCount: 2
Fore
SplineSet
5 0 m 2,0,1
 1 0 1 0 1 3 c 2,2,-1
 2 6 l 1,3,-1
 136 549 l 2,4,5
 138 556 138 556 142 556 c 2,6,-1
 148 556 l 2,7,8
 178 556 178 556 178 521 c 0,9,10
 178 517 178 517 178 512.5 c 128,-1,11
 178 508 178 508 176 503 c 2,12,-1
 54 6 l 2,13,14
 53 0 53 0 47 0 c 2,15,-1
 5 0 l 2,0,1
EndSplineSet
EndChar

StartChar: zero
Encoding: 48 48 18
Width: 498
GlyphClass: 1
Flags: W
LayerCount: 2
Fore
SplineSet
284 -10 m 0,0,1
 157 -10 157 -10 92 112 c 0,2,3
 64 163 64 163 47 221 c 128,-1,4
 30 279 30 279 30 346 c 0,5,6
 30 408 30 408 48 458 c 128,-1,7
 66 508 66 508 101 537.5 c 128,-1,8
 136 567 136 567 188 567 c 0,9,10
 267 567 267 567 320 530.5 c 128,-1,11
 373 494 373 494 407 432 c 0,12,13
 435 381 435 381 443 324.5 c 128,-1,14
 451 268 451 268 451 200 c 0,15,16
 451 100 451 100 405.5 45 c 128,-1,17
 360 -10 360 -10 284 -10 c 0,0,1
277 37 m 0,18,19
 333 37 333 37 367 78 c 128,-1,20
 401 119 401 119 401 196 c 0,21,22
 401 267 401 267 391.5 326.5 c 128,-1,23
 382 386 382 386 356 430 c 0,24,25
 331 471 331 471 292.5 495 c 128,-1,26
 254 519 254 519 191 519 c 0,27,28
 153 519 153 519 128 496.5 c 128,-1,29
 103 474 103 474 91 436.5 c 128,-1,30
 79 399 79 399 79 354 c 0,31,32
 79 272 79 272 100 208 c 128,-1,33
 121 144 121 144 155 99 c 0,34,35
 200 37 200 37 277 37 c 0,18,19
EndSplineSet
Substitution2: "'lnum' Lining Figures in Latin lookup 7 subtable" zero.tab
Substitution2: "'aalt' Access All Alternates lookup 0 subtable" zero.tab
EndChar

StartChar: one
Encoding: 49 49 19
Width: 340
GlyphClass: 1
Flags: W
LayerCount: 2
Fore
SplineSet
203 47 m 1,0,-1
 122 509 l 1,1,-1
 25 471 l 2,2,3
 24 470 24 470 23 470 c 0,4,5
 21 470 21 470 19 474 c 2,6,-1
 12 513 l 1,7,-1
 12 516 l 2,8,9
 12 523 12 523 18 524 c 2,10,-1
 76 547 l 2,11,12
 102 556 102 556 121 556 c 2,13,-1
 129 556 l 2,14,15
 166 556 166 556 173 508 c 2,16,-1
 254 47 l 1,17,-1
 336 47 l 2,18,19
 365 47 365 47 371 18 c 2,20,-1
 373 7 l 1,21,-1
 373 5 l 2,22,23
 373 0 373 0 366 0 c 2,24,-1
 106 0 l 2,25,26
 102 0 102 0 100 6 c 2,27,-1
 94 41 l 1,28,-1
 94 44 l 2,29,30
 94 47 94 47 98 47 c 2,31,-1
 203 47 l 1,0,-1
EndSplineSet
Substitution2: "'lnum' Lining Figures in Latin lookup 7 subtable" one.tab
Substitution2: "'sups' Superscript lookup 3 subtable" onesuperior
AlternateSubs2: "'aalt' Access All Alternates lookup 1 subtable" onesuperior one.tab
EndChar

StartChar: two
Encoding: 50 50 20
Width: 436
GlyphClass: 1
Flags: W
LayerCount: 2
Fore
SplineSet
133 47 m 1,0,-1
 390 47 l 2,1,2
 421 47 421 47 425 18 c 2,3,-1
 427 7 l 1,4,-1
 427 5 l 2,5,6
 427 0 427 0 421 0 c 2,7,-1
 94 0 l 2,8,9
 83 0 83 0 83 46 c 0,10,11
 83 98 83 98 112.5 142 c 128,-1,12
 142 186 142 186 210 238 c 0,13,14
 266 280 266 280 286 310 c 128,-1,15
 306 340 306 340 306 380 c 0,16,17
 306 443 306 443 267 481 c 128,-1,18
 228 519 228 519 164 519 c 0,19,20
 131 519 131 519 97 506 c 128,-1,21
 63 493 63 493 38 470 c 0,22,23
 34 466 34 466 28 466 c 0,24,25
 24 466 24 466 19 474 c 2,26,-1
 11 489 l 2,27,28
 8 497 8 497 8 503 c 0,29,30
 8 512 8 512 18 521 c 128,-1,31
 28 530 28 530 52 542 c 0,32,33
 102 567 102 567 159 567 c 0,34,35
 266 567 266 567 318 497 c 0,36,37
 335 474 335 474 345.5 443 c 128,-1,38
 356 412 356 412 356 383 c 0,39,40
 356 340 356 340 329.5 301.5 c 128,-1,41
 303 263 303 263 235 207 c 0,42,43
 201 178 201 178 180.5 158.5 c 128,-1,44
 160 139 160 139 150 123 c 128,-1,45
 140 107 140 107 136.5 89.5 c 128,-1,46
 133 72 133 72 133 47 c 1,0,-1
EndSplineSet
Substitution2: "'lnum' Lining Figures in Latin lookup 7 subtable" two.tab
Substitution2: "'sups' Superscript lookup 3 subtable" twosuperior
AlternateSubs2: "'aalt' Access All Alternates lookup 1 subtable" twosuperior two.tab
EndChar

StartChar: three
Encoding: 51 51 21
Width: 434
GlyphClass: 1
Flags: W
LayerCount: 2
Fore
SplineSet
285 291 m 1,0,1
 353 279 353 279 388.5 236 c 128,-1,2
 424 193 424 193 424 129 c 0,3,4
 424 86 424 86 401.5 55 c 128,-1,5
 379 24 379 24 343 7 c 128,-1,6
 307 -10 307 -10 266 -10 c 0,7,8
 222 -10 222 -10 182 3.5 c 128,-1,9
 142 17 142 17 113 42 c 0,10,11
 95 58 95 58 82.5 78 c 128,-1,12
 70 98 70 98 70 111 c 0,13,14
 70 125 70 125 80 125 c 0,15,16
 85 125 85 125 89 121.5 c 128,-1,17
 93 118 93 118 112 98 c 0,18,19
 173 37 173 37 255 37 c 0,20,21
 285 37 285 37 312 48.5 c 128,-1,22
 339 60 339 60 355.5 82 c 128,-1,23
 372 104 372 104 372 136 c 0,24,25
 372 198 372 198 328 234 c 128,-1,26
 284 270 284 270 205 270 c 2,27,-1
 153 270 l 2,28,29
 122 270 122 270 118 298 c 2,30,-1
 116 308 l 1,31,-1
 116 310 l 2,32,33
 116 316 116 316 123 316 c 2,34,-1
 211 316 l 2,35,36
 311 316 311 316 311 394 c 0,37,38
 311 452 311 452 278 485.5 c 128,-1,39
 245 519 245 519 169 519 c 0,40,41
 132 519 132 519 105.5 509 c 128,-1,42
 79 499 79 499 44 472 c 0,43,44
 37 466 37 466 32 466 c 0,45,46
 29 466 29 466 24 474 c 2,47,-1
 16 489 l 2,48,49
 13 497 13 497 13 502 c 0,50,51
 13 517 13 517 36 532 c 128,-1,52
 59 547 59 547 93.5 557 c 128,-1,53
 128 567 128 567 161 567 c 0,54,55
 259 567 259 567 309.5 519 c 128,-1,56
 360 471 360 471 360 395 c 0,57,58
 360 324 360 324 285 291 c 1,0,1
EndSplineSet
Substitution2: "'lnum' Lining Figures in Latin lookup 7 subtable" three.tab
Substitution2: "'sups' Superscript lookup 3 subtable" threesuperior
AlternateSubs2: "'aalt' Access All Alternates lookup 1 subtable" threesuperior three.tab
EndChar

StartChar: four
Encoding: 52 52 22
Width: 433
GlyphClass: 1
Flags: W
LayerCount: 2
Fore
SplineSet
310 139 m 1,0,-1
 53 139 l 2,1,2
 49 139 49 139 47 145 c 2,3,-1
 42 171 l 2,4,5
 41 175 41 175 41 178 c 128,-1,6
 41 181 41 181 41 182 c 0,7,8
 41 191 41 191 47 202 c 2,9,-1
 217 539 l 2,10,11
 226 556 226 556 241 556 c 2,12,-1
 256 556 l 2,13,14
 287 556 287 556 294 518 c 2,15,-1
 352 186 l 1,16,-1
 396 186 l 2,17,18
 426 186 426 186 432 157 c 2,19,-1
 433 146 l 2,20,21
 434 145 434 145 434 143 c 0,22,23
 434 139 434 139 427 139 c 2,24,-1
 361 139 l 1,25,-1
 384 6 l 1,26,-1
 384 4 l 2,27,28
 384 0 384 0 380 0 c 2,29,-1
 339 0 l 2,30,31
 335 0 335 0 333 6 c 2,32,-1
 310 139 l 1,0,-1
91 186 m 1,33,-1
 301 186 l 1,34,-1
 246 498 l 1,35,-1
 91 186 l 1,33,-1
EndSplineSet
Substitution2: "'lnum' Lining Figures in Latin lookup 7 subtable" four.tab
Substitution2: "'aalt' Access All Alternates lookup 0 subtable" four.tab
EndChar

StartChar: five
Encoding: 53 53 23
Width: 439
GlyphClass: 1
Flags: W
LayerCount: 2
Fore
SplineSet
69 508 m 1,0,-1
 101 329 l 1,1,2
 133 337 133 337 154 340.5 c 128,-1,3
 175 344 175 344 200 344 c 0,4,5
 304 344 304 344 357.5 287.5 c 128,-1,6
 411 231 411 231 411 136 c 0,7,8
 411 93 411 93 390 60 c 128,-1,9
 369 27 369 27 333 8.5 c 128,-1,10
 297 -10 297 -10 252 -10 c 0,11,12
 211 -10 211 -10 172 3.5 c 128,-1,13
 133 17 133 17 105 40 c 0,14,15
 87 56 87 56 74.5 76.5 c 128,-1,16
 62 97 62 97 62 111 c 256,17,18
 62 125 62 125 72 125 c 0,19,20
 76 125 76 125 80 121.5 c 128,-1,21
 84 118 84 118 104 98 c 0,22,23
 163 37 163 37 243 37 c 0,24,25
 293 37 293 37 326.5 64.5 c 128,-1,26
 360 92 360 92 360 139 c 0,27,28
 360 211 360 211 323.5 254.5 c 128,-1,29
 287 298 287 298 208 298 c 0,30,31
 176 298 176 298 137.5 290 c 128,-1,32
 99 282 99 282 71 270 c 0,33,34
 69 269 69 269 67 269 c 0,35,36
 61 269 61 269 61 276 c 2,37,-1
 12 549 l 1,38,-1
 12 552 l 2,39,40
 12 556 12 556 16 556 c 2,41,-1
 278 556 l 2,42,43
 308 556 308 556 313 527 c 2,44,-1
 315 516 l 1,45,-1
 315 513 l 2,46,47
 315 508 315 508 308 508 c 2,48,-1
 69 508 l 1,0,-1
EndSplineSet
Substitution2: "'lnum' Lining Figures in Latin lookup 7 subtable" five.tab
Substitution2: "'aalt' Access All Alternates lookup 0 subtable" five.tab
EndChar

StartChar: six
Encoding: 54 54 24
Width: 449
GlyphClass: 1
Flags: W
LayerCount: 2
Fore
SplineSet
144 328 m 1,0,1
 161 339 161 339 183 343.5 c 128,-1,2
 205 348 205 348 228 348 c 0,3,4
 301 348 301 348 343 321 c 128,-1,5
 385 294 385 294 403.5 248.5 c 128,-1,6
 422 203 422 203 422 147 c 0,7,8
 422 110 422 110 400 73.5 c 128,-1,9
 378 37 378 37 340.5 13.5 c 128,-1,10
 303 -10 303 -10 256 -10 c 0,11,12
 195 -10 195 -10 150 18.5 c 128,-1,13
 105 47 105 47 80 96 c 128,-1,14
 55 145 55 145 55 206 c 0,15,16
 55 235 55 235 63 266.5 c 128,-1,17
 71 298 71 298 89 340 c 2,18,-1
 182 558 l 2,19,20
 187 567 187 567 193 567 c 0,21,22
 207 567 207 567 215 556 c 128,-1,23
 223 545 223 545 223 528 c 256,24,25
 223 511 223 511 216 497 c 2,26,-1
 144 328 l 1,0,1
249 37 m 0,27,28
 284 37 284 37 311.5 55 c 128,-1,29
 339 73 339 73 355 100 c 128,-1,30
 371 127 371 127 371 152 c 0,31,32
 371 195 371 195 359 228.5 c 128,-1,33
 347 262 347 262 315.5 281.5 c 128,-1,34
 284 301 284 301 223 301 c 0,35,36
 171 301 171 301 138.5 273.5 c 128,-1,37
 106 246 106 246 106 198 c 0,38,39
 106 129 106 129 144 83 c 128,-1,40
 182 37 182 37 249 37 c 0,27,28
EndSplineSet
Substitution2: "'lnum' Lining Figures in Latin lookup 7 subtable" six.tab
Substitution2: "'aalt' Access All Alternates lookup 0 subtable" six.tab
EndChar

StartChar: seven
Encoding: 55 55 25
Width: 427
GlyphClass: 1
Flags: W
LayerCount: 2
Fore
SplineSet
308 508 m 1,0,-1
 13 508 l 2,1,2
 9 508 9 508 7 514 c 2,3,-1
 1 549 l 1,4,-1
 1 552 l 2,5,6
 1 556 1 556 5 556 c 2,7,-1
 321 556 l 2,8,9
 350 556 350 556 356 527 c 2,10,-1
 357 518 l 2,11,12
 358 513 358 513 358.5 509.5 c 128,-1,13
 359 506 359 506 359 503 c 0,14,15
 359 492 359 492 354 478 c 2,16,-1
 220 11 l 2,17,18
 216 0 216 0 206 0 c 2,19,-1
 167 0 l 2,20,21
 162 0 162 0 162 5 c 2,22,-1
 162 6 l 1,23,-1
 308 508 l 1,0,-1
EndSplineSet
Substitution2: "'lnum' Lining Figures in Latin lookup 7 subtable" seven.tab
Substitution2: "'aalt' Access All Alternates lookup 0 subtable" seven.tab
EndChar

StartChar: eight
Encoding: 56 56 26
Width: 446
GlyphClass: 1
Flags: W
LayerCount: 2
Fore
SplineSet
152 297 m 1,0,1
 102 317 102 317 69.5 353.5 c 128,-1,2
 37 390 37 390 37 448 c 0,3,4
 37 483 37 483 56 510 c 128,-1,5
 75 537 75 537 107 552 c 128,-1,6
 139 567 139 567 177 567 c 0,7,8
 237 567 237 567 279.5 544.5 c 128,-1,9
 322 522 322 522 344.5 484 c 128,-1,10
 367 446 367 446 367 399 c 0,11,12
 367 332 367 332 295 297 c 1,13,14
 339 283 339 283 370 263.5 c 128,-1,15
 401 244 401 244 417.5 210.5 c 128,-1,16
 434 177 434 177 434 122 c 0,17,18
 434 62 434 62 388 25.5 c 128,-1,19
 342 -11 342 -11 271 -11 c 0,20,21
 179 -11 179 -11 122.5 40 c 128,-1,22
 66 91 66 91 66 179 c 0,23,24
 66 226 66 226 90 252.5 c 128,-1,25
 114 279 114 279 152 297 c 1,0,1
86 438 m 0,26,27
 86 405 86 405 104 378 c 128,-1,28
 122 351 122 351 153 335 c 128,-1,29
 184 319 184 319 221 319 c 0,30,31
 260 319 260 319 289 341 c 128,-1,32
 318 363 318 363 318 400 c 0,33,34
 318 450 318 450 284.5 484.5 c 128,-1,35
 251 519 251 519 184 519 c 0,36,37
 144 519 144 519 115 497.5 c 128,-1,38
 86 476 86 476 86 438 c 0,26,27
116 176 m 0,39,40
 116 115 116 115 156.5 75.5 c 128,-1,41
 197 36 197 36 264 36 c 0,42,43
 317 36 317 36 350 60.5 c 128,-1,44
 383 85 383 85 383 129 c 0,45,46
 383 172 383 172 362 204.5 c 128,-1,47
 341 237 341 237 305.5 255.5 c 128,-1,48
 270 274 270 274 228 274 c 0,49,50
 177 274 177 274 146.5 247 c 128,-1,51
 116 220 116 220 116 176 c 0,39,40
EndSplineSet
Substitution2: "'lnum' Lining Figures in Latin lookup 7 subtable" eight.tab
Substitution2: "'aalt' Access All Alternates lookup 0 subtable" eight.tab
EndChar

StartChar: nine
Encoding: 57 57 27
Width: 449
GlyphClass: 1
Flags: W
LayerCount: 2
Fore
SplineSet
301 232 m 1,0,1
 272 209 272 209 228 209 c 0,2,3
 132 209 132 209 77.5 260 c 128,-1,4
 23 311 23 311 23 415 c 0,5,6
 23 481 23 481 65.5 524 c 128,-1,7
 108 567 108 567 178 567 c 0,8,9
 279 567 279 567 334 507.5 c 128,-1,10
 389 448 389 448 389 350 c 0,11,12
 389 322 389 322 381.5 292 c 128,-1,13
 374 262 374 262 355 217 c 2,14,-1
 262 -1 l 2,15,16
 258 -10 258 -10 250 -10 c 0,17,18
 237 -10 237 -10 229.5 0.5 c 128,-1,19
 222 11 222 11 222 28 c 0,20,21
 222 43 222 43 228 58 c 2,22,-1
 301 232 l 1,0,1
228 256 m 0,23,24
 279 256 279 256 308.5 283 c 128,-1,25
 338 310 338 310 338 358 c 0,26,27
 338 432 338 432 299.5 475.5 c 128,-1,28
 261 519 261 519 185 519 c 0,29,30
 133 519 133 519 103.5 489 c 128,-1,31
 74 459 74 459 74 411 c 0,32,33
 74 326 74 326 113 291 c 128,-1,34
 152 256 152 256 228 256 c 0,23,24
EndSplineSet
Substitution2: "'lnum' Lining Figures in Latin lookup 7 subtable" nine.tab
Substitution2: "'aalt' Access All Alternates lookup 0 subtable" nine.tab
EndChar

StartChar: colon
Encoding: 58 58 28
Width: 157
GlyphClass: 1
Flags: W
LayerCount: 2
Fore
SplineSet
94 289 m 0,0,1
 114 289 114 289 128.5 274 c 128,-1,2
 143 259 143 259 143 240 c 0,3,4
 143 224 143 224 133.5 214 c 128,-1,5
 124 204 124 204 109 204 c 0,6,7
 90 204 90 204 75 219.5 c 128,-1,8
 60 235 60 235 60 254 c 0,9,10
 60 268 60 268 70.5 278.5 c 128,-1,11
 81 289 81 289 94 289 c 0,0,1
133 69 m 0,12,13
 153 69 153 69 167.5 54 c 128,-1,14
 182 39 182 39 182 19 c 0,15,16
 182 4 182 4 172 -6 c 128,-1,17
 162 -16 162 -16 148 -16 c 0,18,19
 129 -16 129 -16 114 -0.5 c 128,-1,20
 99 15 99 15 99 34 c 0,21,22
 99 48 99 48 109 58.5 c 128,-1,23
 119 69 119 69 133 69 c 0,12,13
EndSplineSet
EndChar

StartChar: semicolon
Encoding: 59 59 29
Width: 157
GlyphClass: 1
Flags: W
LayerCount: 2
Fore
SplineSet
89 289 m 0,0,1
 103 289 103 289 114 279 c 128,-1,2
 125 269 125 269 125 254 c 0,3,4
 125 235 125 235 111.5 219.5 c 128,-1,5
 98 204 98 204 78 204 c 0,6,7
 64 204 64 204 53 214.5 c 128,-1,8
 42 225 42 225 42 240 c 0,9,10
 42 259 42 259 56 274 c 128,-1,11
 70 289 70 289 89 289 c 0,0,1
27 -16 m 1,12,13
 14 -13 14 -13 6.5 -1.5 c 128,-1,14
 -1 10 -1 10 -1 23 c 0,15,16
 -1 43 -1 43 12 55.5 c 128,-1,17
 25 68 25 68 46 68 c 0,18,19
 60 68 60 68 71 56 c 128,-1,20
 82 44 82 44 82 27 c 0,21,22
 82 7 82 7 69.5 -17.5 c 128,-1,23
 57 -42 57 -42 36 -64 c 128,-1,24
 15 -86 15 -86 -9 -101 c 0,25,26
 -10 -102 -10 -102 -10.5 -102 c 128,-1,27
 -11 -102 -11 -102 -11 -102 c 2,28,29
 -13 -102 -13 -102 -16 -97 c 128,-1,30
 -19 -92 -19 -92 -19 -88 c 0,31,32
 -19 -76 -19 -76 -4 -61 c 0,33,34
 9 -46 9 -46 15.5 -37 c 128,-1,35
 22 -28 22 -28 27 -16 c 1,12,13
EndSplineSet
EndChar

StartChar: less
Encoding: 60 60 30
Width: 449
GlyphClass: 1
Flags: W
LayerCount: 2
Fore
SplineSet
124 272 m 1,0,-1
 378 169 l 2,1,2
 397 162 397 162 405.5 147.5 c 128,-1,3
 414 133 414 133 414 115 c 2,4,-1
 414 108 l 2,5,6
 416 98 416 98 408 102 c 2,7,-1
 60 246 l 2,8,9
 55 249 55 249 55 254 c 2,10,-1
 55 287 l 2,11,12
 55 293 55 293 60 295 c 2,13,-1
 408 438 l 2,14,15
 415 440 415 440 415 433 c 2,16,-1
 414 398 l 2,17,18
 414 385 414 385 401 381 c 2,19,-1
 124 272 l 1,0,-1
EndSplineSet
EndChar

StartChar: equal
Encoding: 61 61 31
Width: 384
GlyphClass: 1
Flags: W
LayerCount: 2
Fore
SplineSet
45 333 m 2,0,1
 40 333 40 333 40 339 c 2,2,-1
 40 374 l 2,3,4
 40 379 40 379 45 379 c 2,5,-1
 304 379 l 2,6,7
 323 379 323 379 333 369 c 128,-1,8
 343 359 343 359 343 344 c 2,9,-1
 343 339 l 2,10,11
 343 333 343 333 338 333 c 2,12,-1
 45 333 l 2,0,1
45 159 m 2,13,14
 40 159 40 159 40 165 c 2,15,-1
 40 200 l 2,16,17
 40 206 40 206 45 206 c 2,18,-1
 304 206 l 2,19,20
 323 206 323 206 333 195.5 c 128,-1,21
 343 185 343 185 343 170 c 2,22,-1
 343 165 l 2,23,24
 343 159 343 159 338 159 c 2,25,-1
 45 159 l 2,13,14
EndSplineSet
EndChar

StartChar: greater
Encoding: 62 62 32
Width: 449
GlyphClass: 1
Flags: W
LayerCount: 2
Fore
SplineSet
326 272 m 1,0,-1
 50 381 l 2,1,2
 36 386 36 386 36 398 c 2,3,-1
 36 433 l 2,4,5
 36 440 36 440 43 438 c 2,6,-1
 391 295 l 2,7,8
 396 293 396 293 396 287 c 2,9,-1
 396 254 l 2,10,11
 396 249 396 249 391 246 c 2,12,-1
 43 102 l 2,13,14
 36 99 36 99 36 108 c 2,15,-1
 36 115 l 2,16,17
 36 133 36 133 44.5 147.5 c 128,-1,18
 53 162 53 162 72 169 c 2,19,-1
 326 272 l 1,0,-1
EndSplineSet
EndChar

StartChar: question
Encoding: 63 63 33
Width: 388
GlyphClass: 1
Flags: W
LayerCount: 2
Fore
SplineSet
134 135 m 2,0,1
 130 135 130 135 130 139 c 2,2,-1
 130 141 l 1,3,-1
 137 183 l 2,4,5
 142 211 142 211 161.5 234 c 128,-1,6
 181 257 181 257 224 287 c 0,7,8
 283 328 283 328 305.5 360 c 128,-1,9
 328 392 328 392 328 433 c 0,10,11
 328 518 328 518 225 518 c 0,12,13
 156 518 156 518 84 473 c 0,14,15
 79 469 79 469 72 469 c 0,16,17
 67 469 67 469 66 477 c 2,18,-1
 64 493 l 1,19,-1
 64 497 l 2,20,21
 64 514 64 514 88.5 530 c 128,-1,22
 113 546 113 546 151 556.5 c 128,-1,23
 189 567 189 567 229 567 c 0,24,25
 300 567 300 567 340.5 531.5 c 128,-1,26
 381 496 381 496 381 437 c 0,27,28
 381 399 381 399 367.5 369 c 128,-1,29
 354 339 354 339 323 310 c 128,-1,30
 292 281 292 281 239 246 c 0,31,32
 215 230 215 230 204 221.5 c 128,-1,33
 193 213 193 213 189.5 204.5 c 128,-1,34
 186 196 186 196 183 179 c 2,35,-1
 176 141 l 2,36,37
 175 135 175 135 170 135 c 2,38,-1
 134 135 l 2,0,1
138 69 m 0,39,40
 152 69 152 69 163 59 c 128,-1,41
 174 49 174 49 174 33 c 0,42,43
 174 14 174 14 160 -1 c 128,-1,44
 146 -16 146 -16 127 -16 c 0,45,46
 112 -16 112 -16 101 -5.5 c 128,-1,47
 90 5 90 5 90 19 c 0,48,49
 90 39 90 39 104.5 54 c 128,-1,50
 119 69 119 69 138 69 c 0,39,40
EndSplineSet
EndChar

StartChar: at
Encoding: 64 64 34
Width: 771
GlyphClass: 1
Flags: W
LayerCount: 2
Fore
SplineSet
508 108 m 1,0,1
 490 74 490 74 453 55.5 c 128,-1,2
 416 37 416 37 375 37 c 0,3,4
 324 37 324 37 284 66.5 c 128,-1,5
 244 96 244 96 221.5 144.5 c 128,-1,6
 199 193 199 193 199 251 c 0,7,8
 199 298 199 298 219.5 334.5 c 128,-1,9
 240 371 240 371 276 392 c 128,-1,10
 312 413 312 413 358 413 c 0,11,12
 436 413 436 413 486 354 c 1,13,-1
 486 363 l 2,14,15
 486 382 486 382 495 393 c 128,-1,16
 504 404 504 404 519 404 c 2,17,-1
 528 404 l 2,18,19
 534 404 534 404 534 399 c 2,20,-1
 554 162 l 2,21,22
 556 138 556 138 557.5 128 c 128,-1,23
 559 118 559 118 560 112 c 0,24,25
 570 83 570 83 600 83 c 0,26,27
 635 83 635 83 653.5 118 c 128,-1,28
 672 153 672 153 672 207 c 0,29,30
 672 298 672 298 634 369.5 c 128,-1,31
 596 441 596 441 526 482 c 128,-1,32
 456 523 456 523 361 523 c 0,33,34
 283 523 283 523 223 490.5 c 128,-1,35
 163 458 163 458 129 400.5 c 128,-1,36
 95 343 95 343 95 269 c 0,37,38
 95 168 95 168 134.5 89.5 c 128,-1,39
 174 11 174 11 247.5 -33.5 c 128,-1,40
 321 -78 321 -78 421 -78 c 0,41,42
 460 -78 460 -78 506 -70 c 128,-1,43
 552 -62 552 -62 592 -47.5 c 128,-1,44
 632 -33 632 -33 652 -15 c 0,45,46
 660 -9 660 -9 664 -9 c 0,47,48
 674 -9 674 -9 674 -24 c 0,49,50
 674 -42 674 -42 642 -68 c 0,51,52
 620 -86 620 -86 582 -98.5 c 128,-1,53
 544 -111 544 -111 501.5 -117.5 c 128,-1,54
 459 -124 459 -124 421 -124 c 0,55,56
 308 -124 308 -124 223 -73 c 128,-1,57
 138 -22 138 -22 90.5 67 c 128,-1,58
 43 156 43 156 43 271 c 0,59,60
 43 353 43 353 82 420 c 128,-1,61
 121 487 121 487 191 527.5 c 128,-1,62
 261 568 261 568 353 568 c 0,63,64
 465 568 465 568 547.5 523 c 128,-1,65
 630 478 630 478 676 397.5 c 128,-1,66
 722 317 722 317 722 210 c 0,67,68
 722 133 722 133 689 85.5 c 128,-1,69
 656 38 656 38 599 38 c 0,70,71
 566 38 566 38 542 56.5 c 128,-1,72
 518 75 518 75 508 108 c 1,0,1
379 85 m 0,73,74
 435 85 435 85 468.5 116 c 128,-1,75
 502 147 502 147 502 204 c 0,76,77
 502 276 502 276 464 321 c 128,-1,78
 426 366 426 366 364 366 c 0,79,80
 311 366 311 366 281 333.5 c 128,-1,81
 251 301 251 301 251 244 c 0,82,83
 251 174 251 174 285.5 129.5 c 128,-1,84
 320 85 320 85 379 85 c 0,73,74
EndSplineSet
EndChar

StartChar: A
Encoding: 65 65 35
Width: 498
GlyphClass: 1
Flags: W
LayerCount: 2
Fore
SplineSet
112 169 m 1,0,-1
 27 12 l 2,1,2
 23 5 23 5 20.5 2.5 c 128,-1,3
 18 0 18 0 10 0 c 2,4,-1
 -30 0 l 2,5,6
 -35 0 -35 0 -35 3 c 0,7,8
 -35 4 -35 4 -34.5 5 c 128,-1,9
 -34 6 -34 6 -34 7 c 2,10,-1
 274 549 l 2,11,12
 277 556 277 556 283 556 c 2,13,-1
 288 556 l 2,14,15
 308 556 308 556 318 548 c 128,-1,16
 328 540 328 540 332 521 c 2,17,-1
 441 7 l 1,18,-1
 441 5 l 2,19,20
 441 0 441 0 436 0 c 2,21,-1
 401 0 l 2,22,23
 394 0 394 0 392 2 c 128,-1,24
 390 4 390 4 388 12 c 2,25,-1
 356 169 l 1,26,-1
 112 169 l 1,0,-1
139 216 m 1,27,-1
 346 216 l 1,28,-1
 291 493 l 1,29,-1
 139 216 l 1,27,-1
EndSplineSet
Substitution2: "Single Substitution lookup 2 subtable" ordfeminine
EndChar

StartChar: B
Encoding: 66 66 36
Width: 486
GlyphClass: 1
Flags: W
LayerCount: 2
Fore
SplineSet
355 293 m 1,0,1
 398 281 398 281 416 246.5 c 128,-1,2
 434 212 434 212 434 169 c 0,3,4
 434 90 434 90 381.5 45 c 128,-1,5
 329 0 329 0 235 0 c 2,6,-1
 31 0 l 2,7,8
 27 0 27 0 27 4 c 2,9,-1
 27 6 l 1,10,-1
 123 549 l 2,11,12
 124 556 124 556 129 556 c 2,13,-1
 310 554 l 2,14,15
 376 553 376 553 415 521 c 128,-1,16
 454 489 454 489 454 435 c 0,17,18
 454 379 454 379 432 345 c 128,-1,19
 410 311 410 311 355 293 c 1,0,1
132 317 m 1,20,-1
 291 317 l 2,21,22
 344 317 344 317 374 348 c 128,-1,23
 404 379 404 379 404 432 c 0,24,25
 404 466 404 466 380.5 487 c 128,-1,26
 357 508 357 508 310 508 c 2,27,-1
 166 508 l 1,28,-1
 132 317 l 1,20,-1
84 47 m 1,29,-1
 233 47 l 2,30,31
 383 47 383 47 383 179 c 0,32,33
 383 220 383 220 358.5 245.5 c 128,-1,34
 334 271 334 271 281 271 c 2,35,-1
 124 271 l 1,36,-1
 84 47 l 1,29,-1
EndSplineSet
EndChar

StartChar: C
Encoding: 67 67 37
Width: 513
GlyphClass: 1
Flags: W
LayerCount: 2
Fore
SplineSet
511 473 m 2,0,1
 507 464 507 464 502 464 c 0,2,3
 500 464 500 464 497 466 c 128,-1,4
 494 468 494 468 477 481 c 0,5,6
 455 498 455 498 421 508.5 c 128,-1,7
 387 519 387 519 354 519 c 0,8,9
 280 519 280 519 223 479.5 c 128,-1,10
 166 440 166 440 134.5 370 c 128,-1,11
 103 300 103 300 103 206 c 0,12,13
 103 124 103 124 145 80 c 128,-1,14
 187 36 187 36 266 36 c 0,15,16
 367 36 367 36 440 118 c 0,17,18
 446 125 446 125 452 125 c 0,19,20
 464 125 464 125 462 113 c 0,21,22
 462 100 462 100 450.5 80.5 c 128,-1,23
 439 61 439 61 419 44 c 0,24,25
 389 18 389 18 347 3.5 c 128,-1,26
 305 -11 305 -11 258 -11 c 0,27,28
 53 -11 53 -11 53 208 c 0,29,30
 53 313 53 313 91 394 c 128,-1,31
 129 475 129 475 197.5 521 c 128,-1,32
 266 567 266 567 357 567 c 0,33,34
 394 567 394 567 431.5 557 c 128,-1,35
 469 547 469 547 494.5 532 c 128,-1,36
 520 517 520 517 520 502 c 0,37,38
 520 497 520 497 517 489 c 2,39,-1
 511 473 l 2,0,1
EndSplineSet
EndChar

StartChar: D
Encoding: 68 68 38
Width: 553
GlyphClass: 1
Flags: W
LayerCount: 2
Fore
SplineSet
31 0 m 2,0,1
 27 0 27 0 27 4 c 2,2,-1
 27 6 l 1,3,-1
 123 549 l 2,4,5
 124 556 124 556 129 556 c 2,6,-1
 274 556 l 2,7,8
 393 556 393 556 449 502 c 128,-1,9
 505 448 505 448 505 336 c 0,10,11
 505 275 505 275 490 218.5 c 128,-1,12
 475 162 475 162 448 119 c 0,13,14
 409 59 409 59 341.5 29.5 c 128,-1,15
 274 0 274 0 186 0 c 2,16,-1
 31 0 l 2,0,1
84 47 m 1,17,-1
 194 47 l 2,18,19
 264 47 264 47 317 70 c 128,-1,20
 370 93 370 93 404 142 c 0,21,22
 429 177 429 177 442 231 c 128,-1,23
 455 285 455 285 455 343 c 0,24,25
 455 426 455 426 409.5 467 c 128,-1,26
 364 508 364 508 264 508 c 2,27,-1
 166 508 l 1,28,-1
 84 47 l 1,17,-1
EndSplineSet
EndChar

StartChar: E
Encoding: 69 69 39
Width: 404
GlyphClass: 1
Flags: W
LayerCount: 2
Fore
SplineSet
85 47 m 1,0,-1
 303 47 l 2,1,2
 329 47 329 47 329 26 c 0,3,4
 329 20 329 20 328 18 c 2,5,-1
 326 7 l 2,6,7
 326 0 326 0 317 0 c 2,8,-1
 31 0 l 2,9,10
 27 0 27 0 27 3 c 2,11,-1
 27 6 l 1,12,-1
 123 549 l 2,13,14
 124 556 124 556 129 556 c 2,15,-1
 383 556 l 2,16,17
 409 556 409 556 409 535 c 0,18,19
 409 533 409 533 408.5 531 c 128,-1,20
 408 529 408 529 408 527 c 2,21,-1
 406 516 l 2,22,23
 405 509 405 509 397 509 c 2,24,-1
 166 509 l 1,25,-1
 129 298 l 1,26,-1
 320 298 l 2,27,28
 346 298 346 298 346 277 c 0,29,30
 346 276 346 276 345.5 273.5 c 128,-1,31
 345 271 345 271 345 269 c 2,32,-1
 343 257 l 2,33,34
 342 251 342 251 334 251 c 2,35,-1
 121 251 l 1,36,-1
 85 47 l 1,0,-1
EndSplineSet
EndChar

StartChar: F
Encoding: 70 70 40
Width: 389
GlyphClass: 1
Flags: W
LayerCount: 2
Fore
SplineSet
120 251 m 1,0,-1
 77 6 l 2,1,2
 76 0 76 0 71 0 c 2,3,-1
 31 0 l 2,4,5
 27 0 27 0 27 4 c 2,6,-1
 27 6 l 1,7,-1
 123 549 l 2,8,9
 124 556 124 556 129 556 c 2,10,-1
 383 556 l 2,11,12
 409 556 409 556 409 535 c 0,13,14
 409 533 409 533 408.5 531 c 128,-1,15
 408 529 408 529 408 527 c 2,16,-1
 406 516 l 2,17,18
 405 508 405 508 397 508 c 2,19,-1
 166 508 l 1,20,-1
 129 298 l 1,21,-1
 320 298 l 2,22,23
 345 298 345 298 345 277 c 2,24,-1
 345 270 l 1,25,-1
 343 258 l 2,26,27
 342 251 342 251 333 251 c 2,28,-1
 120 251 l 1,0,-1
EndSplineSet
EndChar

StartChar: G
Encoding: 71 71 41
Width: 564
GlyphClass: 1
Flags: W
LayerCount: 2
Fore
SplineSet
429 96 m 1,0,-1
 454 238 l 1,1,-1
 323 238 l 2,2,3
 297 238 297 238 297 259 c 0,4,5
 297 264 297 264 298 267 c 2,6,-1
 299 277 l 2,7,8
 300 284 300 284 309 284 c 2,9,-1
 507 284 l 2,10,11
 512 284 512 284 512 280 c 0,12,13
 512 279 512 279 511.5 278.5 c 128,-1,14
 511 278 511 278 511 278 c 1,15,-1
 479 97 l 2,16,17
 477 83 477 83 474 77 c 128,-1,18
 471 71 471 71 463 63 c 0,19,20
 422 26 422 26 365.5 7.5 c 128,-1,21
 309 -11 309 -11 256 -11 c 0,22,23
 151 -11 151 -11 102 48 c 128,-1,24
 53 107 53 107 53 213 c 0,25,26
 53 317 53 317 91.5 397 c 128,-1,27
 130 477 130 477 198.5 522 c 128,-1,28
 267 567 267 567 357 567 c 0,29,30
 397 567 397 567 437 556.5 c 128,-1,31
 477 546 477 546 503.5 531 c 128,-1,32
 530 516 530 516 530 502 c 0,33,34
 530 497 530 497 527 489 c 2,35,-1
 520 473 l 2,36,37
 517 464 517 464 511 464 c 0,38,39
 508 464 508 464 500 471 c 0,40,41
 440 519 440 519 355 519 c 0,42,43
 280 519 280 519 223 482 c 128,-1,44
 166 445 166 445 134 375.5 c 128,-1,45
 102 306 102 306 102 206 c 0,46,47
 102 124 102 124 144.5 80 c 128,-1,48
 187 36 187 36 266 36 c 0,49,50
 312 36 312 36 350.5 50.5 c 128,-1,51
 389 65 389 65 429 96 c 1,0,-1
EndSplineSet
EndChar

StartChar: H
Encoding: 72 72 42
Width: 522
GlyphClass: 1
Flags: W
LayerCount: 2
Fore
SplineSet
121 252 m 1,0,-1
 77 6 l 2,1,2
 76 0 76 0 71 0 c 2,3,-1
 31 0 l 2,4,5
 27 0 27 0 27 4 c 2,6,-1
 27 6 l 1,7,-1
 123 549 l 2,8,9
 124 556 124 556 129 556 c 2,10,-1
 134 556 l 2,11,12
 166 556 166 556 166 517 c 0,13,14
 166 514 166 514 166 510.5 c 128,-1,15
 166 507 166 507 165 503 c 2,16,-1
 129 298 l 1,17,-1
 405 298 l 1,18,-1
 450 549 l 2,19,20
 450 556 450 556 456 556 c 2,21,-1
 460 556 l 2,22,23
 475 556 475 556 484 545.5 c 128,-1,24
 493 535 493 535 493 517 c 0,25,26
 493 514 493 514 492.5 510.5 c 128,-1,27
 492 507 492 507 491 503 c 2,28,-1
 404 6 l 2,29,30
 403 0 403 0 398 0 c 2,31,-1
 358 0 l 2,32,33
 354 0 354 0 354 4 c 2,34,-1
 354 6 l 1,35,-1
 397 252 l 1,36,-1
 121 252 l 1,0,-1
EndSplineSet
EndChar

StartChar: I
Encoding: 73 73 43
Width: 196
GlyphClass: 1
Flags: W
LayerCount: 2
Fore
SplineSet
31 0 m 2,0,1
 27 0 27 0 27 3 c 2,2,-1
 27 6 l 1,3,-1
 123 549 l 2,4,5
 124 556 124 556 129 556 c 2,6,-1
 134 556 l 2,7,8
 149 556 149 556 158 545 c 128,-1,9
 167 534 167 534 167 517 c 0,10,11
 167 513 167 513 166.5 510 c 128,-1,12
 166 507 166 507 166 504 c 2,13,-1
 78 6 l 2,14,15
 77 0 77 0 72 0 c 2,16,-1
 31 0 l 2,0,1
EndSplineSet
EndChar

StartChar: J
Encoding: 74 74 44
Width: 280
GlyphClass: 1
Flags: W
LayerCount: 2
Fore
SplineSet
182 108 m 2,0,1
 173 56 173 56 145 23 c 128,-1,2
 117 -10 117 -10 57 -10 c 0,3,4
 21 -10 21 -10 -3 11 c 128,-1,5
 -27 32 -27 32 -27 64 c 0,6,7
 -27 87 -27 87 -15 87 c 0,8,9
 -10 87 -10 87 -9 81 c 0,10,11
 -1 61 -1 61 17 48 c 128,-1,12
 35 35 35 35 57 35 c 0,13,14
 85 35 85 35 105.5 52 c 128,-1,15
 126 69 126 69 130 96 c 2,16,-1
 210 549 l 2,17,18
 211 556 211 556 216 556 c 2,19,-1
 220 556 l 2,20,21
 235 556 235 556 244 545 c 128,-1,22
 253 534 253 534 253 517 c 0,23,24
 253 514 253 514 253 510.5 c 128,-1,25
 253 507 253 507 252 503 c 2,26,-1
 182 108 l 2,0,1
EndSplineSet
EndChar

StartChar: K
Encoding: 75 75 45
Width: 473
GlyphClass: 1
Flags: W
LayerCount: 2
Fore
SplineSet
265 331 m 1,0,-1
 413 8 l 1,1,-1
 413 6 l 2,2,3
 413 0 413 0 406 0 c 2,4,-1
 370 0 l 2,5,6
 359 0 359 0 355 10 c 2,7,-1
 228 295 l 1,8,-1
 107 178 l 1,9,-1
 77 6 l 2,10,11
 76 0 76 0 71 0 c 2,12,-1
 31 0 l 2,13,14
 27 0 27 0 27 4 c 2,15,-1
 27 6 l 1,16,-1
 123 549 l 2,17,18
 124 556 124 556 129 556 c 2,19,-1
 134 556 l 2,20,21
 166 556 166 556 166 517 c 0,22,23
 166 514 166 514 166 510.5 c 128,-1,24
 166 507 166 507 165 503 c 2,25,-1
 120 248 l 1,26,-1
 423 547 l 2,27,28
 429 553 429 553 432 554.5 c 128,-1,29
 435 556 435 556 442 556 c 2,30,-1
 486 556 l 2,31,32
 489 556 489 556 489 552 c 0,33,34
 489 549 489 549 488 548 c 2,35,-1
 265 331 l 1,0,-1
EndSplineSet
EndChar

StartChar: L
Encoding: 76 76 46
Width: 362
GlyphClass: 1
Flags: W
LayerCount: 2
Fore
SplineSet
84 47 m 1,0,-1
 272 47 l 2,1,2
 298 47 298 47 298 26 c 0,3,4
 298 24 298 24 297.5 22 c 128,-1,5
 297 20 297 20 297 18 c 2,6,-1
 295 7 l 2,7,8
 294 0 294 0 286 0 c 2,9,-1
 31 0 l 2,10,11
 27 0 27 0 27 4 c 2,12,-1
 27 6 l 1,13,-1
 123 549 l 2,14,15
 124 556 124 556 129 556 c 2,16,-1
 134 556 l 2,17,18
 166 556 166 556 166 517 c 0,19,20
 166 514 166 514 166 510.5 c 128,-1,21
 166 507 166 507 165 503 c 2,22,-1
 84 47 l 1,0,-1
EndSplineSet
EndChar

StartChar: M
Encoding: 77 77 47
Width: 604
GlyphClass: 1
Flags: W
LayerCount: 2
Fore
SplineSet
263 65 m 1,0,-1
 516 549 l 2,1,2
 520 556 520 556 524 556 c 2,3,-1
 527 556 l 2,4,5
 544 556 544 556 555 545.5 c 128,-1,6
 566 535 566 535 566 517 c 0,7,8
 566 515 566 515 566.5 512.5 c 128,-1,9
 567 510 567 510 566 508 c 2,10,-1
 506 6 l 2,11,12
 506 0 506 0 500 0 c 2,13,-1
 459 0 l 2,14,15
 455 0 455 0 455 3 c 2,16,-1
 455 6 l 1,17,-1
 508 434 l 1,18,-1
 280 7 l 2,19,20
 276 0 276 0 269 0 c 2,21,-1
 234 0 l 2,22,23
 230 0 230 0 229 7 c 2,24,-1
 155 427 l 1,25,-1
 57 6 l 2,26,27
 56 0 56 0 51 0 c 2,28,-1
 11 0 l 2,29,30
 7 0 7 0 7 4 c 2,31,-1
 7 6 l 1,32,-1
 132 549 l 2,33,34
 133 556 133 556 139 556 c 2,35,-1
 144 556 l 2,36,37
 167 556 167 556 175.5 547.5 c 128,-1,38
 184 539 184 539 188 516 c 2,39,-1
 263 65 l 1,0,-1
EndSplineSet
EndChar

StartChar: N
Encoding: 78 78 48
Width: 522
GlyphClass: 1
Flags: W
LayerCount: 2
Fore
SplineSet
367 80 m 1,0,-1
 450 549 l 2,1,2
 451 556 451 556 456 556 c 2,3,-1
 461 556 l 2,4,5
 476 556 476 556 484.5 545.5 c 128,-1,6
 493 535 493 535 493 518 c 0,7,8
 493 514 493 514 493 510.5 c 128,-1,9
 493 507 493 507 492 504 c 2,10,-1
 404 6 l 2,11,12
 403 0 403 0 398 0 c 2,13,-1
 364 0 l 2,14,15
 350 0 350 0 344 13 c 2,16,-1
 157 454 l 1,17,-1
 78 6 l 2,18,19
 77 0 77 0 72 0 c 2,20,-1
 31 0 l 2,21,22
 27 0 27 0 27 3 c 2,23,-1
 27 6 l 1,24,-1
 123 549 l 2,25,26
 124 556 124 556 129 556 c 2,27,-1
 134 556 l 2,28,29
 154 556 154 556 163 548.5 c 128,-1,30
 172 541 172 541 183 515 c 2,31,-1
 367 80 l 1,0,-1
EndSplineSet
EndChar

StartChar: O
Encoding: 79 79 49
Width: 597
GlyphClass: 1
Flags: W
LayerCount: 2
Fore
SplineSet
263 -10 m 0,0,1
 166 -10 166 -10 109.5 48.5 c 128,-1,2
 53 107 53 107 52 204 c 0,3,4
 52 270 52 270 70 334.5 c 128,-1,5
 88 399 88 399 123.5 451.5 c 128,-1,6
 159 504 159 504 214 535.5 c 128,-1,7
 269 567 269 567 342 567 c 0,8,9
 437 567 437 567 493 508 c 128,-1,10
 549 449 549 449 550 351 c 0,11,12
 550 284 550 284 533 220 c 128,-1,13
 516 156 516 156 481 104 c 128,-1,14
 446 52 446 52 392 21 c 128,-1,15
 338 -10 338 -10 263 -10 c 0,0,1
267 37 m 0,16,17
 331 38 331 38 375.5 66 c 128,-1,18
 420 94 420 94 447.5 140.5 c 128,-1,19
 475 187 475 187 487 242.5 c 128,-1,20
 499 298 499 298 499 354 c 0,21,22
 499 418 499 418 474.5 454 c 128,-1,23
 450 490 450 490 413.5 505 c 128,-1,24
 377 520 377 520 338 520 c 0,25,26
 274 520 274 520 228.5 490 c 128,-1,27
 183 460 183 460 154.5 410.5 c 128,-1,28
 126 361 126 361 113.5 303.5 c 128,-1,29
 101 246 101 246 103 190 c 0,30,31
 106 131 106 131 131 97.5 c 128,-1,32
 156 64 156 64 192.5 50.5 c 128,-1,33
 229 37 229 37 267 37 c 0,16,17
EndSplineSet
Substitution2: "Single Substitution lookup 2 subtable" ordmasculine
EndChar

StartChar: P
Encoding: 80 80 50
Width: 484
GlyphClass: 1
Flags: W
LayerCount: 2
Fore
SplineSet
114 215 m 1,0,-1
 77 6 l 2,1,2
 76 0 76 0 71 0 c 2,3,-1
 31 0 l 2,4,5
 27 0 27 0 27 4 c 2,6,-1
 27 6 l 1,7,-1
 123 549 l 2,8,9
 124 556 124 556 129 556 c 2,10,-1
 314 556 l 2,11,12
 390 556 390 556 431.5 514 c 128,-1,13
 473 472 473 472 473 408 c 0,14,15
 473 348 473 348 444.5 304.5 c 128,-1,16
 416 261 416 261 368 238 c 128,-1,17
 320 215 320 215 260 215 c 2,18,-1
 114 215 l 1,0,-1
122 262 m 1,19,-1
 266 262 l 2,20,21
 334 262 334 262 377.5 301 c 128,-1,22
 421 340 421 340 421 407 c 0,23,24
 421 453 421 453 392.5 480.5 c 128,-1,25
 364 508 364 508 314 508 c 2,26,-1
 166 508 l 1,27,-1
 122 262 l 1,19,-1
EndSplineSet
EndChar

StartChar: Q
Encoding: 81 81 51
Width: 597
GlyphClass: 1
Flags: W
LayerCount: 2
Fore
SplineSet
227 -8 m 1,0,1
 189 -3 189 -3 154 15 c 128,-1,2
 119 33 119 33 96 64 c 0,3,4
 72 95 72 95 63 131 c 128,-1,5
 54 167 54 167 52 204 c 0,6,7
 52 270 52 270 70 334.5 c 128,-1,8
 88 399 88 399 123.5 451.5 c 128,-1,9
 159 504 159 504 214 535.5 c 128,-1,10
 269 567 269 567 342 567 c 0,11,12
 437 567 437 567 493 508 c 128,-1,13
 549 449 549 449 550 351 c 0,14,15
 549 317 549 317 545.5 284.5 c 128,-1,16
 542 252 542 252 533 219 c 0,17,18
 517 158 517 158 483.5 107.5 c 128,-1,19
 450 57 450 57 400 26 c 128,-1,20
 350 -5 350 -5 283 -9 c 1,21,22
 291 -38 291 -38 309.5 -49 c 128,-1,23
 328 -60 328 -60 357 -61 c 0,24,25
 406 -61 406 -61 453 -21 c 0,26,27
 467 -10 467 -10 470.5 -7.5 c 128,-1,28
 474 -5 474 -5 478 -5 c 0,29,30
 487 -5 487 -5 487 -13 c 0,31,32
 487 -35 487 -35 468.5 -56.5 c 128,-1,33
 450 -78 450 -78 417 -92 c 128,-1,34
 384 -106 384 -106 341 -106 c 0,35,36
 291 -106 291 -106 263.5 -82 c 128,-1,37
 236 -58 236 -58 227 -9 c 1,38,-1
 227 -8 l 1,0,1
267 37 m 0,39,40
 331 38 331 38 375.5 66 c 128,-1,41
 420 94 420 94 447.5 140.5 c 128,-1,42
 475 187 475 187 487 242.5 c 128,-1,43
 499 298 499 298 499 354 c 0,44,45
 499 418 499 418 474.5 454 c 128,-1,46
 450 490 450 490 413.5 505 c 128,-1,47
 377 520 377 520 338 520 c 0,48,49
 274 520 274 520 228.5 490 c 128,-1,50
 183 460 183 460 154.5 410.5 c 128,-1,51
 126 361 126 361 113.5 303.5 c 128,-1,52
 101 246 101 246 103 190 c 0,53,54
 106 131 106 131 131 97.5 c 128,-1,55
 156 64 156 64 192.5 50.5 c 128,-1,56
 229 37 229 37 267 37 c 0,39,40
EndSplineSet
EndChar

StartChar: R
Encoding: 82 82 52
Width: 496
GlyphClass: 1
Flags: W
LayerCount: 2
Fore
SplineSet
114 215 m 1,0,-1
 77 6 l 2,1,2
 76 0 76 0 71 0 c 2,3,-1
 31 0 l 2,4,5
 27 0 27 0 27 4 c 2,6,-1
 27 6 l 1,7,-1
 123 549 l 2,8,9
 124 556 124 556 129 556 c 2,10,-1
 314 556 l 2,11,12
 395 556 395 556 434.5 514 c 128,-1,13
 474 472 474 472 474 410 c 0,14,15
 474 263 474 263 323 222 c 1,16,-1
 410 7 l 2,17,18
 411 6 411 6 411 5 c 0,19,20
 411 0 411 0 405 0 c 2,21,-1
 370 0 l 2,22,23
 358 0 358 0 354 10 c 2,24,-1
 271 215 l 1,25,-1
 114 215 l 1,0,-1
122 262 m 1,26,-1
 266 262 l 2,27,28
 337 262 337 262 380 300.5 c 128,-1,29
 423 339 423 339 423 409 c 0,30,31
 423 453 423 453 395 480.5 c 128,-1,32
 367 508 367 508 316 508 c 2,33,-1
 166 508 l 1,34,-1
 122 262 l 1,26,-1
EndSplineSet
EndChar

StartChar: S
Encoding: 83 83 53
Width: 437
GlyphClass: 1
Flags: W
LayerCount: 2
Fore
SplineSet
405 471 m 0,0,1
 343 520 343 520 261 520 c 0,2,3
 221 520 221 520 188.5 505.5 c 128,-1,4
 156 491 156 491 137 466 c 128,-1,5
 118 441 118 441 118 409 c 0,6,7
 118 376 118 376 147 353.5 c 128,-1,8
 176 331 176 331 241 306 c 0,9,10
 318 276 318 276 352 243 c 128,-1,11
 386 210 386 210 386 165 c 0,12,13
 386 76 386 76 335 35 c 128,-1,14
 284 -6 284 -6 174 -11 c 0,15,16
 133 -13 133 -13 92 2 c 128,-1,17
 51 17 51 17 23.5 43 c 128,-1,18
 -4 69 -4 69 -4 99 c 0,19,20
 -4 127 -4 127 12 127 c 0,21,22
 19 127 19 127 24 117 c 0,23,24
 44 77 44 77 86 56.5 c 128,-1,25
 128 36 128 36 178 36 c 0,26,27
 250 36 250 36 291.5 68.5 c 128,-1,28
 333 101 333 101 333 153 c 0,29,30
 333 186 333 186 306 211.5 c 128,-1,31
 279 237 279 237 214 263 c 0,32,33
 137 293 137 293 102 323 c 128,-1,34
 67 353 67 353 66 402 c 0,35,36
 66 449 66 449 91 486 c 128,-1,37
 116 523 116 523 162 545 c 128,-1,38
 208 567 208 567 271 567 c 0,39,40
 310 567 310 567 347.5 556 c 128,-1,41
 385 545 385 545 409.5 530 c 128,-1,42
 434 515 434 515 434 502 c 0,43,44
 434 499 434 499 434 496 c 128,-1,45
 434 493 434 493 432 490 c 2,46,-1
 425 473 l 2,47,48
 422 465 422 465 416 465 c 0,49,50
 412 465 412 465 407 470 c 0,51,52
 406 470 406 470 405 471 c 0,0,1
EndSplineSet
EndChar

StartChar: T
Encoding: 84 84 54
Width: 401
GlyphClass: 1
Flags: W
LayerCount: 2
Fore
SplineSet
218 508 m 1,0,-1
 65 508 l 2,1,2
 61 508 61 508 61 512 c 2,3,-1
 61 514 l 1,4,-1
 67 549 l 2,5,6
 68 556 68 556 73 556 c 2,7,-1
 405 556 l 2,8,9
 431 556 431 556 431 535 c 0,10,11
 431 529 431 529 430 527 c 2,12,-1
 428 516 l 2,13,14
 427 508 427 508 419 508 c 2,15,-1
 268 508 l 1,16,-1
 179 6 l 2,17,18
 179 0 179 0 173 0 c 2,19,-1
 133 0 l 2,20,21
 129 0 129 0 129 4 c 2,22,-1
 129 6 l 1,23,-1
 218 508 l 1,0,-1
EndSplineSet
EndChar

StartChar: U
Encoding: 85 85 55
Width: 516
GlyphClass: 1
Flags: W
LayerCount: 2
Fore
SplineSet
433 184 m 2,0,1
 417 92 417 92 363 41 c 128,-1,2
 309 -10 309 -10 214 -10 c 0,3,4
 138 -10 138 -10 95 31 c 128,-1,5
 52 72 52 72 53 149 c 0,6,7
 53 178 53 178 59 208 c 2,8,-1
 119 549 l 2,9,10
 120 556 120 556 125 556 c 2,11,-1
 130 556 l 2,12,13
 145 556 145 556 154 545 c 128,-1,14
 163 534 163 534 163 517 c 0,15,16
 163 508 163 508 162 504 c 2,17,-1
 109 201 l 2,18,19
 106 187 106 187 105 172.5 c 128,-1,20
 104 158 104 158 104 145 c 0,21,22
 104 90 104 90 135 63.5 c 128,-1,23
 166 37 166 37 222 37 c 0,24,25
 291 37 291 37 332.5 80 c 128,-1,26
 374 123 374 123 387 202 c 2,27,-1
 448 549 l 2,28,29
 449 556 449 556 454 556 c 2,30,-1
 458 556 l 2,31,32
 473 556 473 556 482 545.5 c 128,-1,33
 491 535 491 535 491 517 c 0,34,35
 491 514 491 514 491 510.5 c 128,-1,36
 491 507 491 507 490 504 c 2,37,-1
 433 184 l 2,0,1
EndSplineSet
EndChar

StartChar: V
Encoding: 86 86 56
Width: 462
GlyphClass: 1
Flags: W
LayerCount: 2
Fore
SplineSet
196 59 m 1,0,-1
 439 543 l 2,1,2
 443 551 443 551 446 553.5 c 128,-1,3
 449 556 449 556 456 556 c 2,4,-1
 494 556 l 2,5,6
 498 556 498 556 498 552 c 0,7,8
 498 551 498 551 497 548 c 2,9,-1
 216 6 l 2,10,11
 211 0 211 0 206 0 c 2,12,-1
 166 0 l 2,13,14
 160 0 160 0 160 6 c 2,15,-1
 68 548 l 1,16,-1
 68 550 l 2,17,18
 68 556 68 556 75 556 c 2,19,-1
 91 556 l 2,20,21
 120 556 120 556 124 524 c 2,22,-1
 196 59 l 1,0,-1
EndSplineSet
EndChar

StartChar: W
Encoding: 87 87 57
Width: 742
GlyphClass: 1
Flags: W
LayerCount: 2
Fore
SplineSet
173 70 m 1,0,-1
 390 543 l 2,1,2
 397 556 397 556 407 556 c 2,3,-1
 416 556 l 2,4,5
 441 556 441 556 444 524 c 2,6,-1
 502 70 l 1,7,-1
 709 543 l 2,8,9
 713 551 713 551 716.5 553.5 c 128,-1,10
 720 556 720 556 727 556 c 2,11,-1
 762 556 l 2,12,13
 766 556 766 556 766 552 c 0,14,15
 765 551 765 551 765 548 c 2,16,-1
 521 6 l 2,17,18
 519 0 519 0 512 0 c 2,19,-1
 475 0 l 2,20,21
 469 0 469 0 469 6 c 2,22,-1
 408 478 l 1,23,-1
 189 6 l 2,24,25
 185 0 185 0 180 0 c 2,26,-1
 138 0 l 2,27,28
 133 0 133 0 131 6 c 2,29,-1
 80 548 l 1,30,-1
 80 549 l 2,31,32
 80 556 80 556 86 556 c 2,33,-1
 99 556 l 2,34,35
 129 556 129 556 132 524 c 2,36,-1
 173 70 l 1,0,-1
EndSplineSet
EndChar

StartChar: X
Encoding: 88 88 58
Width: 459
GlyphClass: 1
Flags: W
LayerCount: 2
Fore
SplineSet
248 328 m 1,0,-1
 420 543 l 2,1,2
 426 551 426 551 429.5 553.5 c 128,-1,3
 433 556 433 556 440 556 c 2,4,-1
 479 556 l 2,5,6
 484 556 484 556 484 553 c 0,7,8
 484 552 484 552 482 548 c 2,9,-1
 269 285 l 1,10,-1
 405 7 l 1,11,-1
 405 4 l 2,12,13
 405 0 405 0 399 0 c 2,14,-1
 364 0 l 2,15,16
 354 0 354 0 348 12 c 2,17,-1
 231 253 l 1,18,-1
 33 12 l 2,19,20
 27 5 27 5 24 2.5 c 128,-1,21
 21 0 21 0 13 0 c 2,22,-1
 -27 0 l 2,23,24
 -31 0 -31 0 -31 3 c 0,25,26
 -31 5 -31 5 -29 7 c 2,27,-1
 211 295 l 1,28,-1
 89 548 l 2,29,30
 88 549 88 549 88 551 c 0,31,32
 90 556 90 556 95 556 c 2,33,-1
 111 556 l 2,34,35
 126 556 126 556 135 549.5 c 128,-1,36
 144 543 144 543 152 526 c 2,37,-1
 248 328 l 1,0,-1
EndSplineSet
EndChar

StartChar: Y
Encoding: 89 89 59
Width: 422
GlyphClass: 1
Flags: W
LayerCount: 2
Fore
SplineSet
180 219 m 1,0,-1
 57 548 l 2,1,2
 56 549 56 549 56 550 c 128,-1,3
 56 551 56 551 56 551 c 2,4,5
 56 556 56 556 62 556 c 2,6,-1
 74 556 l 2,7,8
 92 556 92 556 103 546 c 128,-1,9
 114 536 114 536 123 513 c 2,10,-1
 212 274 l 1,11,-1
 407 543 l 2,12,13
 412 551 412 551 415.5 553.5 c 128,-1,14
 419 556 419 556 426 556 c 2,15,-1
 462 556 l 2,16,17
 469 556 469 556 469 552 c 0,18,19
 469 549 469 549 467 547 c 2,20,-1
 229 219 l 1,21,-1
 192 6 l 2,22,23
 191 0 191 0 186 0 c 2,24,-1
 146 0 l 2,25,26
 142 0 142 0 142 3 c 2,27,-1
 142 6 l 1,28,-1
 180 219 l 1,0,-1
EndSplineSet
EndChar

StartChar: Z
Encoding: 90 90 60
Width: 448
GlyphClass: 1
Flags: W
LayerCount: 2
Fore
SplineSet
60 47 m 1,0,-1
 339 47 l 2,1,2
 364 47 364 47 364 26 c 2,3,-1
 364 18 l 1,4,-1
 362 7 l 2,5,6
 361 0 361 0 353 0 c 2,7,-1
 -3 0 l 2,8,9
 -7 0 -7 0 -7 4 c 2,10,-1
 -7 6 l 1,11,-1
 -3 30 l 2,12,13
 1 49 1 49 14 64 c 2,14,-1
 399 509 l 1,15,-1
 95 509 l 2,16,17
 90 509 90 509 90 512 c 0,18,19
 90 513 90 513 90.5 513.5 c 128,-1,20
 91 514 91 514 91 515 c 2,21,-1
 97 549 l 2,22,23
 98 556 98 556 103 556 c 2,24,-1
 409 556 l 2,25,26
 451 556 451 556 451 523 c 0,27,28
 451 517 451 517 450 514 c 2,29,-1
 449 504 l 2,30,31
 447 494 447 494 443.5 487.5 c 128,-1,32
 440 481 440 481 429 468 c 2,33,-1
 60 47 l 1,0,-1
EndSplineSet
EndChar

StartChar: bracketleft
Encoding: 91 91 61
Width: 298
GlyphClass: 1
Flags: W
LayerCount: 2
Fore
SplineSet
307 -144 m 2,0,-1
 207 -144 l 2,1,2
 181 -144 181 -144 162.5 -128.5 c 128,-1,3
 144 -113 144 -113 139 -88 c 2,4,-1
 11 639 l 2,5,6
 7 665 7 665 20 680.5 c 128,-1,7
 33 696 33 696 59 696 c 2,8,-1
 159 696 l 2,9,10
 166 696 166 696 168 689 c 2,11,-1
 169 686 l 2,12,13
 171 671 171 671 162 661.5 c 128,-1,14
 153 652 153 652 136 652 c 2,15,-1
 79 652 l 2,16,17
 56 652 56 652 61 628 c 2,18,-1
 185 -77 l 2,19,20
 187 -87 187 -87 193.5 -94 c 128,-1,21
 200 -101 200 -101 212 -101 c 2,22,-1
 268 -101 l 2,23,24
 286 -101 286 -101 298.5 -110 c 128,-1,25
 311 -119 311 -119 313 -134 c 2,26,-1
 314 -137 l 2,27,28
 315 -144 315 -144 307 -144 c 2,0,-1
EndSplineSet
PairPos2: "'kern' Horizontal Kerning lookup 2 per glyph data 1" uni0632 dx=4 dy=0 dh=4 dv=0 dx=0 dy=0 dh=0 dv=0
EndChar

StartChar: backslash
Encoding: 92 92 62
Width: 283
GlyphClass: 1
Flags: W
LayerCount: 2
Fore
SplineSet
238 0 m 2,0,1
 233 0 233 0 229 6 c 2,2,-1
 -96 548 l 2,3,4
 -96 549 -96 549 -96.5 550.5 c 128,-1,5
 -97 552 -97 552 -97 552 c 2,6,7
 -97 556 -97 556 -93 556 c 2,8,-1
 -88 556 l 2,9,10
 -66 556 -66 556 -51.5 546 c 128,-1,11
 -37 536 -37 536 -23 513 c 2,12,-1
 279 6 l 2,13,14
 281 5 281 5 281 4 c 128,-1,15
 281 3 281 3 282 2 c 0,16,17
 282 0 282 0 279 0 c 2,18,-1
 238 0 l 2,0,1
EndSplineSet
EndChar

StartChar: bracketright
Encoding: 93 93 63
Width: 291
GlyphClass: 1
Flags: W
LayerCount: 2
Fore
SplineSet
238 -144 m 2,0,-1
 138 -144 l 2,1,2
 130 -144 130 -144 129 -137 c 2,3,-1
 128 -134 l 2,4,5
 126 -119 126 -119 135 -110 c 128,-1,6
 144 -101 144 -101 161 -101 c 2,7,-1
 218 -101 l 2,8,9
 229 -101 229 -101 233.5 -94 c 128,-1,10
 238 -87 238 -87 236 -77 c 2,11,-1
 112 628 l 2,12,13
 109 652 109 652 85 652 c 2,14,-1
 29 652 l 2,15,16
 11 652 11 652 -1.5 661.5 c 128,-1,17
 -14 671 -14 671 -16 686 c 2,18,-1
 -17 689 l 2,19,20
 -19 696 -19 696 -10 696 c 2,21,-1
 90 696 l 2,22,23
 116 696 116 696 135 680.5 c 128,-1,24
 154 665 154 665 158 639 c 2,25,-1
 286 -88 l 2,26,27
 291 -113 291 -113 277.5 -128.5 c 128,-1,28
 264 -144 264 -144 238 -144 c 2,0,-1
EndSplineSet
PairPos2: "'kern' Horizontal Kerning lookup 2 per glyph data 1" uni0698 dx=-9 dy=0 dh=-9 dv=0 dx=0 dy=0 dh=0 dv=0
PairPos2: "'kern' Horizontal Kerning lookup 2 per glyph data 1" uni0695 dx=-9 dy=0 dh=-9 dv=0 dx=0 dy=0 dh=0 dv=0
PairPos2: "'kern' Horizontal Kerning lookup 2 per glyph data 1" uni0694 dx=-9 dy=0 dh=-9 dv=0 dx=0 dy=0 dh=0 dv=0
PairPos2: "'kern' Horizontal Kerning lookup 2 per glyph data 1" uni0691 dx=-5 dy=0 dh=-5 dv=0 dx=0 dy=0 dh=0 dv=0
PairPos2: "'kern' Horizontal Kerning lookup 2 per glyph data 1" uni0671 dx=51 dy=0 dh=51 dv=0 dx=0 dy=0 dh=0 dv=0
PairPos2: "'kern' Horizontal Kerning lookup 2 per glyph data 1" uni0632 dx=-9 dy=0 dh=-9 dv=0 dx=0 dy=0 dh=0 dv=0
PairPos2: "'kern' Horizontal Kerning lookup 2 per glyph data 1" uni0631 dx=-9 dy=0 dh=-9 dv=0 dx=0 dy=0 dh=0 dv=0
PairPos2: "'kern' Horizontal Kerning lookup 2 per glyph data 1" uni0625 dx=17 dy=0 dh=17 dv=0 dx=0 dy=0 dh=0 dv=0
PairPos2: "'kern' Horizontal Kerning lookup 2 per glyph data 1" uni0623 dx=43 dy=0 dh=43 dv=0 dx=0 dy=0 dh=0 dv=0
PairPos2: "'kern' Horizontal Kerning lookup 2 per glyph data 1" uni0622 dx=43 dy=0 dh=43 dv=0 dx=0 dy=0 dh=0 dv=0
EndChar

StartChar: asciicircum
Encoding: 94 94 64
Width: 403
GlyphClass: 1
Flags: W
LayerCount: 2
Fore
SplineSet
206 503 m 1,0,-1
 88 283 l 2,1,2
 85 278 85 278 82.5 276 c 128,-1,3
 80 274 80 274 72 274 c 2,4,-1
 38 274 l 2,5,6
 31 274 31 274 34 279 c 2,7,-1
 176 546 l 2,8,9
 179 551 179 551 182 553.5 c 128,-1,10
 185 556 185 556 192 556 c 0,11,12
 209 556 209 556 224 546.5 c 128,-1,13
 239 537 239 537 250 517 c 2,14,-1
 377 279 l 2,15,16
 379 274 379 274 373 274 c 2,17,-1
 339 274 l 2,18,19
 332 274 332 274 329 276 c 128,-1,20
 326 278 326 278 323 283 c 2,21,-1
 206 503 l 1,0,-1
EndSplineSet
EndChar

StartChar: underscore
Encoding: 95 95 65
Width: 409
GlyphClass: 1
Flags: W
LayerCount: 2
Fore
SplineSet
-82 -178 m 2,0,1
 -86 -178 -86 -178 -86 -174 c 2,2,-1
 -86 -172 l 1,3,-1
 -80 -139 l 2,4,5
 -79 -133 -79 -133 -74 -133 c 2,6,-1
 342 -133 l 2,7,8
 346 -133 346 -133 346 -137 c 2,9,-1
 346 -139 l 1,10,-1
 340 -172 l 2,11,12
 339 -178 339 -178 334 -178 c 2,13,-1
 -82 -178 l 2,0,1
EndSplineSet
EndChar

StartChar: grave
Encoding: 96 96 66
Width: 139
GlyphClass: 1
Flags: W
LayerCount: 2
Fore
SplineSet
162 436 m 2,0,1
 163 435 163 435 163 435 c 129,-1,2
 163 435 163 435 163 435 c 1,3,4
 163 431 163 431 159 431 c 2,5,-1
 126 431 l 2,6,7
 113 431 113 431 104 440 c 2,8,-1
 42 496 l 2,9,10
 41 497 41 497 41 498 c 0,11,12
 41 502 41 502 46 502 c 2,13,-1
 91 502 l 2,14,15
 98 502 98 502 101 500 c 128,-1,16
 104 498 104 498 109 493 c 2,17,-1
 162 436 l 2,0,1
EndSplineSet
EndChar

StartChar: a
Encoding: 97 97 67
Width: 454
GlyphClass: 1
Flags: W
LayerCount: 2
Fore
SplineSet
307 57 m 1,0,1
 254 -9 254 -9 168 -9 c 0,2,3
 96 -9 96 -9 60.5 36 c 128,-1,4
 25 81 25 81 25 154 c 0,5,6
 25 217 25 217 49 265 c 128,-1,7
 73 313 73 313 117 340 c 128,-1,8
 161 367 161 367 221 367 c 0,9,10
 262 367 262 367 294.5 352.5 c 128,-1,11
 327 338 327 338 351 304 c 1,12,13
 362 360 362 360 401 360 c 2,14,-1
 406 360 l 2,15,16
 410 360 410 360 410 357 c 2,17,-1
 410 354 l 1,18,-1
 349 6 l 2,19,20
 348 0 348 0 343 0 c 2,21,-1
 302 0 l 2,22,23
 298 0 298 0 298 4 c 2,24,-1
 298 6 l 1,25,-1
 307 57 l 1,0,1
175 38 m 0,26,27
 222 38 222 38 257 61 c 128,-1,28
 292 84 292 84 312 124.5 c 128,-1,29
 332 165 332 165 332 217 c 0,30,31
 332 267 332 267 302 293.5 c 128,-1,32
 272 320 272 320 222 320 c 0,33,34
 154 320 154 320 115 272 c 128,-1,35
 76 224 76 224 76 150 c 0,36,37
 76 101 76 101 102.5 69.5 c 128,-1,38
 129 38 129 38 175 38 c 0,26,27
EndSplineSet
Substitution2: "Single Substitution lookup 2 subtable" ordfeminine
EndChar

StartChar: b
Encoding: 98 98 68
Width: 454
GlyphClass: 1
Flags: W
LayerCount: 2
Fore
SplineSet
73 56 m 1,0,-1
 64 6 l 2,1,2
 64 0 64 0 58 0 c 2,3,-1
 18 0 l 2,4,5
 14 0 14 0 14 4 c 2,6,-1
 14 6 l 1,7,-1
 110 549 l 2,8,9
 111 556 111 556 116 556 c 2,10,-1
 121 556 l 2,11,12
 135 556 135 556 144 545 c 128,-1,13
 153 534 153 534 153 517 c 0,14,15
 153 514 153 514 153 510.5 c 128,-1,16
 153 507 153 507 152 503 c 2,17,-1
 116 302 l 1,18,19
 170 367 170 367 258 367 c 0,20,21
 323 367 323 367 361 325.5 c 128,-1,22
 399 284 399 284 399 217 c 0,23,24
 399 153 399 153 371.5 101.5 c 128,-1,25
 344 50 344 50 297.5 20.5 c 128,-1,26
 251 -9 251 -9 192 -9 c 0,27,28
 149 -9 149 -9 120.5 7 c 128,-1,29
 92 23 92 23 73 56 c 1,0,-1
196 38 m 0,30,31
 238 38 238 38 272.5 61.5 c 128,-1,32
 307 85 307 85 327 125 c 128,-1,33
 347 165 347 165 347 213 c 0,34,35
 347 264 347 264 320.5 292 c 128,-1,36
 294 320 294 320 246 320 c 0,37,38
 202 320 202 320 166.5 296.5 c 128,-1,39
 131 273 131 273 111 233 c 128,-1,40
 91 193 91 193 91 141 c 0,41,42
 91 92 91 92 119 65 c 128,-1,43
 147 38 147 38 196 38 c 0,30,31
EndSplineSet
EndChar

StartChar: c
Encoding: 99 99 69
Width: 362
GlyphClass: 1
Flags: W
LayerCount: 2
Fore
SplineSet
318 294 m 2,0,-1
 317 294 l 1,1,2
 294 308 294 308 275 314 c 128,-1,3
 256 320 256 320 230 320 c 0,4,5
 176 320 176 320 142 295 c 128,-1,6
 108 270 108 270 92 229.5 c 128,-1,7
 76 189 76 189 76 141 c 0,8,9
 76 95 76 95 103 66 c 128,-1,10
 130 37 130 37 182 37 c 0,11,12
 242 37 242 37 287 82 c 0,13,14
 294 89 294 89 299 89 c 0,15,16
 306 89 306 89 306 79 c 0,17,18
 306 57 306 57 287.5 36.5 c 128,-1,19
 269 16 269 16 239 3 c 128,-1,20
 209 -10 209 -10 174 -10 c 0,21,22
 101 -10 101 -10 62.5 33 c 128,-1,23
 24 76 24 76 24 137 c 0,24,25
 24 200 24 200 45 252.5 c 128,-1,26
 66 305 66 305 112 336 c 128,-1,27
 158 367 158 367 232 367 c 0,28,29
 275 367 275 367 307 355 c 128,-1,30
 339 343 339 343 339 326 c 0,31,32
 339 321 339 321 336 313 c 2,33,-1
 329 298 l 2,34,35
 327 292 327 292 323 292 c 0,36,37
 320 292 320 292 318 294 c 2,0,-1
EndSplineSet
EndChar

StartChar: d
Encoding: 100 100 70
Width: 454
GlyphClass: 1
Flags: W
LayerCount: 2
Fore
SplineSet
351 299 m 1,0,-1
 395 549 l 2,1,2
 396 556 396 556 401 556 c 2,3,-1
 405 556 l 2,4,5
 420 556 420 556 429 545.5 c 128,-1,6
 438 535 438 535 438 517 c 0,7,8
 438 514 438 514 437.5 510.5 c 128,-1,9
 437 507 437 507 437 503 c 2,10,-1
 349 6 l 2,11,12
 348 0 348 0 343 0 c 2,13,-1
 303 0 l 2,14,15
 299 0 299 0 299 3 c 0,16,17
 299 5 299 5 300 6 c 2,18,-1
 307 51 l 1,19,20
 280 17 280 17 249.5 4 c 128,-1,21
 219 -9 219 -9 175 -9 c 0,22,23
 132 -9 132 -9 98 12.5 c 128,-1,24
 64 34 64 34 44.5 70.5 c 128,-1,25
 25 107 25 107 25 151 c 0,26,27
 25 214 25 214 50.5 263 c 128,-1,28
 76 312 76 312 121 339.5 c 128,-1,29
 166 367 166 367 224 367 c 0,30,31
 264 367 264 367 297.5 349 c 128,-1,32
 331 331 331 331 351 299 c 1,0,-1
182 38 m 0,33,34
 251 38 251 38 291.5 88 c 128,-1,35
 332 138 332 138 332 217 c 0,36,37
 332 266 332 266 302 293 c 128,-1,38
 272 320 272 320 222 320 c 0,39,40
 180 320 180 320 147 298 c 128,-1,41
 114 276 114 276 95 237.5 c 128,-1,42
 76 199 76 199 75 150 c 0,43,44
 75 101 75 101 105.5 69.5 c 128,-1,45
 136 38 136 38 182 38 c 0,33,34
EndSplineSet
EndChar

StartChar: e
Encoding: 101 101 71
Width: 406
GlyphClass: 1
Flags: W
LayerCount: 2
Fore
SplineSet
76 160 m 1,0,1
 75 153 75 153 75 146 c 128,-1,2
 75 139 75 139 75 134 c 0,3,4
 79 88 79 88 108.5 62.5 c 128,-1,5
 138 37 138 37 186 37 c 0,6,7
 262 37 262 37 310 85 c 0,8,9
 316 92 316 92 322 92 c 256,10,11
 328 92 328 92 328 83 c 0,12,13
 328 48 328 48 289.5 19.5 c 128,-1,14
 251 -9 251 -9 174 -9 c 0,15,16
 130 -9 130 -9 96.5 10 c 128,-1,17
 63 29 63 29 44 61.5 c 128,-1,18
 25 94 25 94 25 134 c 0,19,20
 25 202 25 202 48 254.5 c 128,-1,21
 71 307 71 307 115 337 c 128,-1,22
 159 367 159 367 222 367 c 0,23,24
 283 367 283 367 320 331 c 128,-1,25
 357 295 357 295 357 241 c 0,26,27
 357 227 357 227 355 207.5 c 128,-1,28
 353 188 353 188 349 176 c 0,29,30
 347 166 347 166 343.5 163 c 128,-1,31
 340 160 340 160 332 160 c 2,32,-1
 76 160 l 1,0,1
84 203 m 1,33,-1
 303 203 l 1,34,35
 307 226 307 226 307 238 c 0,36,37
 307 275 307 275 284.5 298 c 128,-1,38
 262 321 262 321 217 321 c 0,39,40
 171 321 171 321 136 291.5 c 128,-1,41
 101 262 101 262 84 203 c 1,33,-1
EndSplineSet
EndChar

StartChar: f
Encoding: 102 102 72
Width: 268
GlyphClass: 1
Flags: W
LayerCount: 2
Fore
SplineSet
93 315 m 1,0,-1
 30 315 l 2,1,2
 26 315 26 315 26 319 c 2,3,-1
 26 321 l 1,4,-1
 32 354 l 2,5,6
 33 360 33 360 38 360 c 2,7,-1
 101 360 l 1,8,-1
 120 464 l 2,9,10
 128 510 128 510 154 537 c 128,-1,11
 180 564 180 564 220 562 c 0,12,13
 247 561 247 561 267 546 c 128,-1,14
 287 531 287 531 287 501 c 0,15,16
 287 485 287 485 277 485 c 0,17,18
 274 485 274 485 271 489 c 0,19,20
 264 500 264 500 248.5 508 c 128,-1,21
 233 516 233 516 220 516 c 0,22,23
 178 516 178 516 169 461 c 2,24,-1
 151 360 l 1,25,-1
 240 360 l 2,26,27
 244 360 244 360 244 356 c 2,28,-1
 244 354 l 1,29,-1
 238 321 l 2,30,31
 237 315 237 315 232 315 c 2,32,-1
 143 315 l 1,33,-1
 88 6 l 2,34,35
 88 0 88 0 83 0 c 2,36,-1
 43 0 l 2,37,38
 39 0 39 0 39 4 c 2,39,-1
 39 6 l 1,40,-1
 93 315 l 1,0,-1
EndSplineSet
EndChar

StartChar: g
Encoding: 103 103 73
Width: 454
GlyphClass: 1
Flags: W
LayerCount: 2
Fore
SplineSet
309 57 m 1,0,1
 255 -9 255 -9 168 -9 c 0,2,3
 98 -9 98 -9 61.5 35 c 128,-1,4
 25 79 25 79 25 145 c 0,5,6
 25 208 25 208 51.5 258.5 c 128,-1,7
 78 309 78 309 124.5 338 c 128,-1,8
 171 367 171 367 230 367 c 0,9,10
 271 367 271 367 300 353 c 128,-1,11
 329 339 329 339 352 305 c 1,12,13
 364 359 364 359 401 359 c 2,14,-1
 406 359 l 2,15,16
 411 359 411 359 411 357 c 0,17,18
 411 356 411 356 410.5 355.5 c 128,-1,19
 410 355 410 355 410 354 c 2,20,-1
 349 7 l 2,21,22
 335 -73 335 -73 285.5 -122 c 128,-1,23
 236 -171 236 -171 140 -171 c 0,24,25
 85 -171 85 -171 45 -151 c 128,-1,26
 5 -131 5 -131 3 -87 c 0,27,28
 2 -79 2 -79 6 -73 c 128,-1,29
 10 -67 10 -67 14 -67 c 256,30,31
 18 -67 18 -67 21 -73 c 0,32,33
 34 -94 34 -94 68.5 -107.5 c 128,-1,34
 103 -121 103 -121 143 -121 c 0,35,36
 215 -121 215 -121 252.5 -86.5 c 128,-1,37
 290 -52 290 -52 300 7 c 2,38,-1
 309 57 l 1,0,1
176 38 m 0,39,40
 219 38 219 38 254 61 c 128,-1,41
 289 84 289 84 310.5 124.5 c 128,-1,42
 332 165 332 165 332 217 c 0,43,44
 332 266 332 266 305 293 c 128,-1,45
 278 320 278 320 229 320 c 0,46,47
 187 320 187 320 152 298 c 128,-1,48
 117 276 117 276 96.5 237.5 c 128,-1,49
 76 199 76 199 76 150 c 0,50,51
 75 99 75 99 101 68.5 c 128,-1,52
 127 38 127 38 176 38 c 0,39,40
EndSplineSet
EndChar

StartChar: h
Encoding: 104 104 74
Width: 439
GlyphClass: 1
Flags: W
LayerCount: 2
Fore
SplineSet
117 307 m 1,0,1
 140 336 140 336 174 351.5 c 128,-1,2
 208 367 208 367 250 367 c 0,3,4
 306 367 306 367 340.5 334 c 128,-1,5
 375 301 375 301 374 247 c 0,6,7
 375 239 375 239 374.5 231 c 128,-1,8
 374 223 374 223 372 215 c 2,9,-1
 335 6 l 2,10,11
 334 0 334 0 329 0 c 2,12,-1
 289 0 l 2,13,14
 285 0 285 0 285 4 c 2,15,-1
 285 6 l 1,16,-1
 319 200 l 2,17,18
 322 217 322 217 322 234 c 0,19,20
 322 276 322 276 301.5 298 c 128,-1,21
 281 320 281 320 233 320 c 0,22,23
 179 320 179 320 143.5 287 c 128,-1,24
 108 254 108 254 97 193 c 2,25,-1
 64 6 l 2,26,27
 63 0 63 0 58 0 c 2,28,-1
 18 0 l 2,29,30
 14 0 14 0 14 4 c 2,31,-1
 14 6 l 1,32,-1
 110 549 l 2,33,34
 111 556 111 556 116 556 c 2,35,-1
 121 556 l 2,36,37
 135 556 135 556 144 545 c 128,-1,38
 153 534 153 534 153 517 c 0,39,40
 153 514 153 514 153 510.5 c 128,-1,41
 153 507 153 507 152 503 c 2,42,-1
 117 307 l 1,0,1
EndSplineSet
EndChar

StartChar: i
Encoding: 105 105 75
Width: 170
GlyphClass: 1
Flags: W
LayerCount: 2
Fore
SplineSet
87 453 m 0,0,1
 87 468 87 468 97.5 480 c 128,-1,2
 108 492 108 492 124 492 c 0,3,4
 136 492 136 492 145 484 c 128,-1,5
 154 476 154 476 154 464 c 0,6,7
 154 448 154 448 143.5 437 c 128,-1,8
 133 426 133 426 116 426 c 0,9,10
 105 426 105 426 96 433.5 c 128,-1,11
 87 441 87 441 87 453 c 0,0,1
18 0 m 2,12,13
 14 0 14 0 14 4 c 2,14,-1
 14 6 l 1,15,-1
 76 354 l 2,16,17
 76 360 76 360 82 360 c 2,18,-1
 85 360 l 2,19,20
 119 360 119 360 119 321 c 0,21,22
 119 318 119 318 118.5 315 c 128,-1,23
 118 312 118 312 118 308 c 2,24,-1
 64 6 l 2,25,26
 63 0 63 0 58 0 c 2,27,-1
 18 0 l 2,12,13
EndSplineSet
EndChar

StartChar: j
Encoding: 106 106 76
Width: 170
GlyphClass: 1
Flags: W
LayerCount: 2
Fore
SplineSet
86 453 m 0,0,1
 86 468 86 468 97 480 c 128,-1,2
 108 492 108 492 123 492 c 0,3,4
 135 492 135 492 144 484 c 128,-1,5
 153 476 153 476 153 464 c 0,6,7
 153 449 153 449 142 437.5 c 128,-1,8
 131 426 131 426 116 426 c 0,9,10
 104 426 104 426 95 434 c 128,-1,11
 86 442 86 442 86 453 c 0,0,1
-96 -93 m 0,12,13
 -80 -124 -80 -124 -50 -124 c 0,14,15
 -28 -124 -28 -124 -16 -109.5 c 128,-1,16
 -4 -95 -4 -95 2 -61 c 2,17,-1
 75 354 l 2,18,19
 76 359 76 359 81 359 c 2,20,-1
 86 359 l 2,21,22
 101 359 101 359 109.5 348.5 c 128,-1,23
 118 338 118 338 118 321 c 0,24,25
 118 318 118 318 118 314.5 c 128,-1,26
 118 311 118 311 117 308 c 2,27,-1
 51 -67 l 2,28,29
 42 -117 42 -117 23 -144 c 128,-1,30
 4 -171 4 -171 -44 -171 c 0,31,32
 -73 -171 -73 -171 -93 -154 c 128,-1,33
 -113 -137 -113 -137 -113 -106 c 0,34,35
 -113 -90 -113 -90 -104 -90 c 0,36,37
 -100 -90 -100 -90 -98 -92 c 0,38,39
 -97 -92 -97 -92 -96 -93 c 0,12,13
EndSplineSet
EndChar

StartChar: k
Encoding: 107 107 77
Width: 354
GlyphClass: 1
Flags: W
LayerCount: 2
Fore
SplineSet
188 230 m 1,0,-1
 293 6 l 1,1,-1
 293 4 l 2,2,3
 294 0 294 0 289 0 c 2,4,-1
 251 0 l 2,5,6
 239 0 239 0 235 10 c 2,7,-1
 150 198 l 1,8,-1
 89 148 l 1,9,-1
 64 6 l 2,10,11
 63 0 63 0 58 0 c 2,12,-1
 18 0 l 2,13,14
 14 0 14 0 14 4 c 2,15,-1
 14 6 l 1,16,-1
 110 549 l 2,17,18
 111 556 111 556 116 556 c 2,19,-1
 121 556 l 2,20,21
 135 556 135 556 144 545 c 128,-1,22
 153 534 153 534 153 517 c 0,23,24
 153 514 153 514 153 510.5 c 128,-1,25
 153 507 153 507 152 503 c 2,26,-1
 100 207 l 1,27,-1
 264 351 l 2,28,29
 271 357 271 357 274.5 358 c 128,-1,30
 278 359 278 359 285 359 c 2,31,-1
 334 359 l 2,32,33
 338 359 338 359 338 356 c 0,34,35
 337 355 337 355 337 355 c 129,-1,36
 337 355 337 355 336 354 c 2,37,-1
 188 230 l 1,0,-1
EndSplineSet
EndChar

StartChar: l
Encoding: 108 108 78
Width: 220
GlyphClass: 1
Flags: W
LayerCount: 2
Fore
SplineSet
79 92 m 2,0,1
 78 88 78 88 78 82.5 c 128,-1,2
 78 77 78 77 78 75 c 0,3,4
 78 41 78 41 111 41 c 0,5,6
 123 41 123 41 129 42.5 c 128,-1,7
 135 44 135 44 143.5 50.5 c 128,-1,8
 152 57 152 57 169 72 c 0,9,10
 174 77 174 77 176 77 c 0,11,12
 183 77 183 77 183 67 c 0,13,14
 183 35 183 35 156 13 c 128,-1,15
 129 -9 129 -9 93 -9 c 0,16,17
 26 -9 26 -9 26 59 c 0,18,19
 26 74 26 74 29 89 c 2,20,-1
 110 549 l 2,21,22
 111 556 111 556 116 556 c 2,23,-1
 121 556 l 2,24,25
 136 556 136 556 144.5 545.5 c 128,-1,26
 153 535 153 535 153 518 c 0,27,28
 153 514 153 514 153 511 c 128,-1,29
 153 508 153 508 152 504 c 2,30,-1
 79 92 l 2,0,1
EndSplineSet
EndChar

StartChar: m
Encoding: 109 109 79
Width: 697
GlyphClass: 1
Flags: W
LayerCount: 2
Fore
SplineSet
117 307 m 1,0,1
 165 367 165 367 247 367 c 0,2,3
 290 367 290 367 315 350 c 128,-1,4
 340 333 340 333 356 297 c 1,5,6
 416 367 416 367 507 367 c 0,7,8
 566 367 566 367 599.5 335 c 128,-1,9
 633 303 633 303 633 248 c 0,10,11
 633 240 633 240 632.5 231.5 c 128,-1,12
 632 223 632 223 631 215 c 2,13,-1
 594 6 l 2,14,15
 593 0 593 0 588 0 c 2,16,-1
 548 0 l 2,17,18
 543 0 543 0 543 4 c 2,19,20
 543 4 543 4 543.5 4.5 c 128,-1,21
 544 5 544 5 544 6 c 2,22,-1
 578 200 l 2,23,24
 581 218 581 218 581 235 c 0,25,26
 581 277 581 277 561 298.5 c 128,-1,27
 541 320 541 320 494 320 c 0,28,29
 441 320 441 320 407 287.5 c 128,-1,30
 373 255 373 255 362 193 c 2,31,-1
 329 6 l 2,32,33
 328 0 328 0 323 0 c 2,34,-1
 283 0 l 2,35,36
 279 0 279 0 279 3 c 2,37,-1
 279 6 l 1,38,-1
 313 200 l 2,39,40
 315 209 315 209 316 218 c 128,-1,41
 317 227 317 227 317 235 c 0,42,43
 317 277 317 277 297 298.5 c 128,-1,44
 277 320 277 320 230 320 c 0,45,46
 120 320 120 320 97 193 c 2,47,-1
 64 6 l 2,48,49
 63 0 63 0 58 0 c 2,50,-1
 18 0 l 2,51,52
 14 0 14 0 14 4 c 2,53,-1
 14 6 l 1,54,-1
 76 354 l 2,55,56
 76 360 76 360 82 360 c 2,57,-1
 87 360 l 2,58,59
 101 360 101 360 110 349 c 128,-1,60
 119 338 119 338 119 321 c 0,61,62
 119 317 119 317 117 307 c 1,0,1
EndSplineSet
EndChar

StartChar: n
Encoding: 110 110 80
Width: 439
GlyphClass: 1
Flags: W
LayerCount: 2
Fore
SplineSet
119 307 m 1,0,1
 165 367 165 367 250 367 c 0,2,3
 307 367 307 367 341 334.5 c 128,-1,4
 375 302 375 302 375 247 c 0,5,6
 375 231 375 231 372 214 c 2,7,-1
 335 6 l 2,8,9
 335 0 335 0 329 0 c 2,10,-1
 289 0 l 2,11,12
 285 0 285 0 285 4 c 2,13,-1
 285 6 l 1,14,-1
 319 200 l 2,15,16
 322 217 322 217 322 234 c 0,17,18
 322 276 322 276 301.5 298 c 128,-1,19
 281 320 281 320 232 320 c 0,20,21
 178 320 178 320 143 287 c 128,-1,22
 108 254 108 254 97 193 c 2,23,-1
 64 6 l 2,24,25
 63 0 63 0 58 0 c 2,26,-1
 18 0 l 2,27,28
 14 0 14 0 14 4 c 2,29,-1
 14 6 l 1,30,-1
 76 354 l 2,31,32
 76 360 76 360 82 360 c 2,33,-1
 87 360 l 2,34,35
 101 360 101 360 110.5 349 c 128,-1,36
 120 338 120 338 120 321 c 0,37,38
 120 319 120 319 119.5 315.5 c 128,-1,39
 119 312 119 312 119 307 c 1,0,1
EndSplineSet
EndChar

StartChar: o
Encoding: 111 111 81
Width: 443
GlyphClass: 1
Flags: W
LayerCount: 2
Fore
SplineSet
189 -9 m 0,0,1
 144 -9 144 -9 108 10 c 128,-1,2
 72 29 72 29 51.5 62.5 c 128,-1,3
 31 96 31 96 30 140 c 0,4,5
 29 201 29 201 52.5 252.5 c 128,-1,6
 76 304 76 304 121.5 335.5 c 128,-1,7
 167 367 167 367 230 367 c 0,8,9
 279 367 279 367 316 346 c 128,-1,10
 353 325 353 325 373.5 288.5 c 128,-1,11
 394 252 394 252 392 205 c 0,12,13
 390 146 390 146 365.5 97 c 128,-1,14
 341 48 341 48 296.5 19.5 c 128,-1,15
 252 -9 252 -9 189 -9 c 0,0,1
190 38 m 0,16,17
 238 38 238 38 272 63 c 128,-1,18
 306 88 306 88 323.5 127.5 c 128,-1,19
 341 167 341 167 340 212 c 0,20,21
 340 262 340 262 308 291 c 128,-1,22
 276 320 276 320 228 320 c 256,23,24
 180 320 180 320 146.5 293 c 128,-1,25
 113 266 113 266 96.5 224.5 c 128,-1,26
 80 183 80 183 81 138 c 0,27,28
 83 92 83 92 113.5 65 c 128,-1,29
 144 38 144 38 190 38 c 0,16,17
EndSplineSet
Substitution2: "Single Substitution lookup 2 subtable" ordmasculine
EndChar

StartChar: p
Encoding: 112 112 82
Width: 454
GlyphClass: 1
Flags: W
LayerCount: 2
Fore
SplineSet
74 58 m 1,0,-1
 36 -154 l 2,1,2
 36 -160 36 -160 30 -160 c 2,3,-1
 -10 -160 l 2,4,5
 -14 -160 -14 -160 -14 -156 c 2,6,-1
 -14 -154 l 1,7,-1
 76 354 l 2,8,9
 77 360 77 360 82 360 c 2,10,-1
 87 360 l 2,11,12
 101 360 101 360 110 349.5 c 128,-1,13
 119 339 119 339 119 322 c 0,14,15
 119 318 119 318 119 315 c 128,-1,16
 119 312 119 312 118 308 c 2,17,-1
 117 304 l 1,18,19
 170 367 170 367 258 367 c 0,20,21
 323 367 323 367 361 325.5 c 128,-1,22
 399 284 399 284 399 217 c 0,23,24
 399 153 399 153 373 101.5 c 128,-1,25
 347 50 347 50 302 20.5 c 128,-1,26
 257 -9 257 -9 198 -9 c 0,27,28
 112 -9 112 -9 74 58 c 1,0,-1
198 38 m 0,29,30
 239 38 239 38 273 62 c 128,-1,31
 307 86 307 86 327.5 125.5 c 128,-1,32
 348 165 348 165 348 213 c 0,33,34
 347 264 347 264 320.5 292 c 128,-1,35
 294 320 294 320 246 320 c 0,36,37
 202 320 202 320 167 297 c 128,-1,38
 132 274 132 274 112 233.5 c 128,-1,39
 92 193 92 193 92 142 c 0,40,41
 92 94 92 94 120.5 66 c 128,-1,42
 149 38 149 38 198 38 c 0,29,30
EndSplineSet
EndChar

StartChar: q
Encoding: 113 113 83
Width: 454
GlyphClass: 1
Flags: W
LayerCount: 2
Fore
SplineSet
308 53 m 1,0,1
 281 19 281 19 248.5 5 c 128,-1,2
 216 -9 216 -9 172 -9 c 0,3,4
 108 -9 108 -9 66.5 31.5 c 128,-1,5
 25 72 25 72 25 139 c 0,6,7
 25 202 25 202 51 253.5 c 128,-1,8
 77 305 77 305 123 336 c 128,-1,9
 169 367 169 367 230 367 c 0,10,11
 271 367 271 367 299.5 351 c 128,-1,12
 328 335 328 335 351 301 c 1,13,14
 363 360 363 360 401 360 c 2,15,-1
 406 360 l 2,16,17
 410 360 410 360 410 357 c 0,18,19
 412 356 412 356 410 354 c 2,20,-1
 321 -154 l 2,21,22
 320 -160 320 -160 315 -160 c 2,23,-1
 275 -160 l 2,24,25
 271 -160 271 -160 271 -157 c 2,26,-1
 271 -154 l 1,27,-1
 308 53 l 1,0,1
176 38 m 256,28,29
 222 38 222 38 257 61 c 128,-1,30
 292 84 292 84 312 124.5 c 128,-1,31
 332 165 332 165 332 217 c 0,32,33
 332 266 332 266 305 293 c 128,-1,34
 278 320 278 320 229 320 c 0,35,36
 187 320 187 320 152 296 c 128,-1,37
 117 272 117 272 96.5 232.5 c 128,-1,38
 76 193 76 193 75 144 c 0,39,40
 75 95 75 95 102.5 66.5 c 128,-1,41
 130 38 130 38 176 38 c 256,28,29
EndSplineSet
EndChar

StartChar: r
Encoding: 114 114 84
Width: 267
GlyphClass: 1
Flags: W
LayerCount: 2
Fore
SplineSet
118 309 m 1,0,1
 139 338 139 338 166 349 c 128,-1,2
 193 360 193 360 237 360 c 2,3,-1
 247 360 l 2,4,5
 251 360 251 360 251 357 c 2,6,-1
 251 354 l 1,7,-1
 244 316 l 2,8,9
 244 309 244 309 238 309 c 2,10,-1
 218 309 l 2,11,12
 166 309 166 309 137 281 c 128,-1,13
 108 253 108 253 97 192 c 2,14,-1
 64 6 l 2,15,16
 63 0 63 0 58 0 c 2,17,-1
 18 0 l 2,18,19
 14 0 14 0 14 4 c 2,20,-1
 14 6 l 1,21,-1
 76 354 l 2,22,23
 76 360 76 360 82 360 c 2,24,-1
 87 360 l 2,25,26
 101 360 101 360 110 350 c 128,-1,27
 119 340 119 340 119 323 c 0,28,29
 119 322 119 322 118.5 318 c 128,-1,30
 118 314 118 314 118 309 c 1,0,1
EndSplineSet
EndChar

StartChar: s
Encoding: 115 115 85
Width: 309
GlyphClass: 1
Flags: W
LayerCount: 2
Fore
SplineSet
268 297 m 2,0,1
 266 291 266 291 262 291 c 0,2,3
 261 291 261 291 257 293 c 0,4,5
 242 304 242 304 216 312 c 128,-1,6
 190 320 190 320 167 320 c 0,7,8
 130 320 130 320 106.5 304.5 c 128,-1,9
 83 289 83 289 83 265 c 0,10,11
 83 248 83 248 100 234.5 c 128,-1,12
 117 221 117 221 155 207 c 0,13,14
 208 188 208 188 231.5 165 c 128,-1,15
 255 142 255 142 255 110 c 0,16,17
 255 53 255 53 216 21 c 128,-1,18
 177 -11 177 -11 112 -11 c 0,19,20
 50 -11 50 -11 20.5 11.5 c 128,-1,21
 -9 34 -9 34 -9 66 c 0,22,23
 -9 88 -9 88 4 88 c 0,24,25
 9 88 9 88 12 82 c 0,26,27
 36 36 36 36 107 36 c 0,28,29
 150 36 150 36 177 54 c 128,-1,30
 204 72 204 72 204 101 c 0,31,32
 204 119 204 119 187 133 c 128,-1,33
 170 147 170 147 130 162 c 0,34,35
 78 181 78 181 55 203 c 128,-1,36
 32 225 32 225 32 256 c 0,37,38
 32 309 32 309 69 338 c 128,-1,39
 106 367 106 367 167 367 c 0,40,41
 195 367 195 367 220.5 361.5 c 128,-1,42
 246 356 246 356 262.5 346.5 c 128,-1,43
 279 337 279 337 279 326 c 0,44,45
 279 323 279 323 278 320 c 128,-1,46
 277 317 277 317 275 312 c 2,47,-1
 268 297 l 2,0,1
EndSplineSet
EndChar

StartChar: t
Encoding: 116 116 86
Width: 249
GlyphClass: 1
Flags: W
LayerCount: 2
Fore
SplineSet
101 315 m 1,0,-1
 33 315 l 2,1,2
 29 315 29 315 29 318 c 2,3,-1
 29 321 l 1,4,-1
 35 354 l 2,5,6
 36 360 36 360 41 360 c 2,7,-1
 109 360 l 1,8,-1
 131 484 l 2,9,10
 132 491 132 491 136 491 c 2,11,-1
 141 491 l 2,12,13
 156 491 156 491 165 480.5 c 128,-1,14
 174 470 174 470 174 453 c 0,15,16
 174 449 174 449 174 446 c 128,-1,17
 174 443 174 443 173 439 c 2,18,-1
 159 360 l 1,19,-1
 233 360 l 2,20,21
 237 360 237 360 237 357 c 2,22,-1
 237 354 l 1,23,-1
 231 321 l 2,24,25
 230 315 230 315 225 315 c 2,26,-1
 151 315 l 1,27,-1
 97 6 l 2,28,29
 96 0 96 0 90 0 c 2,30,-1
 50 0 l 2,31,32
 46 0 46 0 46 2 c 0,33,34
 46 5 46 5 47 6 c 2,35,-1
 101 315 l 1,0,-1
EndSplineSet
EndChar

StartChar: u
Encoding: 117 117 87
Width: 423
GlyphClass: 1
Flags: W
LayerCount: 2
Fore
SplineSet
343 146 m 2,0,1
 329 64 329 64 285.5 27 c 128,-1,2
 242 -10 242 -10 163 -10 c 0,3,4
 102 -10 102 -10 69.5 24 c 128,-1,5
 37 58 37 58 38 121 c 0,6,7
 38 133 38 133 39 145 c 128,-1,8
 40 157 40 157 42 169 c 2,9,-1
 75 354 l 2,10,11
 77 360 77 360 80 360 c 2,12,-1
 85 360 l 2,13,14
 100 360 100 360 109.5 349.5 c 128,-1,15
 119 339 119 339 119 322 c 0,16,17
 119 318 119 318 118.5 315 c 128,-1,18
 118 312 118 312 117 308 c 2,19,-1
 91 156 l 2,20,21
 89 147 89 147 88 137.5 c 128,-1,22
 87 128 87 128 87 120 c 0,23,24
 87 36 87 36 171 36 c 0,25,26
 224 36 224 36 254 66 c 128,-1,27
 284 96 284 96 294 153 c 2,28,-1
 330 354 l 2,29,30
 332 360 332 360 336 360 c 2,31,-1
 340 360 l 2,32,33
 355 360 355 360 364 349.5 c 128,-1,34
 373 339 373 339 373 322 c 0,35,36
 373 318 373 318 373 315 c 128,-1,37
 373 312 373 312 372 308 c 2,38,-1
 343 146 l 2,0,1
EndSplineSet
EndChar

StartChar: v
Encoding: 118 118 88
Width: 329
GlyphClass: 1
Flags: W
LayerCount: 2
Fore
SplineSet
128 70 m 1,0,-1
 270 350 l 2,1,2
 274 357 274 357 277 358.5 c 128,-1,3
 280 360 280 360 288 360 c 2,4,-1
 324 360 l 2,5,6
 328 360 328 360 328 357 c 0,7,8
 328 356 328 356 327.5 355.5 c 128,-1,9
 327 355 327 355 327 354 c 2,10,-1
 144 5 l 2,11,12
 142 0 142 0 136 0 c 2,13,-1
 101 0 l 2,14,15
 95 0 95 0 95 5 c 2,16,-1
 34 354 l 1,17,-1
 34 356 l 2,18,19
 34 360 34 360 40 360 c 2,20,-1
 52 360 l 2,21,22
 70 360 70 360 78.5 350.5 c 128,-1,23
 87 341 87 341 90 321 c 2,24,-1
 128 70 l 1,0,-1
EndSplineSet
EndChar

StartChar: w
Encoding: 119 119 89
Width: 551
GlyphClass: 1
Flags: W
LayerCount: 2
Fore
SplineSet
122 72 m 1,0,-1
 263 353 l 2,1,2
 267 360 267 360 274 360 c 2,3,-1
 283 360 l 2,4,5
 313 360 313 360 320 319 c 2,6,-1
 358 72 l 1,7,-1
 487 350 l 2,8,9
 490 357 490 357 493.5 358.5 c 128,-1,10
 497 360 497 360 505 360 c 2,11,-1
 540 360 l 2,12,13
 544 360 544 360 544 357 c 0,14,15
 544 356 544 356 543.5 356 c 128,-1,16
 543 356 543 356 543 354 c 2,17,-1
 371 5 l 2,18,19
 369 0 369 0 363 0 c 2,20,-1
 329 0 l 2,21,22
 324 0 324 0 324 5 c 2,23,-1
 280 291 l 1,24,-1
 135 5 l 2,25,26
 133 0 133 0 127 0 c 2,27,-1
 93 0 l 2,28,29
 88 0 88 0 86 5 c 2,30,-1
 40 354 l 1,31,-1
 40 356 l 2,32,33
 40 360 40 360 45 360 c 2,34,-1
 56 360 l 2,35,36
 90 360 90 360 95 321 c 2,37,-1
 122 72 l 1,0,-1
EndSplineSet
EndChar

StartChar: x
Encoding: 120 120 90
Width: 336
GlyphClass: 1
Flags: W
LayerCount: 2
Fore
SplineSet
160 231 m 1,0,-1
 255 349 l 2,1,2
 264 360 264 360 276 360 c 2,3,-1
 313 360 l 2,4,5
 316 360 316 360 316 358 c 0,6,7
 316 357 316 357 314 354 c 2,8,-1
 181 190 l 1,9,-1
 275 6 l 1,10,-1
 275 4 l 2,11,12
 275 0 275 0 270 0 c 2,13,-1
 235 0 l 2,14,15
 226 0 226 0 221 10 c 2,16,-1
 147 156 l 1,17,-1
 29 10 l 2,18,19
 24 3 24 3 21 1.5 c 128,-1,20
 18 0 18 0 12 0 c 2,21,-1
 -29 0 l 2,22,23
 -33 0 -33 0 -33 2 c 0,24,25
 -33 3 -33 3 -32.5 4 c 128,-1,26
 -32 5 -32 5 -32 6 c 2,27,-1
 126 197 l 1,28,-1
 46 354 l 1,29,-1
 46 357 l 2,30,31
 46 360 46 360 51 360 c 2,32,-1
 67 360 l 2,33,34
 84 360 84 360 95 350.5 c 128,-1,35
 106 341 106 341 117 316 c 2,36,-1
 160 231 l 1,0,-1
EndSplineSet
EndChar

StartChar: y
Encoding: 121 121 91
Width: 329
GlyphClass: 1
Flags: W
LayerCount: 2
Fore
SplineSet
91 -1 m 1,0,-1
 33 354 l 1,1,-1
 33 355 l 2,2,3
 33 360 33 360 38 360 c 2,4,-1
 51 360 l 2,5,6
 83 360 83 360 88 320 c 2,7,-1
 124 63 l 1,8,-1
 269 350 l 2,9,10
 274 360 274 360 286 360 c 2,11,-1
 323 360 l 2,12,13
 327 360 327 360 327 357 c 0,14,15
 327 356 327 356 326.5 355.5 c 128,-1,16
 326 355 326 355 326 354 c 2,17,-1
 129 -19 l 2,18,19
 97 -81 97 -81 74 -114 c 128,-1,20
 51 -147 51 -147 30.5 -159 c 128,-1,21
 10 -171 10 -171 -17 -171 c 0,22,23
 -43 -171 -43 -171 -61.5 -154.5 c 128,-1,24
 -80 -138 -80 -138 -80 -115 c 0,25,26
 -80 -93 -80 -93 -68 -93 c 0,27,28
 -64 -93 -64 -93 -55 -104 c 0,29,30
 -40 -125 -40 -125 -16 -125 c 0,31,32
 -4 -124 -4 -124 5.5 -120.5 c 128,-1,33
 15 -117 15 -117 23 -108 c 0,34,35
 33 -98 33 -98 41 -86 c 128,-1,36
 49 -74 49 -74 56 -62 c 0,37,38
 73 -33 73 -33 91 -1 c 1,0,-1
EndSplineSet
EndChar

StartChar: z
Encoding: 122 122 92
Width: 323
GlyphClass: 1
Flags: W
LayerCount: 2
Fore
SplineSet
56 45 m 1,0,-1
 241 45 l 2,1,2
 245 45 245 45 245 41 c 2,3,-1
 245 39 l 1,4,-1
 239 6 l 2,5,6
 238 0 238 0 233 0 c 2,7,-1
 -7 0 l 2,8,9
 -11 0 -11 0 -11 3 c 2,10,-1
 -11 6 l 1,11,-1
 -6 36 l 2,12,13
 -4 43 -4 43 -1.5 46.5 c 128,-1,14
 1 50 1 50 12 62 c 2,15,-1
 250 315 l 1,16,-1
 53 315 l 2,17,18
 49 315 49 315 49 318 c 2,19,-1
 49 321 l 1,20,-1
 54 354 l 2,21,22
 56 360 56 360 61 360 c 2,23,-1
 257 360 l 2,24,25
 279 360 279 360 288 353 c 128,-1,26
 297 346 297 346 297 331 c 0,27,28
 297 297 297 297 275 274 c 2,29,-1
 56 45 l 1,0,-1
EndSplineSet
EndChar

StartChar: braceleft
Encoding: 123 123 93
Width: 330
GlyphClass: 1
Flags: W
LayerCount: 2
Fore
SplineSet
340 -144 m 2,0,-1
 239 -144 l 2,1,2
 214 -144 214 -144 195.5 -128.5 c 128,-1,3
 177 -113 177 -113 172 -88 c 2,4,-1
 119 216 l 2,5,6
 115 241 115 241 99.5 247.5 c 128,-1,7
 84 254 84 254 73 255 c 0,8,9
 65 256 65 256 62 264 c 2,10,-1
 58 288 l 2,11,12
 57 297 57 297 65 297 c 0,13,14
 76 298 76 298 89 305 c 128,-1,15
 102 312 102 312 97 337 c 2,16,-1
 44 639 l 2,17,18
 40 665 40 665 53 680.5 c 128,-1,19
 66 696 66 696 91 696 c 2,20,-1
 192 696 l 2,21,22
 199 696 199 696 201 689 c 2,23,-1
 201 686 l 2,24,25
 204 671 204 671 195 661.5 c 128,-1,26
 186 652 186 652 169 652 c 2,27,-1
 112 652 l 2,28,29
 90 652 90 652 93 628 c 2,30,-1
 145 334 l 2,31,32
 150 306 150 306 143 293.5 c 128,-1,33
 136 281 136 281 131 276 c 1,34,35
 138 272 138 272 149.5 259.5 c 128,-1,36
 161 247 161 247 165 218 c 2,37,-1
 217 -77 l 2,38,39
 219 -87 219 -87 226 -94 c 128,-1,40
 233 -101 233 -101 244 -101 c 2,41,-1
 301 -101 l 2,42,43
 318 -101 318 -101 330.5 -110 c 128,-1,44
 343 -119 343 -119 346 -134 c 2,45,-1
 346 -137 l 2,46,47
 347 -144 347 -144 340 -144 c 2,0,-1
EndSplineSet
EndChar

StartChar: bar
Encoding: 124 124 94
Width: 184
GlyphClass: 1
Flags: W
LayerCount: 2
Fore
SplineSet
60 -149 m 2,0,1
 55 -149 55 -149 55 -143 c 2,2,-1
 55 561 l 2,3,4
 55 567 55 567 60 567 c 0,5,6
 77 567 77 567 89 553 c 128,-1,7
 101 539 101 539 101 514 c 2,8,-1
 101 -143 l 2,9,10
 101 -149 101 -149 96 -149 c 2,11,-1
 60 -149 l 2,0,1
EndSplineSet
EndChar

StartChar: braceright
Encoding: 125 125 95
Width: 330
GlyphClass: 1
Flags: W
LayerCount: 2
Fore
SplineSet
238 -144 m 2,0,-1
 137 -144 l 2,1,2
 130 -144 130 -144 129 -137 c 2,3,-1
 128 -134 l 2,4,5
 126 -119 126 -119 135 -110 c 128,-1,6
 144 -101 144 -101 161 -101 c 2,7,-1
 218 -101 l 2,8,9
 229 -101 229 -101 233.5 -94 c 128,-1,10
 238 -87 238 -87 236 -77 c 2,11,-1
 184 218 l 2,12,13
 180 247 180 247 187 259.5 c 128,-1,14
 194 272 194 272 199 276 c 1,15,16
 192 281 192 281 180.5 293.5 c 128,-1,17
 169 306 169 306 164 334 c 2,18,-1
 112 628 l 2,19,20
 109 652 109 652 85 652 c 2,21,-1
 29 652 l 2,22,23
 11 652 11 652 -1.5 661.5 c 128,-1,24
 -14 671 -14 671 -16 686 c 2,25,-1
 -17 689 l 2,26,27
 -19 696 -19 696 -11 696 c 2,28,-1
 90 696 l 2,29,30
 116 696 116 696 134.5 680.5 c 128,-1,31
 153 665 153 665 158 639 c 2,32,-1
 211 337 l 2,33,34
 215 312 215 312 230.5 305 c 128,-1,35
 246 298 246 298 256 297 c 0,36,37
 266 297 266 297 267 288 c 2,38,-1
 271 264 l 2,39,40
 273 257 273 257 264 255 c 0,41,42
 254 254 254 254 241 247.5 c 128,-1,43
 228 241 228 241 232 216 c 2,44,-1
 285 -88 l 2,45,46
 290 -113 290 -113 277 -128.5 c 128,-1,47
 264 -144 264 -144 238 -144 c 2,0,-1
EndSplineSet
PairPos2: "'kern' Horizontal Kerning lookup 2 per glyph data 1" uni0698 dx=-9 dy=0 dh=-9 dv=0 dx=0 dy=0 dh=0 dv=0
PairPos2: "'kern' Horizontal Kerning lookup 2 per glyph data 1" uni0695 dx=-9 dy=0 dh=-9 dv=0 dx=0 dy=0 dh=0 dv=0
PairPos2: "'kern' Horizontal Kerning lookup 2 per glyph data 1" uni0694 dx=-9 dy=0 dh=-9 dv=0 dx=0 dy=0 dh=0 dv=0
PairPos2: "'kern' Horizontal Kerning lookup 2 per glyph data 1" uni0691 dx=-5 dy=0 dh=-5 dv=0 dx=0 dy=0 dh=0 dv=0
PairPos2: "'kern' Horizontal Kerning lookup 2 per glyph data 1" uni0671 dx=51 dy=0 dh=51 dv=0 dx=0 dy=0 dh=0 dv=0
PairPos2: "'kern' Horizontal Kerning lookup 2 per glyph data 1" uni0632 dx=-9 dy=0 dh=-9 dv=0 dx=0 dy=0 dh=0 dv=0
PairPos2: "'kern' Horizontal Kerning lookup 2 per glyph data 1" uni0631 dx=-9 dy=0 dh=-9 dv=0 dx=0 dy=0 dh=0 dv=0
PairPos2: "'kern' Horizontal Kerning lookup 2 per glyph data 1" uni0625 dx=17 dy=0 dh=17 dv=0 dx=0 dy=0 dh=0 dv=0
PairPos2: "'kern' Horizontal Kerning lookup 2 per glyph data 1" uni0623 dx=43 dy=0 dh=43 dv=0 dx=0 dy=0 dh=0 dv=0
PairPos2: "'kern' Horizontal Kerning lookup 2 per glyph data 1" uni0622 dx=43 dy=0 dh=43 dv=0 dx=0 dy=0 dh=0 dv=0
EndChar

StartChar: asciitilde
Encoding: 126 126 96
Width: 368
GlyphClass: 1
Flags: W
LayerCount: 2
Fore
SplineSet
46 215 m 2,0,-1
 46 240 l 2,1,2
 46 250 46 250 47 255.5 c 128,-1,3
 48 261 48 261 55 265 c 0,4,5
 72 276 72 276 87.5 282 c 128,-1,6
 103 288 103 288 124 288 c 0,7,8
 157 288 157 288 183 276.5 c 128,-1,9
 209 265 209 265 240 265 c 0,10,11
 264 265 264 265 277.5 271 c 128,-1,12
 291 277 291 277 311 293 c 0,13,14
 314 295 314 295 316 294 c 128,-1,15
 318 293 318 293 318 291 c 2,16,-1
 318 267 l 2,17,18
 318 257 318 257 316.5 252 c 128,-1,19
 315 247 315 247 309 242 c 0,20,21
 293 229 293 229 279 223.5 c 128,-1,22
 265 218 265 218 240 218 c 0,23,24
 207 218 207 218 181 230 c 128,-1,25
 155 242 155 242 124 242 c 0,26,27
 101 242 101 242 87 236 c 128,-1,28
 73 230 73 230 53 213 c 0,29,30
 51 211 51 211 48.5 211.5 c 128,-1,31
 46 212 46 212 46 215 c 2,0,-1
EndSplineSet
EndChar

StartChar: exclamdown
Encoding: 161 161 97
Width: 143
GlyphClass: 1
Flags: W
LayerCount: 2
Fore
SplineSet
77 287 m 0,0,1
 63 287 63 287 52 297.5 c 128,-1,2
 41 308 41 308 41 322 c 0,3,4
 41 342 41 342 55 357 c 128,-1,5
 69 372 69 372 88 372 c 0,6,7
 103 372 103 372 114 361.5 c 128,-1,8
 125 351 125 351 125 337 c 0,9,10
 125 318 125 318 111 302.5 c 128,-1,11
 97 287 97 287 77 287 c 0,0,1
15 -193 m 2,12,13
 14 -199 14 -199 10 -199 c 2,14,-1
 -31 -199 l 2,15,16
 -35 -199 -35 -199 -35 -195 c 2,17,-1
 -35 -193 l 1,18,-1
 40 216 l 2,19,20
 42 222 42 222 46 222 c 0,21,22
 77 222 77 222 77 183 c 0,23,24
 77 180 77 180 77 177 c 128,-1,25
 77 174 77 174 76 170 c 2,26,-1
 15 -193 l 2,12,13
EndSplineSet
EndChar

StartChar: cent
Encoding: 162 162 98
Width: 359
GlyphClass: 1
Flags: W
LayerCount: 2
Fore
SplineSet
233 -9 m 1,0,-1
 243 -65 l 1,1,-1
 243 -67 l 2,2,3
 243 -71 243 -71 239 -71 c 2,4,-1
 202 -71 l 2,5,6
 197 -71 197 -71 196 -65 c 2,7,-1
 186 -8 l 1,8,9
 141 0 141 0 112 15.5 c 128,-1,10
 83 31 83 31 58 62 c 256,11,12
 33 93 33 93 19 135 c 128,-1,13
 5 177 5 177 5 219 c 0,14,15
 5 272 5 272 31 310 c 0,16,17
 48 333 48 333 68 345 c 128,-1,18
 88 357 88 357 121 364 c 1,19,-1
 111 421 l 1,20,21
 111 421 111 421 110.5 421.5 c 128,-1,22
 110 422 110 422 110 423 c 0,23,24
 110 427 110 427 115 427 c 2,25,-1
 151 427 l 2,26,27
 157 427 157 427 157 421 c 2,28,-1
 167 367 l 1,29,30
 212 365 212 365 240.5 350.5 c 128,-1,31
 269 336 269 336 269 316 c 2,32,-1
 269 313 l 1,33,-1
 267 298 l 2,34,35
 266 292 266 292 263 292 c 0,36,37
 259 292 259 292 257 294 c 0,38,39
 232 306 232 306 214 312 c 128,-1,40
 196 318 196 318 175 319 c 1,41,-1
 225 38 l 1,42,43
 254 41 254 41 270.5 50.5 c 128,-1,44
 287 60 287 60 303 83 c 0,45,46
 306 89 306 89 310 89 c 0,47,48
 323 89 323 89 323 66 c 0,49,50
 323 38 323 38 298.5 17.5 c 128,-1,51
 274 -3 274 -3 233 -9 c 1,0,-1
178 41 m 1,52,-1
 129 317 l 1,53,54
 91 307 91 307 73.5 283 c 128,-1,55
 56 259 56 259 56 216 c 0,56,57
 56 149 56 149 88 102.5 c 128,-1,58
 120 56 120 56 178 41 c 1,52,-1
EndSplineSet
EndChar

StartChar: sterling
Encoding: 163 163 99
Width: 473
GlyphClass: 1
Flags: W
LayerCount: 2
Fore
SplineSet
177 47 m 1,0,-1
 391 47 l 2,1,2
 422 47 422 47 426 18 c 2,3,-1
 428 7 l 1,4,-1
 428 5 l 2,5,6
 428 0 428 0 422 0 c 2,7,-1
 56 0 l 2,8,9
 52 0 52 0 50 6 c 2,10,-1
 44 41 l 1,11,-1
 44 44 l 2,12,13
 44 47 44 47 48 47 c 2,14,-1
 131 47 l 1,15,16
 146 98 146 98 146 146 c 0,17,18
 146 186 146 186 138.5 209 c 128,-1,19
 131 232 131 232 108 262 c 1,20,-1
 10 262 l 2,21,22
 5 262 5 262 4 268 c 2,23,-1
 -2 302 l 1,24,-1
 -2 304 l 2,25,26
 -2 308 -2 308 2 308 c 2,27,-1
 75 308 l 1,28,29
 46 348 46 348 33.5 379.5 c 128,-1,30
 21 411 21 411 21 446 c 0,31,32
 21 501 21 501 60.5 534 c 128,-1,33
 100 567 100 567 167 567 c 0,34,35
 240 567 240 567 307 531 c 0,36,37
 338 515 338 515 338 495 c 2,38,-1
 338 492 l 1,39,-1
 335 476 l 2,40,41
 335 468 335 468 330 468 c 0,42,43
 323 468 323 468 316 474 c 0,44,45
 291 493 291 493 250 506 c 128,-1,46
 209 519 209 519 178 519 c 0,47,48
 128 519 128 519 100 497.5 c 128,-1,49
 72 476 72 476 72 436 c 0,50,51
 72 407 72 407 84 379.5 c 128,-1,52
 96 352 96 352 129 308 c 1,53,-1
 294 308 l 2,54,55
 323 308 323 308 329 279 c 2,56,-1
 331 269 l 1,57,-1
 331 267 l 2,58,59
 331 262 331 262 324 262 c 2,60,-1
 161 262 l 1,61,62
 181 228 181 228 187.5 206 c 128,-1,63
 194 184 194 184 194 149 c 0,64,65
 194 134 194 134 192.5 121.5 c 128,-1,66
 191 109 191 109 187.5 92.5 c 128,-1,67
 184 76 184 76 177 47 c 1,0,-1
EndSplineSet
EndChar

StartChar: yen
Encoding: 165 165 100
Width: 449
GlyphClass: 1
Flags: W
LayerCount: 2
Fore
SplineSet
230 133 m 1,0,-1
 77 133 l 2,1,2
 72 133 72 133 71 139 c 2,3,-1
 65 172 l 1,4,-1
 65 174 l 2,5,6
 65 178 65 178 69 178 c 2,7,-1
 222 178 l 1,8,-1
 215 219 l 1,9,-1
 192 251 l 1,10,-1
 56 251 l 2,11,12
 51 251 51 251 50 257 c 2,13,-1
 45 289 l 2,14,15
 44 290 44 290 44 290.5 c 128,-1,16
 44 291 44 291 44 291 c 2,17,18
 44 295 44 295 49 295 c 2,19,-1
 159 295 l 1,20,-1
 -23 548 l 2,21,22
 -25 552 -25 552 -25 552 c 2,23,24
 -25 556 -25 556 -21 556 c 2,25,-1
 -5 556 l 2,26,27
 15 556 15 556 27.5 547.5 c 128,-1,28
 40 539 40 539 59 513 c 2,29,-1
 233 275 l 1,30,-1
 333 543 l 2,31,32
 335 551 335 551 337.5 553.5 c 128,-1,33
 340 556 340 556 347 556 c 2,34,-1
 380 556 l 2,35,36
 388 556 388 556 388 550 c 0,37,38
 388 548 388 548 387 547 c 2,39,-1
 293 295 l 1,40,-1
 400 295 l 2,41,42
 406 295 406 295 406 289 c 2,43,-1
 412 257 l 1,44,-1
 412 254 l 2,45,46
 412 251 412 251 408 251 c 2,47,-1
 278 251 l 1,48,-1
 266 219 l 1,49,-1
 273 178 l 1,50,-1
 421 178 l 2,51,52
 426 178 426 178 427 172 c 2,53,-1
 433 139 l 1,54,-1
 433 136 l 2,55,56
 433 133 433 133 429 133 c 2,57,-1
 281 133 l 1,58,-1
 303 6 l 2,59,60
 304 5 304 5 304 4.5 c 128,-1,61
 304 4 304 4 304 4 c 2,62,63
 304 0 304 0 299 0 c 2,64,-1
 258 0 l 2,65,66
 254 0 254 0 252 6 c 2,67,-1
 230 133 l 1,0,-1
EndSplineSet
EndChar

StartChar: brokenbar
Encoding: 166 166 101
Width: 184
GlyphClass: 1
Flags: W
LayerCount: 2
Fore
SplineSet
60 272 m 2,0,1
 55 272 55 272 55 277 c 2,2,-1
 55 561 l 2,3,4
 55 567 55 567 60 567 c 0,5,6
 77 567 77 567 89 553 c 128,-1,7
 101 539 101 539 101 514 c 2,8,-1
 101 277 l 2,9,10
 101 272 101 272 96 272 c 2,11,-1
 60 272 l 2,0,1
60 -149 m 2,12,13
 55 -149 55 -149 55 -143 c 2,14,-1
 55 140 l 2,15,16
 55 146 55 146 60 146 c 2,17,-1
 96 146 l 2,18,19
 101 146 101 146 101 140 c 2,20,-1
 101 -143 l 2,21,22
 101 -149 101 -149 96 -149 c 2,23,-1
 60 -149 l 2,12,13
EndSplineSet
EndChar

StartChar: section
Encoding: 167 167 102
Width: 404
GlyphClass: 1
Flags: W
LayerCount: 2
Fore
SplineSet
236 124 m 1,0,1
 287 94 287 94 307.5 67.5 c 128,-1,2
 328 41 328 41 328 4 c 0,3,4
 328 -40 328 -40 294.5 -68.5 c 128,-1,5
 261 -97 261 -97 209 -97 c 0,6,7
 176 -97 176 -97 143.5 -86 c 128,-1,8
 111 -75 111 -75 89.5 -58.5 c 128,-1,9
 68 -42 68 -42 68 -25 c 2,10,-1
 68 -19 l 1,11,-1
 70 -8 l 2,12,13
 72 -2 72 -2 75 -2 c 0,14,15
 77 -2 77 -2 79.5 -3.5 c 128,-1,16
 82 -5 82 -5 94 -14 c 0,17,18
 142 -51 142 -51 200 -51 c 0,19,20
 236 -51 236 -51 256.5 -36 c 128,-1,21
 277 -21 277 -21 277 6 c 0,22,23
 277 34 277 34 250.5 59 c 128,-1,24
 224 84 224 84 159 117 c 0,25,26
 80 157 80 157 46.5 191.5 c 128,-1,27
 13 226 13 226 13 268 c 0,28,29
 13 327 13 327 89 377 c 1,30,31
 41 404 41 404 23 427 c 128,-1,32
 5 450 5 450 5 484 c 0,33,34
 5 522 5 522 34.5 545 c 128,-1,35
 64 568 64 568 113 568 c 0,36,37
 139 568 139 568 165.5 562 c 128,-1,38
 192 556 192 556 210 546 c 0,39,40
 230 535 230 535 230 516 c 2,41,-1
 230 513 l 1,42,-1
 228 498 l 1,43,-1
 228 495 l 2,44,45
 228 492 228 492 224 492 c 0,46,47
 222 492 222 492 220 493 c 2,48,-1
 218 493 l 1,49,50
 165 521 165 521 122 521 c 0,51,52
 55 521 55 521 55 479 c 0,53,54
 55 456 55 456 77.5 436 c 128,-1,55
 100 416 100 416 158 388 c 0,56,57
 237 351 237 351 269.5 317.5 c 128,-1,58
 302 284 302 284 302 239 c 0,59,60
 302 183 302 183 236 124 c 1,0,1
198 144 m 1,61,62
 220 161 220 161 226 167 c 128,-1,63
 232 173 232 173 237 182 c 0,64,65
 255 211 255 211 255 238 c 0,66,67
 255 260 255 260 245 276 c 128,-1,68
 235 292 235 292 207.5 310.5 c 128,-1,69
 180 329 180 329 125 357 c 1,70,71
 90 336 90 336 75 315.5 c 128,-1,72
 60 295 60 295 60 269 c 0,73,74
 60 226 60 226 109 193 c 0,75,76
 119 186 119 186 128 180.5 c 128,-1,77
 137 175 137 175 153 167 c 128,-1,78
 169 159 169 159 198 144 c 1,61,62
EndSplineSet
EndChar

StartChar: dieresis
Encoding: 168 168 103
Width: 179
GlyphClass: 1
Flags: W
LayerCount: 2
Fore
SplineSet
14 458 m 0,0,1
 17 472 17 472 28.5 482 c 128,-1,2
 40 492 40 492 53 492 c 0,3,4
 67 492 67 492 75 482 c 128,-1,5
 83 472 83 472 81 458 c 0,6,7
 79 445 79 445 67 435.5 c 128,-1,8
 55 426 55 426 41 426 c 0,9,10
 28 426 28 426 20 435.5 c 128,-1,11
 12 445 12 445 14 458 c 0,0,1
126 458 m 0,12,13
 129 472 129 472 140.5 482 c 128,-1,14
 152 492 152 492 165 492 c 0,15,16
 179 492 179 492 187 482 c 128,-1,17
 195 472 195 472 193 458 c 0,18,19
 191 445 191 445 179 435.5 c 128,-1,20
 167 426 167 426 153 426 c 0,21,22
 140 426 140 426 132 435.5 c 128,-1,23
 124 445 124 445 126 458 c 0,12,13
EndSplineSet
EndChar

StartChar: copyright
Encoding: 169 169 104
Width: 512
GlyphClass: 1
Flags: W
LayerCount: 2
Fore
SplineSet
33 340 m 256,0,1
 33 407 33 407 60.5 457 c 128,-1,2
 88 507 88 507 138.5 535 c 128,-1,3
 189 563 189 563 256 563 c 256,4,5
 323 563 323 563 373 535 c 128,-1,6
 423 507 423 507 451 457 c 128,-1,7
 479 407 479 407 479 340 c 256,8,9
 479 273 479 273 451 223 c 128,-1,10
 423 173 423 173 373 145 c 128,-1,11
 323 117 323 117 256 117 c 256,12,13
 189 117 189 117 138.5 145 c 128,-1,14
 88 173 88 173 60.5 223 c 128,-1,15
 33 273 33 273 33 340 c 256,0,1
256 153 m 256,16,17
 341 153 341 153 391.5 204 c 128,-1,18
 442 255 442 255 442 340 c 256,19,20
 442 425 442 425 391.5 476 c 128,-1,21
 341 527 341 527 256 527 c 256,22,23
 171 527 171 527 121 476 c 128,-1,24
 71 425 71 425 71 340 c 256,25,26
 71 255 71 255 121 204 c 128,-1,27
 171 153 171 153 256 153 c 256,16,17
333 413 m 2,28,29
 333 409 333 409 330 409 c 0,30,31
 328 409 328 409 325 412 c 0,32,33
 312 421 312 421 296.5 427 c 128,-1,34
 281 433 281 433 264 433 c 0,35,36
 230 433 230 433 208.5 408 c 128,-1,37
 187 383 187 383 187 339 c 0,38,39
 187 294 187 294 207.5 271 c 128,-1,40
 228 248 228 248 263 248 c 0,41,42
 289 248 289 248 305 258.5 c 128,-1,43
 321 269 321 269 331 283 c 0,44,45
 335 288 335 288 337 288 c 0,46,47
 342 288 342 288 342 281 c 0,48,49
 342 257 342 257 317.5 237 c 128,-1,50
 293 217 293 217 260 217 c 0,51,52
 213 217 213 217 182 249.5 c 128,-1,53
 151 282 151 282 151 340 c 256,54,55
 151 398 151 398 183.5 430.5 c 128,-1,56
 216 463 216 463 264 463 c 0,57,58
 296 463 296 463 320 451 c 0,59,60
 337 443 337 443 335 431 c 2,61,-1
 333 413 l 2,28,29
EndSplineSet
EndChar

StartChar: ordfeminine
Encoding: 170 170 105
Width: 328
GlyphClass: 1
Flags: W
LayerCount: 2
Fore
SplineSet
267 304 m 1,0,1
 246 278 246 278 219 267.5 c 128,-1,2
 192 257 192 257 157 257 c 0,3,4
 105 257 105 257 73.5 290.5 c 128,-1,5
 42 324 42 324 42 376 c 0,6,7
 42 425 42 425 63.5 465 c 128,-1,8
 85 505 85 505 122 529 c 128,-1,9
 159 553 159 553 204 553 c 0,10,11
 264 553 264 553 302 501 c 1,12,13
 311 548 311 548 341 548 c 2,14,-1
 347 548 l 2,15,16
 350 548 350 548 350 545 c 2,17,-1
 350 543 l 1,18,-1
 301 269 l 2,19,20
 301 264 301 264 297 264 c 2,21,-1
 263 264 l 2,22,23
 259 264 259 264 261 266 c 2,24,-1
 261 269 l 1,25,-1
 267 304 l 1,0,1
163 296 m 0,26,27
 216 296 216 296 250 334.5 c 128,-1,28
 284 373 284 373 284 434 c 0,29,30
 284 472 284 472 263 492.5 c 128,-1,31
 242 513 242 513 204 513 c 0,32,33
 172 513 172 513 145 495 c 128,-1,34
 118 477 118 477 102.5 446 c 128,-1,35
 87 415 87 415 87 377 c 256,36,37
 87 339 87 339 107.5 317.5 c 128,-1,38
 128 296 128 296 163 296 c 0,26,27
EndSplineSet
EndChar

StartChar: guillemotleft
Encoding: 171 171 106
Width: 361
GlyphClass: 1
Flags: W
LayerCount: 2
Fore
SplineSet
242 184 m 1,0,-1
 370 47 l 2,1,2
 373 44 373 44 372 42 c 128,-1,3
 371 40 371 40 368 40 c 2,4,-1
 324 40 l 2,5,6
 315 40 315 40 308 48 c 2,7,-1
 190 170 l 2,8,9
 187 174 187 174 184.5 177 c 128,-1,10
 182 180 182 180 181 184 c 0,11,12
 180 190 180 190 185 198 c 2,13,-1
 260 320 l 2,14,15
 265 328 265 328 274 328 c 2,16,-1
 318 328 l 2,17,18
 326 328 326 328 322 321 c 2,19,-1
 242 184 l 1,0,-1
104 184 m 1,20,-1
 232 47 l 2,21,22
 235 44 235 44 234 42 c 128,-1,23
 233 40 233 40 230 40 c 2,24,-1
 186 40 l 2,25,26
 176 40 176 40 169 48 c 2,27,-1
 53 170 l 2,28,29
 49 174 49 174 46.5 177 c 128,-1,30
 44 180 44 180 43 184 c 256,31,32
 42 188 42 188 44 191 c 128,-1,33
 46 194 46 194 48 198 c 2,34,-1
 121 320 l 2,35,36
 126 328 126 328 135 328 c 2,37,-1
 180 328 l 2,38,39
 188 328 188 328 184 321 c 2,40,-1
 104 184 l 1,20,-1
EndSplineSet
EndChar

StartChar: uni00AD
Encoding: 173 173 107
Width: 305
GlyphClass: 1
Flags: W
LayerCount: 2
Fore
SplineSet
54 180 m 2,0,1
 50 180 50 180 48 186 c 2,2,-1
 42 221 l 2,3,4
 41 227 41 227 46 227 c 2,5,-1
 260 227 l 2,6,7
 265 227 265 227 266 221 c 2,8,-1
 272 186 l 2,9,10
 274 180 274 180 268 180 c 2,11,-1
 54 180 l 2,0,1
EndSplineSet
EndChar

StartChar: registered
Encoding: 174 174 108
Width: 512
GlyphClass: 1
Flags: W
LayerCount: 2
Fore
SplineSet
33 340 m 256,0,1
 33 407 33 407 60.5 457 c 128,-1,2
 88 507 88 507 138.5 535 c 128,-1,3
 189 563 189 563 256 563 c 256,4,5
 323 563 323 563 373 535 c 128,-1,6
 423 507 423 507 451 457 c 128,-1,7
 479 407 479 407 479 340 c 256,8,9
 479 273 479 273 451 223 c 128,-1,10
 423 173 423 173 373 145 c 128,-1,11
 323 117 323 117 256 117 c 256,12,13
 189 117 189 117 138.5 145 c 128,-1,14
 88 173 88 173 60.5 223 c 128,-1,15
 33 273 33 273 33 340 c 256,0,1
256 153 m 256,16,17
 341 153 341 153 391.5 204 c 128,-1,18
 442 255 442 255 442 340 c 256,19,20
 442 425 442 425 391.5 476 c 128,-1,21
 341 527 341 527 256 527 c 256,22,23
 171 527 171 527 121 476 c 128,-1,24
 71 425 71 425 71 340 c 256,25,26
 71 255 71 255 121 204 c 128,-1,27
 171 153 171 153 256 153 c 256,16,17
207 308 m 1,28,-1
 207 225 l 2,29,30
 207 222 207 222 205 222 c 2,31,-1
 173 222 l 2,32,33
 171 222 171 222 171 225 c 2,34,-1
 171 457 l 2,35,36
 171 459 171 459 173 459 c 2,37,-1
 262 459 l 2,38,39
 303 459 303 459 325.5 440 c 128,-1,40
 348 421 348 421 348 386 c 0,41,42
 348 358 348 358 334 338.5 c 128,-1,43
 320 319 320 319 297 311 c 1,44,-1
 353 225 l 2,45,46
 356 222 356 222 351 222 c 2,47,-1
 322 222 l 2,48,49
 316 222 316 222 313 226 c 2,50,-1
 261 308 l 1,51,-1
 207 308 l 1,28,-1
207 340 m 1,52,-1
 250 340 l 2,53,54
 312 340 312 340 312 388 c 0,55,56
 312 413 312 413 296 420.5 c 128,-1,57
 280 428 280 428 254 428 c 2,58,-1
 207 428 l 1,59,-1
 207 340 l 1,52,-1
EndSplineSet
EndChar

StartChar: macron
Encoding: 175 175 109
Width: 202
GlyphClass: 1
Flags: W
LayerCount: 2
Fore
SplineSet
15 431 m 2,0,1
 10 431 10 431 11 437 c 2,2,-1
 15 464 l 2,3,4
 16 469 16 469 21 469 c 2,5,-1
 213 469 l 2,6,7
 218 469 218 469 217 464 c 2,8,-1
 212 437 l 2,9,10
 212 431 212 431 206 431 c 2,11,-1
 15 431 l 2,0,1
EndSplineSet
EndChar

StartChar: degree
Encoding: 176 176 110
Width: 261
GlyphClass: 1
Flags: W
LayerCount: 2
Fore
SplineSet
130 369 m 0,0,1
 84 369 84 369 55 400 c 128,-1,2
 26 431 26 431 26 474 c 0,3,4
 26 521 26 521 55 550 c 128,-1,5
 84 579 84 579 130 579 c 0,6,7
 177 579 177 579 206 550 c 128,-1,8
 235 521 235 521 235 474 c 0,9,10
 235 431 235 431 206 400 c 128,-1,11
 177 369 177 369 130 369 c 0,0,1
130 407 m 0,12,13
 159 407 159 407 176 427 c 128,-1,14
 193 447 193 447 193 474 c 0,15,16
 193 503 193 503 176 523 c 128,-1,17
 159 543 159 543 130 543 c 0,18,19
 102 543 102 543 85 523 c 128,-1,20
 68 503 68 503 68 474 c 0,21,22
 68 447 68 447 85 427 c 128,-1,23
 102 407 102 407 130 407 c 0,12,13
EndSplineSet
EndChar

StartChar: plusminus
Encoding: 177 177 111
Width: 384
GlyphClass: 1
Flags: W
LayerCount: 2
Fore
SplineSet
169 249 m 1,0,-1
 46 249 l 2,1,2
 41 249 41 249 41 255 c 2,3,-1
 41 289 l 2,4,5
 41 295 41 295 46 295 c 2,6,-1
 169 295 l 1,7,-1
 169 437 l 2,8,9
 169 443 169 443 174 443 c 0,10,11
 215 443 215 443 215 397 c 2,12,-1
 215 295 l 1,13,-1
 339 295 l 2,14,15
 344 295 344 295 344 289 c 2,16,-1
 344 255 l 2,17,18
 344 249 344 249 339 249 c 2,19,-1
 215 249 l 1,20,-1
 215 107 l 2,21,22
 215 101 215 101 210 101 c 2,23,-1
 174 101 l 2,24,25
 169 101 169 101 169 107 c 2,26,-1
 169 249 l 1,0,-1
46 0 m 2,27,28
 41 0 41 0 41 6 c 2,29,-1
 41 41 l 2,30,31
 41 47 41 47 46 47 c 2,32,-1
 305 47 l 2,33,34
 324 47 324 47 334 36.5 c 128,-1,35
 344 26 344 26 344 11 c 2,36,-1
 344 6 l 2,37,38
 344 0 344 0 339 0 c 2,39,-1
 46 0 l 2,27,28
EndSplineSet
EndChar

StartChar: twosuperior
Encoding: 178 178 112
Width: 284
GlyphClass: 1
Flags: W
LayerCount: 2
Fore
SplineSet
74 279 m 1,0,-1
 223 279 l 2,1,2
 241 279 241 279 244 263 c 2,3,-1
 247 243 l 2,4,5
 248 239 248 239 243 239 c 2,6,-1
 35 239 l 2,7,8
 33 239 33 239 31 242 c 0,9,10
 24 285 24 285 36.5 312.5 c 128,-1,11
 49 340 49 340 71.5 358 c 128,-1,12
 94 376 94 376 117 391 c 128,-1,13
 140 406 140 406 154.5 423.5 c 128,-1,14
 169 441 169 441 164 469 c 0,15,16
 160 495 160 495 140.5 508.5 c 128,-1,17
 121 522 121 522 81 522 c 256,18,19
 41 522 41 522 7 494 c 0,20,21
 5 493 5 493 3.5 492 c 128,-1,22
 2 491 2 491 0 491 c 0,23,24
 -5 491 -5 491 -5 496 c 2,25,-1
 -12 518 l 2,26,27
 -18 533 -18 533 2 543 c 0,28,29
 16 551 16 551 34 556.5 c 128,-1,30
 52 562 52 562 76 562 c 0,31,32
 128 562 128 562 164.5 536.5 c 128,-1,33
 201 511 201 511 208 471 c 0,34,35
 213 440 213 440 202 418.5 c 128,-1,36
 191 397 191 397 171 380.5 c 128,-1,37
 151 364 151 364 129.5 349.5 c 128,-1,38
 108 335 108 335 92 318.5 c 128,-1,39
 76 302 76 302 74 279 c 1,0,-1
EndSplineSet
EndChar

StartChar: threesuperior
Encoding: 179 179 113
Width: 301
GlyphClass: 1
Flags: W
LayerCount: 2
Fore
SplineSet
183 404 m 1,0,1
 214 397 214 397 234.5 379.5 c 128,-1,2
 255 362 255 362 261 327 c 0,3,4
 268 287 268 287 242.5 260 c 128,-1,5
 217 233 217 233 161 233 c 0,6,7
 119 233 119 233 92 247.5 c 128,-1,8
 65 262 65 262 51 280.5 c 128,-1,9
 37 299 37 299 34 311 c 0,10,11
 34 315 34 315 35 318.5 c 128,-1,12
 36 322 36 322 40 322 c 256,13,14
 44 322 44 322 50 316 c 0,15,16
 88 272 88 272 147 272 c 0,17,18
 227 272 227 272 216 325 c 0,19,20
 212 354 212 354 186 370 c 128,-1,21
 160 386 160 386 119 386 c 2,22,-1
 88 386 l 2,23,24
 71 386 71 386 68 403 c 2,25,-1
 65 421 l 2,26,27
 64 424 64 424 68 424 c 2,28,-1
 120 424 l 2,29,30
 153 424 153 424 169.5 436 c 128,-1,31
 186 448 186 448 181 477 c 0,32,33
 172 523 172 523 99 523 c 0,34,35
 77 523 77 523 58.5 516 c 128,-1,36
 40 509 40 509 24 497 c 0,37,38
 21 493 21 493 17 493 c 256,39,40
 13 493 13 493 13 498 c 2,41,-1
 6 518 l 2,42,43
 3 526 3 526 7 531 c 128,-1,44
 11 536 11 536 20 543 c 0,45,46
 32 550 32 550 52.5 556 c 128,-1,47
 73 562 73 562 96 562 c 0,48,49
 149 562 149 562 183 540 c 128,-1,50
 217 518 217 518 224 479 c 0,51,52
 229 456 229 456 220.5 435.5 c 128,-1,53
 212 415 212 415 183 404 c 1,0,1
EndSplineSet
EndChar

StartChar: acute
Encoding: 180 180 114
Width: 139
GlyphClass: 1
Flags: W
LayerCount: 2
Fore
SplineSet
3 436 m 2,0,-1
 66 493 l 2,1,2
 71 498 71 498 75 500 c 128,-1,3
 79 502 79 502 87 502 c 2,4,-1
 136 502 l 2,5,6
 140 502 140 502 140.5 500 c 128,-1,7
 141 498 141 498 139 496 c 2,8,-1
 68 440 l 2,9,10
 56 431 56 431 43 431 c 2,11,-1
 6 431 l 2,12,13
 3 431 3 431 2 433 c 128,-1,14
 1 435 1 435 3 436 c 2,0,-1
EndSplineSet
EndChar

StartChar: paragraph
Encoding: 182 182 115
Width: 433
GlyphClass: 1
Flags: W
LayerCount: 2
Fore
SplineSet
172 221 m 1,0,-1
 168 221 l 2,1,2
 95 221 95 221 40 266.5 c 128,-1,3
 -15 312 -15 312 -29 391 c 0,4,5
 -42 464 -42 464 -5.5 510 c 128,-1,6
 31 556 31 556 133 556 c 2,7,-1
 204 556 l 2,8,9
 264 556 264 556 276 491 c 2,10,-1
 362 6 l 2,11,12
 362 0 362 0 358 0 c 2,13,-1
 328 0 l 2,14,15
 322 0 322 0 322 6 c 2,16,-1
 232 514 l 1,17,-1
 160 514 l 1,18,-1
 249 6 l 2,19,20
 251 0 251 0 246 0 c 2,21,-1
 216 0 l 2,22,23
 211 0 211 0 209 6 c 2,24,-1
 172 221 l 1,0,-1
EndSplineSet
EndChar

StartChar: periodcentered
Encoding: 183 183 116
Width: 137
GlyphClass: 1
Flags: W
LayerCount: 2
Fore
SplineSet
92 322 m 256,0,1
 109 322 109 322 118.5 309 c 128,-1,2
 128 296 128 296 125 279 c 256,3,4
 122 262 122 262 108 249.5 c 128,-1,5
 94 237 94 237 77 237 c 0,6,7
 61 237 61 237 50.5 249.5 c 128,-1,8
 40 262 40 262 43 279 c 256,9,10
 46 296 46 296 60.5 309 c 128,-1,11
 75 322 75 322 92 322 c 256,0,1
EndSplineSet
EndChar

StartChar: cedilla
Encoding: 184 184 117
Width: 98
GlyphClass: 1
Flags: W
LayerCount: 2
Fore
SplineSet
97 -1 m 2,0,-1
 58 -77 l 2,1,2
 54 -86 54 -86 37 -86 c 2,3,-1
 4 -86 l 2,4,5
 -3 -86 -3 -86 1 -80 c 2,6,-1
 48 -5 l 2,7,8
 53 2 53 2 58.5 3.5 c 128,-1,9
 64 5 64 5 71 5 c 2,10,-1
 93 5 l 2,11,12
 99 5 99 5 97 -1 c 2,0,-1
EndSplineSet
EndChar

StartChar: onesuperior
Encoding: 185 185 118
Width: 194
GlyphClass: 1
Flags: W
LayerCount: 2
Fore
SplineSet
3 514 m 1,0,-1
 -55 493 l 2,1,2
 -59 491 -59 491 -59 494 c 2,3,-1
 -66 532 l 2,4,5
 -66 536 -66 536 -62 538 c 2,6,-1
 -26 551 l 2,7,8
 -18 553 -18 553 -12 554.5 c 128,-1,9
 -6 556 -6 556 0 556 c 2,10,-1
 19 556 l 2,11,12
 41 556 41 556 45 528 c 2,13,-1
 95 245 l 2,14,15
 97 239 97 239 91 239 c 2,16,-1
 56 239 l 2,17,18
 52 239 52 239 50 245 c 2,19,-1
 3 514 l 1,0,-1
EndSplineSet
EndChar

StartChar: ordmasculine
Encoding: 186 186 119
Width: 320
GlyphClass: 1
Flags: W
LayerCount: 2
Fore
SplineSet
171 257 m 0,0,1
 110 257 110 257 78 297 c 128,-1,2
 46 337 46 337 58 404 c 256,3,4
 70 471 70 471 116 512 c 128,-1,5
 162 553 162 553 223 553 c 0,6,7
 288 553 288 553 319 512 c 128,-1,8
 350 471 350 471 338 404 c 0,9,10
 326 338 326 338 281 297.5 c 128,-1,11
 236 257 236 257 171 257 c 0,0,1
178 296 m 256,12,13
 222 296 222 296 253.5 325.5 c 128,-1,14
 285 355 285 355 293 404 c 0,15,16
 302 453 302 453 280.5 483 c 128,-1,17
 259 513 259 513 216 513 c 0,18,19
 172 513 172 513 141.5 483 c 128,-1,20
 111 453 111 453 103 404 c 0,21,22
 95 356 95 356 114.5 326 c 128,-1,23
 134 296 134 296 178 296 c 256,12,13
EndSplineSet
EndChar

StartChar: guillemotright
Encoding: 187 187 120
Width: 361
GlyphClass: 1
Flags: W
LayerCount: 2
Fore
SplineSet
134 184 m 1,0,-1
 30 321 l 2,1,2
 25 328 25 328 33 328 c 2,3,-1
 77 328 l 2,4,5
 87 328 87 328 93 320 c 2,6,-1
 188 198 l 2,7,8
 195 189 195 189 195 184 c 256,9,10
 195 179 195 179 188 170 c 2,11,-1
 93 48 l 2,12,13
 87 40 87 40 77 40 c 2,14,-1
 33 40 l 2,15,16
 25 40 25 40 30 47 c 2,17,-1
 134 184 l 1,0,-1
273 184 m 1,18,-1
 168 321 l 2,19,20
 163 328 163 328 171 328 c 2,21,-1
 215 328 l 2,22,23
 220 328 220 328 223.5 326.5 c 128,-1,24
 227 325 227 325 231 320 c 2,25,-1
 326 198 l 2,26,27
 333 189 333 189 333 184 c 256,28,29
 333 179 333 179 326 170 c 2,30,-1
 231 48 l 2,31,32
 227 43 227 43 223.5 41.5 c 128,-1,33
 220 40 220 40 215 40 c 2,34,-1
 171 40 l 2,35,36
 163 40 163 40 168 47 c 2,37,-1
 273 184 l 1,18,-1
EndSplineSet
EndChar

StartChar: onequarter
Encoding: 188 188 121
Width: 601
GlyphClass: 1
Flags: W
LayerCount: 2
Fore
SplineSet
113 0 m 2,0,1
 109 0 109 0 110 6 c 2,2,-1
 314 549 l 2,3,4
 316 552 316 552 316.5 554 c 128,-1,5
 317 556 317 556 320 556 c 2,6,-1
 326 556 l 2,7,8
 344 556 344 556 350.5 542 c 128,-1,9
 357 528 357 528 347 503 c 2,10,-1
 162 6 l 2,11,12
 161 0 161 0 155 0 c 2,13,-1
 113 0 l 2,0,1
3 514 m 1,14,-1
 -55 493 l 2,15,16
 -59 492 -59 492 -59 494 c 2,17,-1
 -66 532 l 2,18,19
 -66 536 -66 536 -62 538 c 2,20,-1
 -25 551 l 2,21,22
 -10 556 -10 556 0 556 c 2,23,-1
 19 556 l 2,24,25
 41 556 41 556 45 528 c 2,26,-1
 95 245 l 2,27,28
 97 239 97 239 91 239 c 2,29,-1
 56 239 l 2,30,31
 52 239 52 239 50 245 c 2,32,-1
 3 514 l 1,14,-1
465 79 m 1,33,-1
 307 79 l 2,34,35
 303 79 303 79 303 82 c 2,36,-1
 300 97 l 2,37,38
 299 102 299 102 299 105.5 c 128,-1,39
 299 109 299 109 303 115 c 2,40,-1
 406 308 l 2,41,42
 411 317 411 317 421 317 c 2,43,-1
 446 317 l 2,44,45
 454 317 454 317 461 313 c 128,-1,46
 468 309 468 309 470 296 c 2,47,-1
 502 117 l 1,48,-1
 528 117 l 2,49,50
 545 117 545 117 548 100 c 2,51,-1
 551 83 l 2,52,53
 552 79 552 79 547 79 c 2,54,-1
 508 79 l 1,55,-1
 522 3 l 2,56,57
 522 0 522 0 519 0 c 2,58,-1
 482 0 l 2,59,60
 479 0 479 0 479 3 c 2,61,-1
 465 79 l 1,33,-1
347 117 m 1,62,-1
 459 117 l 1,63,-1
 431 275 l 1,64,-1
 347 117 l 1,62,-1
EndSplineSet
Ligature2: "'frac' Diagonal Fractions lookup 4 subtable" one fraction four
Ligature2: "'frac' Diagonal Fractions lookup 4 subtable" one slash four
EndChar

StartChar: onehalf
Encoding: 189 189 122
Width: 672
GlyphClass: 1
Flags: W
LayerCount: 2
Fore
SplineSet
113 0 m 2,0,1
 109 0 109 0 110 6 c 2,2,-1
 314 549 l 2,3,4
 316 552 316 552 316.5 554 c 128,-1,5
 317 556 317 556 320 556 c 2,6,-1
 326 556 l 2,7,8
 344 556 344 556 350.5 542 c 128,-1,9
 357 528 357 528 347 503 c 2,10,-1
 162 6 l 2,11,12
 161 0 161 0 155 0 c 2,13,-1
 113 0 l 2,0,1
3 514 m 1,14,-1
 -55 493 l 2,15,16
 -59 492 -59 492 -59 494 c 2,17,-1
 -66 532 l 2,18,19
 -66 536 -66 536 -62 538 c 2,20,-1
 -25 551 l 2,21,22
 -10 556 -10 556 0 556 c 2,23,-1
 19 556 l 2,24,25
 41 556 41 556 45 528 c 2,26,-1
 95 245 l 2,27,28
 97 239 97 239 91 239 c 2,29,-1
 56 239 l 2,30,31
 52 239 52 239 50 245 c 2,32,-1
 3 514 l 1,14,-1
437 41 m 1,33,-1
 586 41 l 2,34,35
 604 41 604 41 607 24 c 2,36,-1
 610 4 l 2,37,38
 611 0 611 0 606 0 c 2,39,-1
 398 0 l 2,40,41
 396 0 396 0 394 3 c 0,42,43
 387 46 387 46 399.5 73.5 c 128,-1,44
 412 101 412 101 434.5 119 c 128,-1,45
 457 137 457 137 480 152 c 128,-1,46
 503 167 503 167 517 185 c 128,-1,47
 531 203 531 203 526 231 c 0,48,49
 522 257 522 257 503 270 c 128,-1,50
 484 283 484 283 444 283 c 0,51,52
 403 283 403 283 370 257 c 0,53,54
 364 253 364 253 363 253 c 0,55,56
 358 253 358 253 358 258 c 2,57,-1
 351 279 l 2,58,59
 346 294 346 294 366 304 c 0,60,61
 380 312 380 312 397.5 317.5 c 128,-1,62
 415 323 415 323 439 323 c 0,63,64
 491 323 491 323 527.5 298 c 128,-1,65
 564 273 564 273 571 233 c 0,66,67
 576 202 576 202 565 180.5 c 128,-1,68
 554 159 554 159 534 142.5 c 128,-1,69
 514 126 514 126 492.5 111 c 128,-1,70
 471 96 471 96 455 79.5 c 128,-1,71
 439 63 439 63 437 41 c 1,33,-1
EndSplineSet
Ligature2: "'frac' Diagonal Fractions lookup 4 subtable" one fraction two
Ligature2: "'frac' Diagonal Fractions lookup 4 subtable" one slash two
EndChar

StartChar: threequarters
Encoding: 190 190 123
Width: 683
GlyphClass: 1
Flags: W
LayerCount: 2
Fore
SplineSet
183 404 m 1,0,1
 214 397 214 397 234.5 379.5 c 128,-1,2
 255 362 255 362 261 327 c 0,3,4
 268 287 268 287 242.5 260 c 128,-1,5
 217 233 217 233 161 233 c 0,6,7
 124 233 124 233 96 247.5 c 128,-1,8
 68 262 68 262 52.5 280.5 c 128,-1,9
 37 299 37 299 34 311 c 0,10,11
 34 315 34 315 35 318.5 c 128,-1,12
 36 322 36 322 40 322 c 256,13,14
 44 322 44 322 50 316 c 0,15,16
 88 272 88 272 147 272 c 0,17,18
 227 272 227 272 216 325 c 0,19,20
 212 354 212 354 186 370 c 128,-1,21
 160 386 160 386 119 386 c 2,22,-1
 88 386 l 2,23,24
 71 386 71 386 68 403 c 2,25,-1
 65 421 l 2,26,27
 64 424 64 424 68 424 c 2,28,-1
 120 424 l 2,29,30
 153 424 153 424 169.5 436 c 128,-1,31
 186 448 186 448 181 477 c 0,32,33
 172 523 172 523 99 523 c 0,34,35
 77 523 77 523 58.5 516 c 128,-1,36
 40 509 40 509 24 497 c 0,37,38
 21 493 21 493 17 493 c 256,39,40
 13 493 13 493 13 498 c 2,41,-1
 6 518 l 2,42,43
 3 526 3 526 7 531 c 128,-1,44
 11 536 11 536 20 543 c 0,45,46
 32 550 32 550 52.5 556 c 128,-1,47
 73 562 73 562 96 562 c 0,48,49
 149 562 149 562 183 540 c 128,-1,50
 217 518 217 518 224 479 c 0,51,52
 229 456 229 456 220.5 435.5 c 128,-1,53
 212 415 212 415 183 404 c 1,0,1
250 0 m 2,54,55
 246 0 246 0 247 6 c 2,56,-1
 450 549 l 2,57,58
 452 556 452 556 456 556 c 2,59,-1
 462 556 l 2,60,61
 480 556 480 556 486 542 c 128,-1,62
 492 528 492 528 483 503 c 2,63,-1
 299 6 l 2,64,65
 298 0 298 0 292 0 c 2,66,-1
 250 0 l 2,54,55
602 79 m 1,67,-1
 443 79 l 2,68,69
 441 79 441 79 439 82 c 2,70,-1
 437 97 l 2,71,72
 434 106 434 106 439 115 c 2,73,-1
 542 308 l 2,74,75
 548 317 548 317 558 317 c 2,76,-1
 583 317 l 2,77,78
 591 317 591 317 598 313 c 128,-1,79
 605 309 605 309 607 296 c 2,80,-1
 638 117 l 1,81,-1
 664 117 l 2,82,83
 681 117 681 117 684 100 c 2,84,-1
 687 83 l 2,85,86
 687 79 687 79 684 79 c 2,87,-1
 645 79 l 1,88,-1
 658 3 l 2,89,90
 658 0 658 0 656 0 c 2,91,-1
 619 0 l 2,92,93
 617 0 617 0 615 3 c 2,94,-1
 602 79 l 1,67,-1
483 117 m 1,95,-1
 595 117 l 1,96,-1
 567 275 l 1,97,-1
 483 117 l 1,95,-1
EndSplineSet
Ligature2: "'frac' Diagonal Fractions lookup 4 subtable" three fraction four
Ligature2: "'frac' Diagonal Fractions lookup 4 subtable" three slash four
EndChar

StartChar: questiondown
Encoding: 191 191 124
Width: 325
GlyphClass: 1
Flags: W
LayerCount: 2
Fore
SplineSet
195 287 m 0,0,1
 181 287 181 287 170 297 c 128,-1,2
 159 307 159 307 159 322 c 0,3,4
 159 342 159 342 173 357 c 128,-1,5
 187 372 187 372 206 372 c 0,6,7
 220 372 220 372 231.5 361.5 c 128,-1,8
 243 351 243 351 243 337 c 0,9,10
 243 318 243 318 229 302.5 c 128,-1,11
 215 287 215 287 195 287 c 0,0,1
272 -151 m 1,12,-1
 272 -153 l 2,13,14
 272 -156 272 -156 267 -159 c 0,15,16
 225 -185 225 -185 186.5 -197.5 c 128,-1,17
 148 -210 148 -210 105 -210 c 0,18,19
 34 -210 34 -210 -6.5 -174.5 c 128,-1,20
 -47 -139 -47 -139 -47 -80 c 0,21,22
 -47 -42 -47 -42 -33.5 -12 c 128,-1,23
 -20 18 -20 18 11 47 c 128,-1,24
 42 76 42 76 94 110 c 0,25,26
 119 127 119 127 129.5 135.5 c 128,-1,27
 140 144 140 144 144 153 c 128,-1,28
 148 162 148 162 151 178 c 2,29,-1
 157 216 l 2,30,31
 159 222 159 222 163 222 c 2,32,-1
 169 222 l 2,33,34
 197 222 197 222 197 190 c 256,35,36
 197 158 197 158 177 130 c 128,-1,37
 157 102 157 102 110 70 c 0,38,39
 51 30 51 30 28 -2.5 c 128,-1,40
 5 -35 5 -35 5 -76 c 0,41,42
 5 -162 5 -162 110 -162 c 0,43,44
 181 -162 181 -162 248 -119 c 0,45,46
 254 -114 254 -114 261 -114 c 0,47,48
 266 -114 266 -114 267 -121 c 2,49,-1
 272 -151 l 1,12,-1
EndSplineSet
EndChar

StartChar: Agrave
Encoding: 192 192 125
Width: 498
GlyphClass: 1
Flags: W
LayerCount: 2
Fore
SplineSet
368 625 m 2,0,1
 369 624 369 624 369 623 c 0,2,3
 369 619 369 619 364 619 c 2,4,-1
 332 619 l 2,5,6
 320 619 320 619 309 629 c 2,7,-1
 247 685 l 1,8,9
 247 685 247 685 246.5 685.5 c 128,-1,10
 246 686 246 686 246 687 c 0,11,12
 246 691 246 691 251 691 c 2,13,-1
 296 691 l 2,14,15
 306 691 306 691 315 682 c 2,16,-1
 368 625 l 2,0,1
112 169 m 1,17,-1
 27 12 l 2,18,19
 23 5 23 5 20.5 2.5 c 128,-1,20
 18 0 18 0 10 0 c 2,21,-1
 -30 0 l 2,22,23
 -35 0 -35 0 -35 3 c 0,24,25
 -35 4 -35 4 -34.5 5 c 128,-1,26
 -34 6 -34 6 -34 7 c 2,27,-1
 274 549 l 2,28,29
 277 556 277 556 283 556 c 2,30,-1
 288 556 l 2,31,32
 308 556 308 556 318 548 c 128,-1,33
 328 540 328 540 332 521 c 2,34,-1
 441 7 l 1,35,-1
 441 5 l 2,36,37
 441 0 441 0 436 0 c 2,38,-1
 401 0 l 2,39,40
 394 0 394 0 392 2 c 128,-1,41
 390 4 390 4 388 12 c 2,42,-1
 356 169 l 1,43,-1
 112 169 l 1,17,-1
139 216 m 1,44,-1
 346 216 l 1,45,-1
 291 493 l 1,46,-1
 139 216 l 1,44,-1
EndSplineSet
EndChar

StartChar: Aacute
Encoding: 193 193 126
Width: 498
GlyphClass: 1
Flags: W
LayerCount: 2
Fore
SplineSet
246 625 m 2,0,-1
 314 682 l 2,1,2
 326 691 326 691 337 691 c 2,3,-1
 390 691 l 2,4,5
 394 691 394 691 394 688 c 0,6,7
 394 687 394 687 393.5 686 c 128,-1,8
 393 685 393 685 393 685 c 1,9,-1
 311 629 l 2,10,11
 297 619 297 619 284 619 c 2,12,-1
 248 619 l 2,13,14
 244 619 244 619 244 622 c 0,15,16
 244 623 244 623 246 625 c 2,0,-1
112 169 m 1,17,-1
 27 12 l 2,18,19
 23 5 23 5 20.5 2.5 c 128,-1,20
 18 0 18 0 10 0 c 2,21,-1
 -30 0 l 2,22,23
 -35 0 -35 0 -35 3 c 0,24,25
 -35 4 -35 4 -34.5 5 c 128,-1,26
 -34 6 -34 6 -34 7 c 2,27,-1
 274 549 l 2,28,29
 277 556 277 556 283 556 c 2,30,-1
 288 556 l 2,31,32
 308 556 308 556 318 548 c 128,-1,33
 328 540 328 540 332 521 c 2,34,-1
 441 7 l 1,35,-1
 441 5 l 2,36,37
 441 0 441 0 436 0 c 2,38,-1
 401 0 l 2,39,40
 394 0 394 0 392 2 c 128,-1,41
 390 4 390 4 388 12 c 2,42,-1
 356 169 l 1,43,-1
 112 169 l 1,17,-1
139 216 m 1,44,-1
 346 216 l 1,45,-1
 291 493 l 1,46,-1
 139 216 l 1,44,-1
EndSplineSet
EndChar

StartChar: Acircumflex
Encoding: 194 194 127
Width: 498
GlyphClass: 1
Flags: W
LayerCount: 2
Fore
SplineSet
319 664 m 1,0,-1
 275 629 l 2,1,2
 262 619 262 619 249 619 c 2,3,-1
 213 619 l 2,4,5
 209 619 209 619 209 622 c 0,6,7
 209 623 209 623 211 625 c 2,8,-1
 283 682 l 2,9,10
 295 691 295 691 306 691 c 2,11,-1
 335 691 l 2,12,13
 343 691 343 691 345.5 689.5 c 128,-1,14
 348 688 348 688 354 682 c 2,15,-1
 407 625 l 2,16,17
 408 624 408 624 408 623 c 0,18,19
 408 619 408 619 403 619 c 2,20,-1
 373 619 l 2,21,22
 359 619 359 619 350 629 c 2,23,-1
 319 664 l 1,0,-1
112 169 m 1,24,-1
 27 12 l 2,25,26
 23 5 23 5 20.5 2.5 c 128,-1,27
 18 0 18 0 10 0 c 2,28,-1
 -30 0 l 2,29,30
 -35 0 -35 0 -35 3 c 0,31,32
 -35 4 -35 4 -34.5 5 c 128,-1,33
 -34 6 -34 6 -34 7 c 2,34,-1
 274 549 l 2,35,36
 277 556 277 556 283 556 c 2,37,-1
 288 556 l 2,38,39
 308 556 308 556 318 548 c 128,-1,40
 328 540 328 540 332 521 c 2,41,-1
 441 7 l 1,42,-1
 441 5 l 2,43,44
 441 0 441 0 436 0 c 2,45,-1
 401 0 l 2,46,47
 394 0 394 0 392 2 c 128,-1,48
 390 4 390 4 388 12 c 2,49,-1
 356 169 l 1,50,-1
 112 169 l 1,24,-1
139 216 m 1,51,-1
 346 216 l 1,52,-1
 291 493 l 1,53,-1
 139 216 l 1,51,-1
EndSplineSet
EndChar

StartChar: Atilde
Encoding: 195 195 128
Width: 498
GlyphClass: 1
Flags: W
LayerCount: 2
Fore
SplineSet
218 619 m 2,0,1
 213 621 213 621 213 623 c 0,2,3
 213 645 213 645 230.5 664.5 c 128,-1,4
 248 684 248 684 270 684 c 0,5,6
 280 684 280 684 292.5 680.5 c 128,-1,7
 305 677 305 677 323 668 c 0,8,9
 346 657 346 657 355 657 c 0,10,11
 370 657 370 657 378 674 c 0,12,13
 381 680 381 680 388 680 c 2,14,-1
 414 680 l 2,15,16
 418 680 418 680 420 676 c 0,17,18
 421 655 421 655 401 636 c 128,-1,19
 381 617 381 617 356 617 c 0,20,21
 346 617 346 617 334 620.5 c 128,-1,22
 322 624 322 624 305 632 c 0,23,24
 292 640 292 640 285 642 c 128,-1,25
 278 644 278 644 272 644 c 0,26,27
 260 644 260 644 253 627 c 0,28,29
 250 619 250 619 245 619 c 2,30,-1
 218 619 l 2,0,1
112 169 m 1,31,-1
 27 12 l 2,32,33
 23 5 23 5 20.5 2.5 c 128,-1,34
 18 0 18 0 10 0 c 2,35,-1
 -30 0 l 2,36,37
 -35 0 -35 0 -35 3 c 0,38,39
 -35 4 -35 4 -34.5 5 c 128,-1,40
 -34 6 -34 6 -34 7 c 2,41,-1
 274 549 l 2,42,43
 277 556 277 556 283 556 c 2,44,-1
 288 556 l 2,45,46
 308 556 308 556 318 548 c 128,-1,47
 328 540 328 540 332 521 c 2,48,-1
 441 7 l 1,49,-1
 441 5 l 2,50,51
 441 0 441 0 436 0 c 2,52,-1
 401 0 l 2,53,54
 394 0 394 0 392 2 c 128,-1,55
 390 4 390 4 388 12 c 2,56,-1
 356 169 l 1,57,-1
 112 169 l 1,31,-1
139 216 m 1,58,-1
 346 216 l 1,59,-1
 291 493 l 1,60,-1
 139 216 l 1,58,-1
EndSplineSet
EndChar

StartChar: Adieresis
Encoding: 196 196 129
Width: 498
GlyphClass: 1
Flags: W
LayerCount: 2
Fore
SplineSet
226 642 m 0,0,1
 226 657 226 657 236.5 669 c 128,-1,2
 247 681 247 681 263 681 c 0,3,4
 275 681 275 681 284.5 673 c 128,-1,5
 294 665 294 665 294 653 c 0,6,7
 294 637 294 637 283 625.5 c 128,-1,8
 272 614 272 614 256 614 c 0,9,10
 244 614 244 614 235 622 c 128,-1,11
 226 630 226 630 226 642 c 0,0,1
338 642 m 0,12,13
 338 657 338 657 349 669 c 128,-1,14
 360 681 360 681 375 681 c 0,15,16
 388 681 388 681 397 673 c 128,-1,17
 406 665 406 665 406 653 c 0,18,19
 406 637 406 637 395 625.5 c 128,-1,20
 384 614 384 614 368 614 c 0,21,22
 356 614 356 614 347 622 c 128,-1,23
 338 630 338 630 338 642 c 0,12,13
112 169 m 1,24,-1
 27 12 l 2,25,26
 23 5 23 5 20.5 2.5 c 128,-1,27
 18 0 18 0 10 0 c 2,28,-1
 -30 0 l 2,29,30
 -35 0 -35 0 -35 3 c 0,31,32
 -35 4 -35 4 -34.5 5 c 128,-1,33
 -34 6 -34 6 -34 7 c 2,34,-1
 274 549 l 2,35,36
 277 556 277 556 283 556 c 2,37,-1
 288 556 l 2,38,39
 308 556 308 556 318 548 c 128,-1,40
 328 540 328 540 332 521 c 2,41,-1
 441 7 l 1,42,-1
 441 5 l 2,43,44
 441 0 441 0 436 0 c 2,45,-1
 401 0 l 2,46,47
 394 0 394 0 392 2 c 128,-1,48
 390 4 390 4 388 12 c 2,49,-1
 356 169 l 1,50,-1
 112 169 l 1,24,-1
139 216 m 1,51,-1
 346 216 l 1,52,-1
 291 493 l 1,53,-1
 139 216 l 1,51,-1
EndSplineSet
EndChar

StartChar: Aring
Encoding: 197 197 130
Width: 498
GlyphClass: 1
Flags: W
LayerCount: 2
Fore
SplineSet
254 667 m 0,0,1
 254 696 254 696 276.5 716.5 c 128,-1,2
 299 737 299 737 329 737 c 0,3,4
 352 737 352 737 369 720 c 128,-1,5
 386 703 386 703 386 680 c 0,6,7
 386 651 386 651 363.5 630 c 128,-1,8
 341 609 341 609 311 609 c 0,9,10
 288 609 288 609 271 627 c 128,-1,11
 254 645 254 645 254 667 c 0,0,1
314 639 m 0,12,13
 331 639 331 639 342 651.5 c 128,-1,14
 353 664 353 664 353 681 c 0,15,16
 353 708 353 708 326 708 c 0,17,18
 310 708 310 708 298.5 695.5 c 128,-1,19
 287 683 287 683 287 666 c 0,20,21
 287 639 287 639 314 639 c 0,12,13
112 169 m 1,22,-1
 27 12 l 2,23,24
 23 5 23 5 20.5 2.5 c 128,-1,25
 18 0 18 0 10 0 c 2,26,-1
 -30 0 l 2,27,28
 -35 0 -35 0 -35 3 c 0,29,30
 -35 4 -35 4 -34.5 5 c 128,-1,31
 -34 6 -34 6 -34 7 c 2,32,-1
 274 549 l 2,33,34
 277 556 277 556 283 556 c 2,35,-1
 288 556 l 2,36,37
 308 556 308 556 318 548 c 128,-1,38
 328 540 328 540 332 521 c 2,39,-1
 441 7 l 1,40,-1
 441 5 l 2,41,42
 441 0 441 0 436 0 c 2,43,-1
 401 0 l 2,44,45
 394 0 394 0 392 2 c 128,-1,46
 390 4 390 4 388 12 c 2,47,-1
 356 169 l 1,48,-1
 112 169 l 1,22,-1
139 216 m 1,49,-1
 346 216 l 1,50,-1
 291 493 l 1,51,-1
 139 216 l 1,49,-1
EndSplineSet
EndChar

StartChar: AE
Encoding: 198 198 131
Width: 662
GlyphClass: 1
Flags: W
LayerCount: 2
Fore
SplineSet
314 169 m 1,0,-1
 137 169 l 1,1,-1
 27 12 l 2,2,3
 22 4 22 4 18.5 2 c 128,-1,4
 15 0 15 0 8 0 c 2,5,-1
 -39 0 l 2,6,7
 -43 0 -43 0 -43 2 c 0,8,9
 -43 3 -43 3 -41 7 c 2,10,-1
 350 548 l 2,11,12
 355 556 355 556 363 556 c 2,13,-1
 643 556 l 2,14,15
 668 556 668 556 668 534 c 0,16,17
 668 529 668 529 667 527 c 2,18,-1
 666 516 l 2,19,20
 664 508 664 508 656 508 c 2,21,-1
 425 508 l 1,22,-1
 388 298 l 1,23,-1
 579 298 l 2,24,25
 605 298 605 298 605 277 c 0,26,27
 605 272 605 272 604 270 c 2,28,-1
 602 259 l 2,29,30
 602 252 602 252 593 252 c 2,31,-1
 380 252 l 1,32,-1
 344 47 l 1,33,-1
 563 47 l 2,34,35
 588 47 588 47 588 26 c 2,36,-1
 588 18 l 1,37,-1
 586 7 l 2,38,39
 585 0 585 0 577 0 c 2,40,-1
 290 0 l 2,41,42
 285 0 285 0 285 4 c 2,43,44
 285 4 285 4 285 4.5 c 128,-1,45
 285 5 285 5 286 6 c 2,46,-1
 314 169 l 1,0,-1
169 216 m 1,47,-1
 323 216 l 1,48,-1
 374 509 l 1,49,-1
 169 216 l 1,47,-1
EndSplineSet
EndChar

StartChar: Ccedilla
Encoding: 199 199 132
Width: 513
GlyphClass: 1
Flags: W
LayerCount: 2
Fore
SplineSet
272 -11 m 1,0,-1
 221 -84 l 2,1,2
 217 -89 217 -89 213 -91 c 128,-1,3
 209 -93 209 -93 199 -93 c 2,4,-1
 166 -93 l 2,5,6
 163 -93 163 -93 163 -91 c 0,7,8
 163 -88 163 -88 164 -87 c 2,9,-1
 226 -10 l 1,10,11
 199 -8 199 -8 172 1 c 128,-1,12
 145 10 145 10 123 27 c 0,13,14
 80 60 80 60 67.5 109 c 128,-1,15
 55 158 55 158 53 208 c 0,16,17
 53 313 53 313 91 394 c 128,-1,18
 129 475 129 475 197.5 521 c 128,-1,19
 266 567 266 567 357 567 c 0,20,21
 394 567 394 567 431.5 557 c 128,-1,22
 469 547 469 547 494.5 532 c 128,-1,23
 520 517 520 517 520 502 c 0,24,25
 520 497 520 497 517 489 c 2,26,-1
 511 473 l 2,27,28
 507 464 507 464 502 464 c 0,29,30
 500 464 500 464 497 466 c 128,-1,31
 494 468 494 468 477 481 c 0,32,33
 455 498 455 498 421 508.5 c 128,-1,34
 387 519 387 519 354 519 c 0,35,36
 280 519 280 519 223 479.5 c 128,-1,37
 166 440 166 440 134.5 370 c 128,-1,38
 103 300 103 300 103 206 c 0,39,40
 103 124 103 124 145 80 c 128,-1,41
 187 36 187 36 266 36 c 0,42,43
 367 36 367 36 440 118 c 0,44,45
 446 125 446 125 452 125 c 0,46,47
 464 125 464 125 462 113 c 0,48,49
 462 100 462 100 450.5 80.5 c 128,-1,50
 439 61 439 61 419 44 c 0,51,52
 388 18 388 18 350 4.5 c 128,-1,53
 312 -9 312 -9 272 -11 c 1,0,-1
EndSplineSet
EndChar

StartChar: Egrave
Encoding: 200 200 133
Width: 404
GlyphClass: 1
Flags: W
LayerCount: 2
Fore
SplineSet
331 625 m 2,0,1
 332 624 332 624 332 623 c 0,2,3
 332 619 332 619 328 619 c 2,4,-1
 295 619 l 2,5,6
 283 619 283 619 273 629 c 2,7,-1
 211 685 l 2,8,9
 210 685 210 685 210 687 c 0,10,11
 210 691 210 691 215 691 c 2,12,-1
 260 691 l 2,13,14
 270 691 270 691 279 682 c 2,15,-1
 331 625 l 2,0,1
85 47 m 1,16,-1
 303 47 l 2,17,18
 329 47 329 47 329 26 c 0,19,20
 329 20 329 20 328 18 c 2,21,-1
 326 7 l 2,22,23
 326 0 326 0 317 0 c 2,24,-1
 31 0 l 2,25,26
 27 0 27 0 27 3 c 2,27,-1
 27 6 l 1,28,-1
 123 549 l 2,29,30
 124 556 124 556 129 556 c 2,31,-1
 383 556 l 2,32,33
 409 556 409 556 409 535 c 0,34,35
 409 533 409 533 408.5 531 c 128,-1,36
 408 529 408 529 408 527 c 2,37,-1
 406 516 l 2,38,39
 405 509 405 509 397 509 c 2,40,-1
 166 509 l 1,41,-1
 129 298 l 1,42,-1
 320 298 l 2,43,44
 346 298 346 298 346 277 c 0,45,46
 346 276 346 276 345.5 273.5 c 128,-1,47
 345 271 345 271 345 269 c 2,48,-1
 343 257 l 2,49,50
 342 251 342 251 334 251 c 2,51,-1
 121 251 l 1,52,-1
 85 47 l 1,16,-1
EndSplineSet
EndChar

StartChar: Eacute
Encoding: 201 201 134
Width: 404
GlyphClass: 1
Flags: W
LayerCount: 2
Fore
SplineSet
224 625 m 2,0,-1
 292 682 l 2,1,2
 304 691 304 691 315 691 c 2,3,-1
 368 691 l 2,4,5
 372 691 372 691 372 688 c 256,6,7
 372 685 372 685 370 685 c 2,8,-1
 289 629 l 2,9,10
 275 619 275 619 262 619 c 2,11,-1
 226 619 l 2,12,13
 222 619 222 619 222 622 c 0,14,15
 222 624 222 624 224 625 c 2,0,-1
85 47 m 1,16,-1
 303 47 l 2,17,18
 329 47 329 47 329 26 c 0,19,20
 329 20 329 20 328 18 c 2,21,-1
 326 7 l 2,22,23
 326 0 326 0 317 0 c 2,24,-1
 31 0 l 2,25,26
 27 0 27 0 27 3 c 2,27,-1
 27 6 l 1,28,-1
 123 549 l 2,29,30
 124 556 124 556 129 556 c 2,31,-1
 383 556 l 2,32,33
 409 556 409 556 409 535 c 0,34,35
 409 533 409 533 408.5 531 c 128,-1,36
 408 529 408 529 408 527 c 2,37,-1
 406 516 l 2,38,39
 405 509 405 509 397 509 c 2,40,-1
 166 509 l 1,41,-1
 129 298 l 1,42,-1
 320 298 l 2,43,44
 346 298 346 298 346 277 c 0,45,46
 346 276 346 276 345.5 273.5 c 128,-1,47
 345 271 345 271 345 269 c 2,48,-1
 343 257 l 2,49,50
 342 251 342 251 334 251 c 2,51,-1
 121 251 l 1,52,-1
 85 47 l 1,16,-1
EndSplineSet
EndChar

StartChar: Ecircumflex
Encoding: 202 202 135
Width: 404
GlyphClass: 1
Flags: W
LayerCount: 2
Fore
SplineSet
290 664 m 1,0,-1
 246 629 l 2,1,2
 233 619 233 619 220 619 c 2,3,-1
 184 619 l 2,4,5
 180 619 180 619 180 622 c 0,6,7
 180 623 180 623 182 625 c 2,8,-1
 254 682 l 2,9,10
 266 691 266 691 277 691 c 2,11,-1
 306 691 l 2,12,13
 316 691 316 691 325 682 c 2,14,-1
 377 625 l 2,15,16
 378 624 378 624 378 623 c 0,17,18
 378 619 378 619 374 619 c 2,19,-1
 344 619 l 2,20,21
 330 619 330 619 321 629 c 2,22,-1
 290 664 l 1,0,-1
85 47 m 1,23,-1
 303 47 l 2,24,25
 329 47 329 47 329 26 c 0,26,27
 329 20 329 20 328 18 c 2,28,-1
 326 7 l 2,29,30
 326 0 326 0 317 0 c 2,31,-1
 31 0 l 2,32,33
 27 0 27 0 27 3 c 2,34,-1
 27 6 l 1,35,-1
 123 549 l 2,36,37
 124 556 124 556 129 556 c 2,38,-1
 383 556 l 2,39,40
 409 556 409 556 409 535 c 0,41,42
 409 533 409 533 408.5 531 c 128,-1,43
 408 529 408 529 408 527 c 2,44,-1
 406 516 l 2,45,46
 405 509 405 509 397 509 c 2,47,-1
 166 509 l 1,48,-1
 129 298 l 1,49,-1
 320 298 l 2,50,51
 346 298 346 298 346 277 c 0,52,53
 346 276 346 276 345.5 273.5 c 128,-1,54
 345 271 345 271 345 269 c 2,55,-1
 343 257 l 2,56,57
 342 251 342 251 334 251 c 2,58,-1
 121 251 l 1,59,-1
 85 47 l 1,23,-1
EndSplineSet
EndChar

StartChar: Edieresis
Encoding: 203 203 136
Width: 404
GlyphClass: 1
Flags: W
LayerCount: 2
Fore
SplineSet
192 642 m 0,0,1
 192 657 192 657 203 669 c 128,-1,2
 214 681 214 681 230 681 c 0,3,4
 242 681 242 681 251 673 c 128,-1,5
 260 665 260 665 260 653 c 0,6,7
 260 637 260 637 249.5 625.5 c 128,-1,8
 239 614 239 614 222 614 c 0,9,10
 211 614 211 614 201.5 622 c 128,-1,11
 192 630 192 630 192 642 c 0,0,1
305 642 m 0,12,13
 305 657 305 657 315.5 669 c 128,-1,14
 326 681 326 681 342 681 c 0,15,16
 354 681 354 681 363 673 c 128,-1,17
 372 665 372 665 372 653 c 0,18,19
 372 637 372 637 361.5 625.5 c 128,-1,20
 351 614 351 614 334 614 c 0,21,22
 323 614 323 614 314 622 c 128,-1,23
 305 630 305 630 305 642 c 0,12,13
85 47 m 1,24,-1
 303 47 l 2,25,26
 329 47 329 47 329 26 c 0,27,28
 329 20 329 20 328 18 c 2,29,-1
 326 7 l 2,30,31
 326 0 326 0 317 0 c 2,32,-1
 31 0 l 2,33,34
 27 0 27 0 27 3 c 2,35,-1
 27 6 l 1,36,-1
 123 549 l 2,37,38
 124 556 124 556 129 556 c 2,39,-1
 383 556 l 2,40,41
 409 556 409 556 409 535 c 0,42,43
 409 533 409 533 408.5 531 c 128,-1,44
 408 529 408 529 408 527 c 2,45,-1
 406 516 l 2,46,47
 405 509 405 509 397 509 c 2,48,-1
 166 509 l 1,49,-1
 129 298 l 1,50,-1
 320 298 l 2,51,52
 346 298 346 298 346 277 c 0,53,54
 346 276 346 276 345.5 273.5 c 128,-1,55
 345 271 345 271 345 269 c 2,56,-1
 343 257 l 2,57,58
 342 251 342 251 334 251 c 2,59,-1
 121 251 l 1,60,-1
 85 47 l 1,24,-1
EndSplineSet
EndChar

StartChar: Igrave
Encoding: 204 204 137
Width: 196
GlyphClass: 1
Flags: W
LayerCount: 2
Fore
SplineSet
229 625 m 2,0,1
 229 624 229 624 229.5 624 c 128,-1,2
 230 624 230 624 230 623 c 0,3,4
 230 619 230 619 225 619 c 2,5,-1
 193 619 l 2,6,7
 180 619 180 619 170 629 c 2,8,-1
 108 685 l 1,9,10
 108 685 108 685 107.5 685.5 c 128,-1,11
 107 686 107 686 107 687 c 0,12,13
 107 691 107 691 112 691 c 2,14,-1
 157 691 l 2,15,16
 167 691 167 691 176 682 c 2,17,-1
 229 625 l 2,0,1
31 0 m 2,18,19
 27 0 27 0 27 3 c 2,20,-1
 27 6 l 1,21,-1
 123 549 l 2,22,23
 124 556 124 556 129 556 c 2,24,-1
 134 556 l 2,25,26
 149 556 149 556 158 545 c 128,-1,27
 167 534 167 534 167 517 c 0,28,29
 167 513 167 513 166.5 510 c 128,-1,30
 166 507 166 507 166 504 c 2,31,-1
 78 6 l 2,32,33
 77 0 77 0 72 0 c 2,34,-1
 31 0 l 2,18,19
EndSplineSet
EndChar

StartChar: Iacute
Encoding: 205 205 138
Width: 196
GlyphClass: 1
Flags: W
LayerCount: 2
Fore
SplineSet
96 625 m 2,0,-1
 164 682 l 2,1,2
 176 691 176 691 187 691 c 2,3,-1
 240 691 l 2,4,5
 244 691 244 691 244 688 c 256,6,7
 244 685 244 685 242 685 c 2,8,-1
 161 629 l 2,9,10
 147 619 147 619 134 619 c 2,11,-1
 98 619 l 2,12,13
 94 619 94 619 94 622 c 0,14,15
 94 624 94 624 96 625 c 2,0,-1
31 0 m 2,16,17
 27 0 27 0 27 3 c 2,18,-1
 27 6 l 1,19,-1
 123 549 l 2,20,21
 124 556 124 556 129 556 c 2,22,-1
 134 556 l 2,23,24
 149 556 149 556 158 545 c 128,-1,25
 167 534 167 534 167 517 c 0,26,27
 167 513 167 513 166.5 510 c 128,-1,28
 166 507 166 507 166 504 c 2,29,-1
 78 6 l 2,30,31
 77 0 77 0 72 0 c 2,32,-1
 31 0 l 2,16,17
EndSplineSet
EndChar

StartChar: Icircumflex
Encoding: 206 206 139
Width: 196
GlyphClass: 1
Flags: W
LayerCount: 2
Fore
SplineSet
173 664 m 1,0,-1
 129 629 l 2,1,2
 116 619 116 619 103 619 c 2,3,-1
 67 619 l 2,4,5
 63 619 63 619 63 622 c 0,6,7
 63 623 63 623 65 625 c 2,8,-1
 137 682 l 2,9,10
 149 691 149 691 160 691 c 2,11,-1
 189 691 l 2,12,13
 199 691 199 691 208 682 c 2,14,-1
 261 625 l 2,15,16
 261 624 261 624 261.5 624 c 128,-1,17
 262 624 262 624 262 623 c 0,18,19
 262 619 262 619 257 619 c 2,20,-1
 227 619 l 2,21,22
 213 619 213 619 204 629 c 2,23,-1
 173 664 l 1,0,-1
31 0 m 2,24,25
 27 0 27 0 27 3 c 2,26,-1
 27 6 l 1,27,-1
 123 549 l 2,28,29
 124 556 124 556 129 556 c 2,30,-1
 134 556 l 2,31,32
 149 556 149 556 158 545 c 128,-1,33
 167 534 167 534 167 517 c 0,34,35
 167 513 167 513 166.5 510 c 128,-1,36
 166 507 166 507 166 504 c 2,37,-1
 78 6 l 2,38,39
 77 0 77 0 72 0 c 2,40,-1
 31 0 l 2,24,25
EndSplineSet
EndChar

StartChar: Idieresis
Encoding: 207 207 140
Width: 196
GlyphClass: 1
Flags: W
LayerCount: 2
Fore
SplineSet
76 642 m 0,0,1
 76 657 76 657 86.5 669 c 128,-1,2
 97 681 97 681 113 681 c 0,3,4
 125 681 125 681 134 673 c 128,-1,5
 143 665 143 665 143 653 c 0,6,7
 143 637 143 637 132.5 625.5 c 128,-1,8
 122 614 122 614 105 614 c 0,9,10
 94 614 94 614 85 622 c 128,-1,11
 76 630 76 630 76 642 c 0,0,1
188 642 m 0,12,13
 188 657 188 657 198.5 669 c 128,-1,14
 209 681 209 681 225 681 c 0,15,16
 237 681 237 681 246.5 673 c 128,-1,17
 256 665 256 665 256 653 c 0,18,19
 256 637 256 637 245 625.5 c 128,-1,20
 234 614 234 614 218 614 c 0,21,22
 206 614 206 614 197 622 c 128,-1,23
 188 630 188 630 188 642 c 0,12,13
31 0 m 2,24,25
 27 0 27 0 27 3 c 2,26,-1
 27 6 l 1,27,-1
 123 549 l 2,28,29
 124 556 124 556 129 556 c 2,30,-1
 134 556 l 2,31,32
 149 556 149 556 158 545 c 128,-1,33
 167 534 167 534 167 517 c 0,34,35
 167 513 167 513 166.5 510 c 128,-1,36
 166 507 166 507 166 504 c 2,37,-1
 78 6 l 2,38,39
 77 0 77 0 72 0 c 2,40,-1
 31 0 l 2,24,25
EndSplineSet
EndChar

StartChar: Eth
Encoding: 208 208 141
Width: 556
GlyphClass: 1
Flags: W
LayerCount: 2
Fore
SplineSet
75 258 m 1,0,-1
 18 258 l 2,1,2
 14 258 14 258 14 262 c 2,3,-1
 14 264 l 1,4,-1
 20 298 l 2,5,6
 22 304 22 304 26 304 c 2,7,-1
 83 304 l 1,8,-1
 126 549 l 2,9,10
 127 556 127 556 132 556 c 2,11,-1
 277 556 l 2,12,13
 396 556 396 556 452.5 502 c 128,-1,14
 509 448 509 448 509 336 c 0,15,16
 509 275 509 275 493.5 218.5 c 128,-1,17
 478 162 478 162 451 119 c 0,18,19
 412 59 412 59 344.5 29.5 c 128,-1,20
 277 0 277 0 190 0 c 2,21,-1
 34 0 l 2,22,23
 30 0 30 0 30 4 c 2,24,-1
 30 6 l 1,25,-1
 75 258 l 1,0,-1
125 258 m 1,26,-1
 88 47 l 1,27,-1
 197 47 l 2,28,29
 267 47 267 47 320 70 c 128,-1,30
 373 93 373 93 407 142 c 0,31,32
 432 177 432 177 445 231 c 128,-1,33
 458 285 458 285 458 343 c 0,34,35
 458 426 458 426 412.5 467 c 128,-1,36
 367 508 367 508 267 508 c 2,37,-1
 169 508 l 1,38,-1
 133 304 l 1,39,-1
 299 304 l 2,40,41
 325 304 325 304 325 283 c 0,42,43
 325 278 325 278 324 276 c 2,44,-1
 322 265 l 2,45,46
 321 258 321 258 313 258 c 2,47,-1
 125 258 l 1,26,-1
EndSplineSet
EndChar

StartChar: Ntilde
Encoding: 209 209 142
Width: 522
GlyphClass: 1
Flags: W
LayerCount: 2
Fore
SplineSet
231 619 m 2,0,1
 225 621 225 621 225 623 c 0,2,3
 225 645 225 645 243 664.5 c 128,-1,4
 261 684 261 684 283 684 c 0,5,6
 293 684 293 684 305.5 680.5 c 128,-1,7
 318 677 318 677 335 668 c 0,8,9
 360 657 360 657 368 657 c 0,10,11
 383 657 383 657 391 674 c 0,12,13
 394 680 394 680 400 680 c 2,14,-1
 427 680 l 2,15,16
 432 680 432 680 432 676 c 0,17,18
 434 655 434 655 414 636 c 128,-1,19
 394 617 394 617 369 617 c 0,20,21
 359 617 359 617 347 620.5 c 128,-1,22
 335 624 335 624 318 632 c 0,23,24
 305 640 305 640 298 642 c 128,-1,25
 291 644 291 644 285 644 c 0,26,27
 272 644 272 644 266 627 c 0,28,29
 263 619 263 619 257 619 c 2,30,-1
 231 619 l 2,0,1
367 80 m 1,31,-1
 450 549 l 2,32,33
 451 556 451 556 456 556 c 2,34,-1
 461 556 l 2,35,36
 476 556 476 556 484.5 545.5 c 128,-1,37
 493 535 493 535 493 518 c 0,38,39
 493 514 493 514 493 510.5 c 128,-1,40
 493 507 493 507 492 504 c 2,41,-1
 404 6 l 2,42,43
 403 0 403 0 398 0 c 2,44,-1
 364 0 l 2,45,46
 350 0 350 0 344 13 c 2,47,-1
 157 454 l 1,48,-1
 78 6 l 2,49,50
 77 0 77 0 72 0 c 2,51,-1
 31 0 l 2,52,53
 27 0 27 0 27 3 c 2,54,-1
 27 6 l 1,55,-1
 123 549 l 2,56,57
 124 556 124 556 129 556 c 2,58,-1
 134 556 l 2,59,60
 154 556 154 556 163 548.5 c 128,-1,61
 172 541 172 541 183 515 c 2,62,-1
 367 80 l 1,31,-1
EndSplineSet
EndChar

StartChar: Ograve
Encoding: 210 210 143
Width: 597
GlyphClass: 1
Flags: W
LayerCount: 2
Fore
SplineSet
427 625 m 2,0,1
 428 624 428 624 428 623 c 0,2,3
 428 619 428 619 424 619 c 2,4,-1
 392 619 l 2,5,6
 379 619 379 619 369 629 c 2,7,-1
 307 685 l 2,8,9
 306 685 306 685 306 687 c 0,10,11
 306 691 306 691 311 691 c 2,12,-1
 356 691 l 2,13,14
 366 691 366 691 375 682 c 2,15,-1
 427 625 l 2,0,1
263 -10 m 0,16,17
 166 -10 166 -10 109.5 48.5 c 128,-1,18
 53 107 53 107 52 204 c 0,19,20
 52 270 52 270 70 334.5 c 128,-1,21
 88 399 88 399 123.5 451.5 c 128,-1,22
 159 504 159 504 214 535.5 c 128,-1,23
 269 567 269 567 342 567 c 0,24,25
 437 567 437 567 493 508 c 128,-1,26
 549 449 549 449 550 351 c 0,27,28
 550 284 550 284 533 220 c 128,-1,29
 516 156 516 156 481 104 c 128,-1,30
 446 52 446 52 392 21 c 128,-1,31
 338 -10 338 -10 263 -10 c 0,16,17
267 37 m 0,32,33
 331 38 331 38 375.5 66 c 128,-1,34
 420 94 420 94 447.5 140.5 c 128,-1,35
 475 187 475 187 487 242.5 c 128,-1,36
 499 298 499 298 499 354 c 0,37,38
 499 418 499 418 474.5 454 c 128,-1,39
 450 490 450 490 413.5 505 c 128,-1,40
 377 520 377 520 338 520 c 0,41,42
 274 520 274 520 228.5 490 c 128,-1,43
 183 460 183 460 154.5 410.5 c 128,-1,44
 126 361 126 361 113.5 303.5 c 128,-1,45
 101 246 101 246 103 190 c 0,46,47
 106 131 106 131 131 97.5 c 128,-1,48
 156 64 156 64 192.5 50.5 c 128,-1,49
 229 37 229 37 267 37 c 0,32,33
EndSplineSet
EndChar

StartChar: Oacute
Encoding: 211 211 144
Width: 597
GlyphClass: 1
Flags: W
LayerCount: 2
Fore
SplineSet
296 625 m 2,0,-1
 364 682 l 2,1,2
 376 691 376 691 387 691 c 2,3,-1
 440 691 l 2,4,5
 444 691 444 691 444 688 c 0,6,7
 444 687 444 687 443.5 686 c 128,-1,8
 443 685 443 685 443 685 c 1,9,-1
 361 629 l 2,10,11
 347 619 347 619 334 619 c 2,12,-1
 298 619 l 2,13,14
 294 619 294 619 294 622 c 0,15,16
 294 623 294 623 296 625 c 2,0,-1
263 -10 m 0,17,18
 166 -10 166 -10 109.5 48.5 c 128,-1,19
 53 107 53 107 52 204 c 0,20,21
 52 270 52 270 70 334.5 c 128,-1,22
 88 399 88 399 123.5 451.5 c 128,-1,23
 159 504 159 504 214 535.5 c 128,-1,24
 269 567 269 567 342 567 c 0,25,26
 437 567 437 567 493 508 c 128,-1,27
 549 449 549 449 550 351 c 0,28,29
 550 284 550 284 533 220 c 128,-1,30
 516 156 516 156 481 104 c 128,-1,31
 446 52 446 52 392 21 c 128,-1,32
 338 -10 338 -10 263 -10 c 0,17,18
267 37 m 0,33,34
 331 38 331 38 375.5 66 c 128,-1,35
 420 94 420 94 447.5 140.5 c 128,-1,36
 475 187 475 187 487 242.5 c 128,-1,37
 499 298 499 298 499 354 c 0,38,39
 499 418 499 418 474.5 454 c 128,-1,40
 450 490 450 490 413.5 505 c 128,-1,41
 377 520 377 520 338 520 c 0,42,43
 274 520 274 520 228.5 490 c 128,-1,44
 183 460 183 460 154.5 410.5 c 128,-1,45
 126 361 126 361 113.5 303.5 c 128,-1,46
 101 246 101 246 103 190 c 0,47,48
 106 131 106 131 131 97.5 c 128,-1,49
 156 64 156 64 192.5 50.5 c 128,-1,50
 229 37 229 37 267 37 c 0,33,34
EndSplineSet
EndChar

StartChar: Ocircumflex
Encoding: 212 212 145
Width: 597
GlyphClass: 1
Flags: W
LayerCount: 2
Fore
SplineSet
371 664 m 1,0,-1
 327 629 l 2,1,2
 314 619 314 619 300 619 c 2,3,-1
 264 619 l 2,4,5
 260 619 260 619 260 622 c 0,6,7
 260 623 260 623 262 625 c 2,8,-1
 335 682 l 2,9,10
 347 691 347 691 357 691 c 2,11,-1
 386 691 l 2,12,13
 397 691 397 691 405 682 c 2,14,-1
 458 625 l 2,15,16
 459 624 459 624 459 623 c 0,17,18
 459 619 459 619 454 619 c 2,19,-1
 425 619 l 2,20,21
 410 619 410 619 401 629 c 2,22,-1
 371 664 l 1,0,-1
263 -10 m 0,23,24
 166 -10 166 -10 109.5 48.5 c 128,-1,25
 53 107 53 107 52 204 c 0,26,27
 52 270 52 270 70 334.5 c 128,-1,28
 88 399 88 399 123.5 451.5 c 128,-1,29
 159 504 159 504 214 535.5 c 128,-1,30
 269 567 269 567 342 567 c 0,31,32
 437 567 437 567 493 508 c 128,-1,33
 549 449 549 449 550 351 c 0,34,35
 550 284 550 284 533 220 c 128,-1,36
 516 156 516 156 481 104 c 128,-1,37
 446 52 446 52 392 21 c 128,-1,38
 338 -10 338 -10 263 -10 c 0,23,24
267 37 m 0,39,40
 331 38 331 38 375.5 66 c 128,-1,41
 420 94 420 94 447.5 140.5 c 128,-1,42
 475 187 475 187 487 242.5 c 128,-1,43
 499 298 499 298 499 354 c 0,44,45
 499 418 499 418 474.5 454 c 128,-1,46
 450 490 450 490 413.5 505 c 128,-1,47
 377 520 377 520 338 520 c 0,48,49
 274 520 274 520 228.5 490 c 128,-1,50
 183 460 183 460 154.5 410.5 c 128,-1,51
 126 361 126 361 113.5 303.5 c 128,-1,52
 101 246 101 246 103 190 c 0,53,54
 106 131 106 131 131 97.5 c 128,-1,55
 156 64 156 64 192.5 50.5 c 128,-1,56
 229 37 229 37 267 37 c 0,39,40
EndSplineSet
EndChar

StartChar: Otilde
Encoding: 213 213 146
Width: 597
GlyphClass: 1
Flags: W
LayerCount: 2
Fore
SplineSet
268 619 m 2,0,1
 263 620 263 620 263 623 c 0,2,3
 263 645 263 645 280.5 664.5 c 128,-1,4
 298 684 298 684 320 684 c 0,5,6
 330 684 330 684 342.5 680.5 c 128,-1,7
 355 677 355 677 373 668 c 0,8,9
 396 657 396 657 405 657 c 0,10,11
 420 657 420 657 428 674 c 0,12,13
 431 680 431 680 438 680 c 2,14,-1
 464 680 l 2,15,16
 469 680 469 680 469 676 c 0,17,18
 471 655 471 655 451 636 c 128,-1,19
 431 617 431 617 406 617 c 0,20,21
 396 617 396 617 384 620.5 c 128,-1,22
 372 624 372 624 355 632 c 0,23,24
 342 640 342 640 335 642 c 128,-1,25
 328 644 328 644 322 644 c 0,26,27
 310 644 310 644 303 627 c 0,28,29
 300 619 300 619 295 619 c 2,30,-1
 268 619 l 2,0,1
263 -10 m 0,31,32
 166 -10 166 -10 109.5 48.5 c 128,-1,33
 53 107 53 107 52 204 c 0,34,35
 52 270 52 270 70 334.5 c 128,-1,36
 88 399 88 399 123.5 451.5 c 128,-1,37
 159 504 159 504 214 535.5 c 128,-1,38
 269 567 269 567 342 567 c 0,39,40
 437 567 437 567 493 508 c 128,-1,41
 549 449 549 449 550 351 c 0,42,43
 550 284 550 284 533 220 c 128,-1,44
 516 156 516 156 481 104 c 128,-1,45
 446 52 446 52 392 21 c 128,-1,46
 338 -10 338 -10 263 -10 c 0,31,32
267 37 m 0,47,48
 331 38 331 38 375.5 66 c 128,-1,49
 420 94 420 94 447.5 140.5 c 128,-1,50
 475 187 475 187 487 242.5 c 128,-1,51
 499 298 499 298 499 354 c 0,52,53
 499 418 499 418 474.5 454 c 128,-1,54
 450 490 450 490 413.5 505 c 128,-1,55
 377 520 377 520 338 520 c 0,56,57
 274 520 274 520 228.5 490 c 128,-1,58
 183 460 183 460 154.5 410.5 c 128,-1,59
 126 361 126 361 113.5 303.5 c 128,-1,60
 101 246 101 246 103 190 c 0,61,62
 106 131 106 131 131 97.5 c 128,-1,63
 156 64 156 64 192.5 50.5 c 128,-1,64
 229 37 229 37 267 37 c 0,47,48
EndSplineSet
EndChar

StartChar: Odieresis
Encoding: 214 214 147
Width: 597
GlyphClass: 1
Flags: W
LayerCount: 2
Fore
SplineSet
276 642 m 0,0,1
 276 657 276 657 286.5 669 c 128,-1,2
 297 681 297 681 313 681 c 0,3,4
 325 681 325 681 334.5 673 c 128,-1,5
 344 665 344 665 344 653 c 0,6,7
 344 637 344 637 333 625.5 c 128,-1,8
 322 614 322 614 306 614 c 0,9,10
 294 614 294 614 285 622 c 128,-1,11
 276 630 276 630 276 642 c 0,0,1
388 642 m 0,12,13
 388 657 388 657 399 669 c 128,-1,14
 410 681 410 681 425 681 c 0,15,16
 437 681 437 681 446.5 673 c 128,-1,17
 456 665 456 665 456 653 c 0,18,19
 456 637 456 637 445 625.5 c 128,-1,20
 434 614 434 614 418 614 c 0,21,22
 406 614 406 614 397 622 c 128,-1,23
 388 630 388 630 388 642 c 0,12,13
263 -10 m 0,24,25
 166 -10 166 -10 109.5 48.5 c 128,-1,26
 53 107 53 107 52 204 c 0,27,28
 52 270 52 270 70 334.5 c 128,-1,29
 88 399 88 399 123.5 451.5 c 128,-1,30
 159 504 159 504 214 535.5 c 128,-1,31
 269 567 269 567 342 567 c 0,32,33
 437 567 437 567 493 508 c 128,-1,34
 549 449 549 449 550 351 c 0,35,36
 550 284 550 284 533 220 c 128,-1,37
 516 156 516 156 481 104 c 128,-1,38
 446 52 446 52 392 21 c 128,-1,39
 338 -10 338 -10 263 -10 c 0,24,25
267 37 m 0,40,41
 331 38 331 38 375.5 66 c 128,-1,42
 420 94 420 94 447.5 140.5 c 128,-1,43
 475 187 475 187 487 242.5 c 128,-1,44
 499 298 499 298 499 354 c 0,45,46
 499 418 499 418 474.5 454 c 128,-1,47
 450 490 450 490 413.5 505 c 128,-1,48
 377 520 377 520 338 520 c 0,49,50
 274 520 274 520 228.5 490 c 128,-1,51
 183 460 183 460 154.5 410.5 c 128,-1,52
 126 361 126 361 113.5 303.5 c 128,-1,53
 101 246 101 246 103 190 c 0,54,55
 106 131 106 131 131 97.5 c 128,-1,56
 156 64 156 64 192.5 50.5 c 128,-1,57
 229 37 229 37 267 37 c 0,40,41
EndSplineSet
EndChar

StartChar: multiply
Encoding: 215 215 148
Width: 384
GlyphClass: 1
Flags: W
LayerCount: 2
Fore
SplineSet
164 275 m 1,0,-1
 50 388 l 2,1,2
 46 393 46 393 49 396 c 0,3,4
 63 410 63 410 77 408.5 c 128,-1,5
 91 407 91 407 107 389 c 2,6,-1
 194 304 l 1,7,-1
 303 414 l 2,8,9
 307 418 307 418 311 414 c 2,10,-1
 333 392 l 2,11,12
 337 388 337 388 333 384 c 2,13,-1
 224 275 l 1,14,-1
 337 160 l 2,15,16
 342 156 342 156 338 152 c 0,17,18
 324 138 324 138 310 139.5 c 128,-1,19
 296 141 296 141 279 158 c 2,20,-1
 194 245 l 1,21,-1
 84 134 l 2,22,23
 80 130 80 130 76 134 c 2,24,-1
 54 156 l 2,25,26
 50 160 50 160 54 164 c 2,27,-1
 164 275 l 1,0,-1
EndSplineSet
EndChar

StartChar: Oslash
Encoding: 216 216 149
Width: 597
GlyphClass: 1
Flags: W
LayerCount: 2
Fore
SplineSet
263 -10 m 0,0,1
 166 -10 166 -10 109.5 48.5 c 128,-1,2
 53 107 53 107 52 204 c 0,3,4
 52 270 52 270 70 334.5 c 128,-1,5
 88 399 88 399 123.5 451.5 c 128,-1,6
 159 504 159 504 214 535.5 c 128,-1,7
 269 567 269 567 342 567 c 0,8,9
 437 567 437 567 493 508 c 128,-1,10
 549 449 549 449 550 351 c 0,11,12
 550 284 550 284 533 220 c 128,-1,13
 516 156 516 156 481 104 c 128,-1,14
 446 52 446 52 392 21 c 128,-1,15
 338 -10 338 -10 263 -10 c 0,0,1
445 487 m 1,16,17
 422 505 422 505 394.5 512 c 128,-1,18
 367 519 367 519 338 520 c 0,19,20
 274 520 274 520 228.5 490 c 128,-1,21
 183 460 183 460 154.5 410.5 c 128,-1,22
 126 361 126 361 113.5 303.5 c 128,-1,23
 101 246 101 246 103 190 c 0,24,25
 105 166 105 166 111 143 c 128,-1,26
 117 120 117 120 130 100 c 1,27,-1
 445 487 l 1,16,17
158 69 m 1,28,29
 182 51 182 51 210 44.5 c 128,-1,30
 238 38 238 38 267 37 c 0,31,32
 331 38 331 38 375.5 66 c 128,-1,33
 420 94 420 94 447.5 140.5 c 128,-1,34
 475 187 475 187 487 242.5 c 128,-1,35
 499 298 499 298 499 354 c 0,36,37
 498 381 498 381 492.5 407 c 128,-1,38
 487 433 487 433 472 457 c 1,39,-1
 158 69 l 1,28,29
EndSplineSet
EndChar

StartChar: Ugrave
Encoding: 217 217 150
Width: 516
GlyphClass: 1
Flags: W
LayerCount: 2
Fore
SplineSet
369 625 m 2,0,1
 370 624 370 624 370 623 c 0,2,3
 370 619 370 619 365 619 c 2,4,-1
 333 619 l 2,5,6
 321 619 321 619 310 629 c 2,7,-1
 248 685 l 1,8,-1
 248 687 l 2,9,10
 248 691 248 691 252 691 c 2,11,-1
 297 691 l 2,12,13
 307 691 307 691 316 682 c 2,14,-1
 369 625 l 2,0,1
433 184 m 2,15,16
 417 92 417 92 363 41 c 128,-1,17
 309 -10 309 -10 214 -10 c 0,18,19
 138 -10 138 -10 95 31 c 128,-1,20
 52 72 52 72 53 149 c 0,21,22
 53 178 53 178 59 208 c 2,23,-1
 119 549 l 2,24,25
 120 556 120 556 125 556 c 2,26,-1
 130 556 l 2,27,28
 145 556 145 556 154 545 c 128,-1,29
 163 534 163 534 163 517 c 0,30,31
 163 508 163 508 162 504 c 2,32,-1
 109 201 l 2,33,34
 106 187 106 187 105 172.5 c 128,-1,35
 104 158 104 158 104 145 c 0,36,37
 104 90 104 90 135 63.5 c 128,-1,38
 166 37 166 37 222 37 c 0,39,40
 291 37 291 37 332.5 80 c 128,-1,41
 374 123 374 123 387 202 c 2,42,-1
 448 549 l 2,43,44
 449 556 449 556 454 556 c 2,45,-1
 458 556 l 2,46,47
 473 556 473 556 482 545.5 c 128,-1,48
 491 535 491 535 491 517 c 0,49,50
 491 514 491 514 491 510.5 c 128,-1,51
 491 507 491 507 490 504 c 2,52,-1
 433 184 l 2,15,16
EndSplineSet
EndChar

StartChar: Uacute
Encoding: 218 218 151
Width: 516
GlyphClass: 1
Flags: W
LayerCount: 2
Fore
SplineSet
256 625 m 2,0,-1
 324 682 l 2,1,2
 336 691 336 691 347 691 c 2,3,-1
 400 691 l 2,4,5
 404 691 404 691 404 688 c 256,6,7
 404 685 404 685 402 685 c 2,8,-1
 321 629 l 2,9,10
 307 619 307 619 294 619 c 2,11,-1
 258 619 l 2,12,13
 254 619 254 619 254 622 c 0,14,15
 254 624 254 624 256 625 c 2,0,-1
433 184 m 2,16,17
 417 92 417 92 363 41 c 128,-1,18
 309 -10 309 -10 214 -10 c 0,19,20
 138 -10 138 -10 95 31 c 128,-1,21
 52 72 52 72 53 149 c 0,22,23
 53 178 53 178 59 208 c 2,24,-1
 119 549 l 2,25,26
 120 556 120 556 125 556 c 2,27,-1
 130 556 l 2,28,29
 145 556 145 556 154 545 c 128,-1,30
 163 534 163 534 163 517 c 0,31,32
 163 508 163 508 162 504 c 2,33,-1
 109 201 l 2,34,35
 106 187 106 187 105 172.5 c 128,-1,36
 104 158 104 158 104 145 c 0,37,38
 104 90 104 90 135 63.5 c 128,-1,39
 166 37 166 37 222 37 c 0,40,41
 291 37 291 37 332.5 80 c 128,-1,42
 374 123 374 123 387 202 c 2,43,-1
 448 549 l 2,44,45
 449 556 449 556 454 556 c 2,46,-1
 458 556 l 2,47,48
 473 556 473 556 482 545.5 c 128,-1,49
 491 535 491 535 491 517 c 0,50,51
 491 514 491 514 491 510.5 c 128,-1,52
 491 507 491 507 490 504 c 2,53,-1
 433 184 l 2,16,17
EndSplineSet
EndChar

StartChar: Ucircumflex
Encoding: 219 219 152
Width: 516
GlyphClass: 1
Flags: W
LayerCount: 2
Fore
SplineSet
333 664 m 1,0,-1
 289 629 l 2,1,2
 276 619 276 619 263 619 c 2,3,-1
 227 619 l 2,4,5
 223 619 223 619 223 622 c 0,6,7
 223 623 223 623 225 625 c 2,8,-1
 297 682 l 2,9,10
 309 691 309 691 320 691 c 2,11,-1
 349 691 l 2,12,13
 357 691 357 691 359.5 689.5 c 128,-1,14
 362 688 362 688 368 682 c 2,15,-1
 421 625 l 2,16,17
 422 624 422 624 422 623 c 0,18,19
 422 619 422 619 417 619 c 2,20,-1
 387 619 l 2,21,22
 373 619 373 619 364 629 c 2,23,-1
 333 664 l 1,0,-1
433 184 m 2,24,25
 417 92 417 92 363 41 c 128,-1,26
 309 -10 309 -10 214 -10 c 0,27,28
 138 -10 138 -10 95 31 c 128,-1,29
 52 72 52 72 53 149 c 0,30,31
 53 178 53 178 59 208 c 2,32,-1
 119 549 l 2,33,34
 120 556 120 556 125 556 c 2,35,-1
 130 556 l 2,36,37
 145 556 145 556 154 545 c 128,-1,38
 163 534 163 534 163 517 c 0,39,40
 163 508 163 508 162 504 c 2,41,-1
 109 201 l 2,42,43
 106 187 106 187 105 172.5 c 128,-1,44
 104 158 104 158 104 145 c 0,45,46
 104 90 104 90 135 63.5 c 128,-1,47
 166 37 166 37 222 37 c 0,48,49
 291 37 291 37 332.5 80 c 128,-1,50
 374 123 374 123 387 202 c 2,51,-1
 448 549 l 2,52,53
 449 556 449 556 454 556 c 2,54,-1
 458 556 l 2,55,56
 473 556 473 556 482 545.5 c 128,-1,57
 491 535 491 535 491 517 c 0,58,59
 491 514 491 514 491 510.5 c 128,-1,60
 491 507 491 507 490 504 c 2,61,-1
 433 184 l 2,24,25
EndSplineSet
EndChar

StartChar: Udieresis
Encoding: 220 220 153
Width: 516
GlyphClass: 1
Flags: W
LayerCount: 2
Fore
SplineSet
236 642 m 0,0,1
 236 657 236 657 246.5 669 c 128,-1,2
 257 681 257 681 273 681 c 0,3,4
 285 681 285 681 294 673 c 128,-1,5
 303 665 303 665 303 653 c 0,6,7
 303 637 303 637 292.5 625.5 c 128,-1,8
 282 614 282 614 265 614 c 0,9,10
 254 614 254 614 245 622 c 128,-1,11
 236 630 236 630 236 642 c 0,0,1
348 642 m 0,12,13
 348 657 348 657 358.5 669 c 128,-1,14
 369 681 369 681 385 681 c 0,15,16
 397 681 397 681 406.5 673 c 128,-1,17
 416 665 416 665 416 653 c 0,18,19
 416 637 416 637 405 625.5 c 128,-1,20
 394 614 394 614 378 614 c 0,21,22
 366 614 366 614 357 622 c 128,-1,23
 348 630 348 630 348 642 c 0,12,13
433 184 m 2,24,25
 417 92 417 92 363 41 c 128,-1,26
 309 -10 309 -10 214 -10 c 0,27,28
 138 -10 138 -10 95 31 c 128,-1,29
 52 72 52 72 53 149 c 0,30,31
 53 178 53 178 59 208 c 2,32,-1
 119 549 l 2,33,34
 120 556 120 556 125 556 c 2,35,-1
 130 556 l 2,36,37
 145 556 145 556 154 545 c 128,-1,38
 163 534 163 534 163 517 c 0,39,40
 163 508 163 508 162 504 c 2,41,-1
 109 201 l 2,42,43
 106 187 106 187 105 172.5 c 128,-1,44
 104 158 104 158 104 145 c 0,45,46
 104 90 104 90 135 63.5 c 128,-1,47
 166 37 166 37 222 37 c 0,48,49
 291 37 291 37 332.5 80 c 128,-1,50
 374 123 374 123 387 202 c 2,51,-1
 448 549 l 2,52,53
 449 556 449 556 454 556 c 2,54,-1
 458 556 l 2,55,56
 473 556 473 556 482 545.5 c 128,-1,57
 491 535 491 535 491 517 c 0,58,59
 491 514 491 514 491 510.5 c 128,-1,60
 491 507 491 507 490 504 c 2,61,-1
 433 184 l 2,24,25
EndSplineSet
EndChar

StartChar: Yacute
Encoding: 221 221 154
Width: 422
GlyphClass: 1
Flags: W
LayerCount: 2
Fore
SplineSet
216 625 m 2,0,-1
 284 682 l 2,1,2
 296 691 296 691 307 691 c 2,3,-1
 360 691 l 2,4,5
 364 691 364 691 364 688 c 256,6,7
 364 685 364 685 362 685 c 2,8,-1
 281 629 l 2,9,10
 267 619 267 619 254 619 c 2,11,-1
 218 619 l 2,12,13
 214 619 214 619 214 622 c 0,14,15
 214 624 214 624 216 625 c 2,0,-1
180 219 m 1,16,-1
 57 548 l 2,17,18
 56 549 56 549 56 550 c 128,-1,19
 56 551 56 551 56 551 c 2,20,21
 56 556 56 556 62 556 c 2,22,-1
 74 556 l 2,23,24
 92 556 92 556 103 546 c 128,-1,25
 114 536 114 536 123 513 c 2,26,-1
 212 274 l 1,27,-1
 407 543 l 2,28,29
 412 551 412 551 415.5 553.5 c 128,-1,30
 419 556 419 556 426 556 c 2,31,-1
 462 556 l 2,32,33
 469 556 469 556 469 552 c 0,34,35
 469 549 469 549 467 547 c 2,36,-1
 229 219 l 1,37,-1
 192 6 l 2,38,39
 191 0 191 0 186 0 c 2,40,-1
 146 0 l 2,41,42
 142 0 142 0 142 3 c 2,43,-1
 142 6 l 1,44,-1
 180 219 l 1,16,-1
EndSplineSet
EndChar

StartChar: Thorn
Encoding: 222 222 155
Width: 484
GlyphClass: 1
Flags: W
LayerCount: 2
Fore
SplineSet
156 451 m 1,0,-1
 295 451 l 2,1,2
 371 451 371 451 413 409 c 128,-1,3
 455 367 455 367 455 303 c 0,4,5
 455 243 455 243 426.5 199.5 c 128,-1,6
 398 156 398 156 349.5 133 c 128,-1,7
 301 110 301 110 242 110 c 2,8,-1
 96 110 l 1,9,-1
 85 52 l 1,10,-1
 77 6 l 2,11,12
 76 0 76 0 71 0 c 2,13,-1
 31 0 l 2,14,15
 27 0 27 0 27 4 c 2,16,-1
 27 6 l 1,17,-1
 123 549 l 2,18,19
 124 556 124 556 129 556 c 2,20,-1
 134 556 l 2,21,22
 166 556 166 556 166 517 c 0,23,24
 166 514 166 514 166 510.5 c 128,-1,25
 166 507 166 507 165 503 c 2,26,-1
 156 451 l 1,0,-1
104 157 m 1,27,-1
 248 157 l 2,28,29
 316 157 316 157 359 196 c 128,-1,30
 402 235 402 235 402 302 c 0,31,32
 402 348 402 348 373.5 375.5 c 128,-1,33
 345 403 345 403 295 403 c 2,34,-1
 147 403 l 1,35,-1
 104 157 l 1,27,-1
EndSplineSet
EndChar

StartChar: germandbls
Encoding: 223 223 156
Width: 439
GlyphClass: 1
Flags: W
LayerCount: 2
Fore
SplineSet
87 418 m 2,0,1
 101 495 101 495 147 531 c 128,-1,2
 193 567 193 567 263 567 c 0,3,4
 316 567 316 567 348.5 539.5 c 128,-1,5
 381 512 381 512 381 467 c 0,6,7
 381 439 381 439 364 415 c 128,-1,8
 347 391 347 391 306 352 c 0,9,10
 280 327 280 327 270.5 313 c 128,-1,11
 261 299 261 299 261 285 c 0,12,13
 261 268 261 268 272 252.5 c 128,-1,14
 283 237 283 237 309 217 c 0,15,16
 347 189 347 189 362.5 166 c 128,-1,17
 378 143 378 143 378 116 c 0,18,19
 378 81 378 81 360.5 52.5 c 128,-1,20
 343 24 343 24 312.5 7 c 128,-1,21
 282 -10 282 -10 243 -10 c 0,22,23
 189 -10 189 -10 159.5 13 c 128,-1,24
 130 36 130 36 130 67 c 0,25,26
 130 90 130 90 143 90 c 0,27,28
 146 90 146 90 148 88 c 128,-1,29
 150 86 150 86 157 75 c 0,30,31
 182 37 182 37 237 37 c 0,32,33
 277 37 277 37 301.5 57.5 c 128,-1,34
 326 78 326 78 326 110 c 0,35,36
 326 131 326 131 314.5 148 c 128,-1,37
 303 165 303 165 274 188 c 0,38,39
 241 214 241 214 226.5 235 c 128,-1,40
 212 256 212 256 212 278 c 256,41,42
 212 300 212 300 226 322 c 128,-1,43
 240 344 240 344 274 375 c 0,44,45
 305 404 305 404 317 423 c 128,-1,46
 329 442 329 442 329 461 c 0,47,48
 329 488 329 488 308.5 503.5 c 128,-1,49
 288 519 288 519 252 519 c 0,50,51
 207 519 207 519 175.5 489.5 c 128,-1,52
 144 460 144 460 135 409 c 2,53,-1
 64 6 l 2,54,55
 64 0 64 0 58 0 c 2,56,-1
 18 0 l 2,57,58
 14 0 14 0 14 4 c 2,59,-1
 14 6 l 1,60,-1
 87 418 l 2,0,1
EndSplineSet
EndChar

StartChar: agrave
Encoding: 224 224 157
Width: 454
GlyphClass: 1
Flags: W
LayerCount: 2
Fore
SplineSet
305 436 m 2,0,1
 306 435 306 435 306 435 c 129,-1,2
 306 435 306 435 306 435 c 1,3,4
 306 431 306 431 301 431 c 2,5,-1
 269 431 l 2,6,7
 256 431 256 431 246 440 c 2,8,-1
 184 496 l 1,9,-1
 184 498 l 2,10,11
 184 502 184 502 188 502 c 2,12,-1
 233 502 l 2,13,14
 243 502 243 502 252 493 c 2,15,-1
 305 436 l 2,0,1
307 57 m 1,16,17
 254 -9 254 -9 168 -9 c 0,18,19
 96 -9 96 -9 60.5 36 c 128,-1,20
 25 81 25 81 25 154 c 0,21,22
 25 217 25 217 49 265 c 128,-1,23
 73 313 73 313 117 340 c 128,-1,24
 161 367 161 367 221 367 c 0,25,26
 262 367 262 367 294.5 352.5 c 128,-1,27
 327 338 327 338 351 304 c 1,28,29
 362 360 362 360 401 360 c 2,30,-1
 406 360 l 2,31,32
 410 360 410 360 410 357 c 2,33,-1
 410 354 l 1,34,-1
 349 6 l 2,35,36
 348 0 348 0 343 0 c 2,37,-1
 302 0 l 2,38,39
 298 0 298 0 298 4 c 2,40,-1
 298 6 l 1,41,-1
 307 57 l 1,16,17
175 38 m 0,42,43
 222 38 222 38 257 61 c 128,-1,44
 292 84 292 84 312 124.5 c 128,-1,45
 332 165 332 165 332 217 c 0,46,47
 332 267 332 267 302 293.5 c 128,-1,48
 272 320 272 320 222 320 c 0,49,50
 154 320 154 320 115 272 c 128,-1,51
 76 224 76 224 76 150 c 0,52,53
 76 101 76 101 102.5 69.5 c 128,-1,54
 129 38 129 38 175 38 c 0,42,43
EndSplineSet
EndChar

StartChar: aacute
Encoding: 225 225 158
Width: 454
GlyphClass: 1
Flags: W
LayerCount: 2
Fore
SplineSet
182 436 m 2,0,-1
 250 493 l 2,1,2
 262 502 262 502 273 502 c 2,3,-1
 326 502 l 2,4,5
 330 502 330 502 330 499 c 0,6,7
 330 498 330 498 328 496 c 2,8,-1
 247 440 l 2,9,10
 234 431 234 431 220 431 c 2,11,-1
 184 431 l 2,12,13
 180 431 180 431 180 433 c 256,14,15
 180 435 180 435 182 436 c 2,0,-1
307 57 m 1,16,17
 254 -9 254 -9 168 -9 c 0,18,19
 96 -9 96 -9 60.5 36 c 128,-1,20
 25 81 25 81 25 154 c 0,21,22
 25 217 25 217 49 265 c 128,-1,23
 73 313 73 313 117 340 c 128,-1,24
 161 367 161 367 221 367 c 0,25,26
 262 367 262 367 294.5 352.5 c 128,-1,27
 327 338 327 338 351 304 c 1,28,29
 362 360 362 360 401 360 c 2,30,-1
 406 360 l 2,31,32
 410 360 410 360 410 357 c 2,33,-1
 410 354 l 1,34,-1
 349 6 l 2,35,36
 348 0 348 0 343 0 c 2,37,-1
 302 0 l 2,38,39
 298 0 298 0 298 4 c 2,40,-1
 298 6 l 1,41,-1
 307 57 l 1,16,17
175 38 m 0,42,43
 222 38 222 38 257 61 c 128,-1,44
 292 84 292 84 312 124.5 c 128,-1,45
 332 165 332 165 332 217 c 0,46,47
 332 267 332 267 302 293.5 c 128,-1,48
 272 320 272 320 222 320 c 0,49,50
 154 320 154 320 115 272 c 128,-1,51
 76 224 76 224 76 150 c 0,52,53
 76 101 76 101 102.5 69.5 c 128,-1,54
 129 38 129 38 175 38 c 0,42,43
EndSplineSet
EndChar

StartChar: acircumflex
Encoding: 226 226 159
Width: 454
GlyphClass: 1
Flags: W
LayerCount: 2
Fore
SplineSet
262 475 m 1,0,-1
 218 440 l 2,1,2
 206 431 206 431 192 431 c 2,3,-1
 156 431 l 2,4,5
 152 431 152 431 152 433 c 0,6,7
 152 434 152 434 154 436 c 2,8,-1
 226 493 l 2,9,10
 238 502 238 502 249 502 c 2,11,-1
 278 502 l 2,12,13
 288 502 288 502 297 493 c 2,14,-1
 349 436 l 2,15,16
 350 435 350 435 350 435 c 129,-1,17
 350 435 350 435 350 435 c 1,18,19
 350 431 350 431 346 431 c 2,20,-1
 316 431 l 2,21,22
 301 431 301 431 293 440 c 2,23,-1
 262 475 l 1,0,-1
307 57 m 1,24,25
 254 -9 254 -9 168 -9 c 0,26,27
 96 -9 96 -9 60.5 36 c 128,-1,28
 25 81 25 81 25 154 c 0,29,30
 25 217 25 217 49 265 c 128,-1,31
 73 313 73 313 117 340 c 128,-1,32
 161 367 161 367 221 367 c 0,33,34
 262 367 262 367 294.5 352.5 c 128,-1,35
 327 338 327 338 351 304 c 1,36,37
 362 360 362 360 401 360 c 2,38,-1
 406 360 l 2,39,40
 410 360 410 360 410 357 c 2,41,-1
 410 354 l 1,42,-1
 349 6 l 2,43,44
 348 0 348 0 343 0 c 2,45,-1
 302 0 l 2,46,47
 298 0 298 0 298 4 c 2,48,-1
 298 6 l 1,49,-1
 307 57 l 1,24,25
175 38 m 0,50,51
 222 38 222 38 257 61 c 128,-1,52
 292 84 292 84 312 124.5 c 128,-1,53
 332 165 332 165 332 217 c 0,54,55
 332 267 332 267 302 293.5 c 128,-1,56
 272 320 272 320 222 320 c 0,57,58
 154 320 154 320 115 272 c 128,-1,59
 76 224 76 224 76 150 c 0,60,61
 76 101 76 101 102.5 69.5 c 128,-1,62
 129 38 129 38 175 38 c 0,50,51
EndSplineSet
EndChar

StartChar: atilde
Encoding: 227 227 160
Width: 454
GlyphClass: 1
Flags: W
LayerCount: 2
Fore
SplineSet
160 431 m 2,0,1
 154 431 154 431 154 434 c 0,2,3
 154 456 154 456 172 475.5 c 128,-1,4
 190 495 190 495 211 495 c 0,5,6
 221 495 221 495 234 491.5 c 128,-1,7
 247 488 247 488 264 480 c 0,8,9
 288 468 288 468 297 468 c 0,10,11
 312 468 312 468 320 485 c 0,12,13
 323 491 323 491 329 491 c 2,14,-1
 356 491 l 2,15,16
 361 491 361 491 361 487 c 0,17,18
 363 467 363 467 343 447.5 c 128,-1,19
 323 428 323 428 298 428 c 0,20,21
 277 428 277 428 247 443 c 0,22,23
 233 451 233 451 226.5 453 c 128,-1,24
 220 455 220 455 214 455 c 0,25,26
 201 455 201 455 195 438 c 0,27,28
 193 431 193 431 186 431 c 2,29,-1
 160 431 l 2,0,1
307 57 m 1,30,31
 254 -9 254 -9 168 -9 c 0,32,33
 96 -9 96 -9 60.5 36 c 128,-1,34
 25 81 25 81 25 154 c 0,35,36
 25 217 25 217 49 265 c 128,-1,37
 73 313 73 313 117 340 c 128,-1,38
 161 367 161 367 221 367 c 0,39,40
 262 367 262 367 294.5 352.5 c 128,-1,41
 327 338 327 338 351 304 c 1,42,43
 362 360 362 360 401 360 c 2,44,-1
 406 360 l 2,45,46
 410 360 410 360 410 357 c 2,47,-1
 410 354 l 1,48,-1
 349 6 l 2,49,50
 348 0 348 0 343 0 c 2,51,-1
 302 0 l 2,52,53
 298 0 298 0 298 4 c 2,54,-1
 298 6 l 1,55,-1
 307 57 l 1,30,31
175 38 m 0,56,57
 222 38 222 38 257 61 c 128,-1,58
 292 84 292 84 312 124.5 c 128,-1,59
 332 165 332 165 332 217 c 0,60,61
 332 267 332 267 302 293.5 c 128,-1,62
 272 320 272 320 222 320 c 0,63,64
 154 320 154 320 115 272 c 128,-1,65
 76 224 76 224 76 150 c 0,66,67
 76 101 76 101 102.5 69.5 c 128,-1,68
 129 38 129 38 175 38 c 0,56,57
EndSplineSet
EndChar

StartChar: adieresis
Encoding: 228 228 161
Width: 454
GlyphClass: 1
Flags: W
LayerCount: 2
Fore
SplineSet
159 453 m 0,0,1
 159 468 159 468 169.5 480 c 128,-1,2
 180 492 180 492 196 492 c 0,3,4
 208 492 208 492 217.5 484 c 128,-1,5
 227 476 227 476 227 464 c 0,6,7
 226 448 226 448 215.5 437 c 128,-1,8
 205 426 205 426 188 426 c 0,9,10
 177 426 177 426 168 433.5 c 128,-1,11
 159 441 159 441 159 453 c 0,0,1
271 453 m 0,12,13
 271 468 271 468 281.5 480 c 128,-1,14
 292 492 292 492 308 492 c 0,15,16
 320 492 320 492 329.5 484 c 128,-1,17
 339 476 339 476 339 464 c 0,18,19
 339 448 339 448 328 437 c 128,-1,20
 317 426 317 426 301 426 c 0,21,22
 289 426 289 426 280 433.5 c 128,-1,23
 271 441 271 441 271 453 c 0,12,13
307 57 m 1,24,25
 254 -9 254 -9 168 -9 c 0,26,27
 96 -9 96 -9 60.5 36 c 128,-1,28
 25 81 25 81 25 154 c 0,29,30
 25 217 25 217 49 265 c 128,-1,31
 73 313 73 313 117 340 c 128,-1,32
 161 367 161 367 221 367 c 0,33,34
 262 367 262 367 294.5 352.5 c 128,-1,35
 327 338 327 338 351 304 c 1,36,37
 362 360 362 360 401 360 c 2,38,-1
 406 360 l 2,39,40
 410 360 410 360 410 357 c 2,41,-1
 410 354 l 1,42,-1
 349 6 l 2,43,44
 348 0 348 0 343 0 c 2,45,-1
 302 0 l 2,46,47
 298 0 298 0 298 4 c 2,48,-1
 298 6 l 1,49,-1
 307 57 l 1,24,25
175 38 m 0,50,51
 222 38 222 38 257 61 c 128,-1,52
 292 84 292 84 312 124.5 c 128,-1,53
 332 165 332 165 332 217 c 0,54,55
 332 267 332 267 302 293.5 c 128,-1,56
 272 320 272 320 222 320 c 0,57,58
 154 320 154 320 115 272 c 128,-1,59
 76 224 76 224 76 150 c 0,60,61
 76 101 76 101 102.5 69.5 c 128,-1,62
 129 38 129 38 175 38 c 0,50,51
EndSplineSet
EndChar

StartChar: aring
Encoding: 229 229 162
Width: 454
GlyphClass: 1
Flags: W
LayerCount: 2
Fore
SplineSet
190 478 m 0,0,1
 190 507 190 507 212.5 527.5 c 128,-1,2
 235 548 235 548 265 548 c 0,3,4
 288 548 288 548 305 531 c 128,-1,5
 322 514 322 514 322 491 c 0,6,7
 322 462 322 462 299.5 441.5 c 128,-1,8
 277 421 277 421 247 421 c 0,9,10
 224 421 224 421 207 438.5 c 128,-1,11
 190 456 190 456 190 478 c 0,0,1
250 450 m 0,12,13
 266 450 266 450 277.5 462.5 c 128,-1,14
 289 475 289 475 289 492 c 0,15,16
 289 519 289 519 262 519 c 0,17,18
 246 519 246 519 234.5 506.5 c 128,-1,19
 223 494 223 494 223 477 c 0,20,21
 223 450 223 450 250 450 c 0,12,13
307 57 m 1,22,23
 254 -9 254 -9 168 -9 c 0,24,25
 96 -9 96 -9 60.5 36 c 128,-1,26
 25 81 25 81 25 154 c 0,27,28
 25 217 25 217 49 265 c 128,-1,29
 73 313 73 313 117 340 c 128,-1,30
 161 367 161 367 221 367 c 0,31,32
 262 367 262 367 294.5 352.5 c 128,-1,33
 327 338 327 338 351 304 c 1,34,35
 362 360 362 360 401 360 c 2,36,-1
 406 360 l 2,37,38
 410 360 410 360 410 357 c 2,39,-1
 410 354 l 1,40,-1
 349 6 l 2,41,42
 348 0 348 0 343 0 c 2,43,-1
 302 0 l 2,44,45
 298 0 298 0 298 4 c 2,46,-1
 298 6 l 1,47,-1
 307 57 l 1,22,23
175 38 m 0,48,49
 222 38 222 38 257 61 c 128,-1,50
 292 84 292 84 312 124.5 c 128,-1,51
 332 165 332 165 332 217 c 0,52,53
 332 267 332 267 302 293.5 c 128,-1,54
 272 320 272 320 222 320 c 0,55,56
 154 320 154 320 115 272 c 128,-1,57
 76 224 76 224 76 150 c 0,58,59
 76 101 76 101 102.5 69.5 c 128,-1,60
 129 38 129 38 175 38 c 0,48,49
EndSplineSet
EndChar

StartChar: ae
Encoding: 230 230 163
Width: 712
GlyphClass: 1
Flags: W
LayerCount: 2
Fore
SplineSet
403 313 m 1,0,1
 424 341 424 341 457.5 353.5 c 128,-1,2
 491 366 491 366 524 367 c 0,3,4
 586 367 586 367 623 331 c 128,-1,5
 660 295 660 295 660 241 c 0,6,7
 660 227 660 227 657.5 207.5 c 128,-1,8
 655 188 655 188 652 176 c 0,9,10
 649 166 649 166 646 163 c 128,-1,11
 643 160 643 160 635 160 c 2,12,-1
 379 160 l 1,13,14
 376 146 376 146 378 134 c 0,15,16
 382 88 382 88 411 62.5 c 128,-1,17
 440 37 440 37 489 37 c 0,18,19
 524 37 524 37 557 50 c 128,-1,20
 590 63 590 63 612 85 c 0,21,22
 619 92 619 92 624 92 c 0,23,24
 630 92 630 92 630 83 c 0,25,26
 630 48 630 48 592 19.5 c 128,-1,27
 554 -9 554 -9 477 -9 c 0,28,29
 439 -7 439 -7 408 8 c 128,-1,30
 377 23 377 23 358 58 c 1,31,-1
 349 6 l 2,32,33
 348 0 348 0 343 0 c 2,34,-1
 302 0 l 2,35,36
 298 0 298 0 298 4 c 2,37,-1
 298 6 l 1,38,-1
 307 57 l 1,39,40
 254 -9 254 -9 168 -9 c 0,41,42
 96 -9 96 -9 60.5 36 c 128,-1,43
 25 81 25 81 25 154 c 0,44,45
 25 217 25 217 49 265 c 128,-1,46
 73 313 73 313 117 340 c 128,-1,47
 161 367 161 367 221 367 c 0,48,49
 262 367 262 367 295 353.5 c 128,-1,50
 328 340 328 340 352 305 c 1,51,52
 364 360 364 360 401 360 c 2,53,-1
 406 360 l 2,54,55
 410 360 410 360 410 357 c 2,56,-1
 410 354 l 1,57,-1
 403 313 l 1,0,1
386 203 m 1,58,-1
 606 203 l 1,59,60
 610 226 610 226 610 238 c 0,61,62
 610 275 610 275 587.5 298 c 128,-1,63
 565 321 565 321 520 321 c 0,64,65
 425 321 425 321 386 203 c 1,58,-1
175 38 m 0,66,67
 222 38 222 38 257 61 c 128,-1,68
 292 84 292 84 312 124.5 c 128,-1,69
 332 165 332 165 332 217 c 0,70,71
 332 267 332 267 302 293.5 c 128,-1,72
 272 320 272 320 222 320 c 0,73,74
 154 320 154 320 115 272 c 128,-1,75
 76 224 76 224 76 150 c 0,76,77
 76 101 76 101 102.5 69.5 c 128,-1,78
 129 38 129 38 175 38 c 0,66,67
EndSplineSet
EndChar

StartChar: ccedilla
Encoding: 231 231 164
Width: 362
GlyphClass: 1
Flags: W
LayerCount: 2
Fore
SplineSet
139 -7 m 1,0,1
 114 -2 114 -2 92 10.5 c 128,-1,2
 70 23 70 23 54 43 c 0,3,4
 38 64 38 64 31.5 88 c 128,-1,5
 25 112 25 112 24 137 c 0,6,7
 24 200 24 200 45 252.5 c 128,-1,8
 66 305 66 305 112 336 c 128,-1,9
 158 367 158 367 232 367 c 0,10,11
 275 367 275 367 307 355 c 128,-1,12
 339 343 339 343 339 326 c 0,13,14
 339 321 339 321 336 313 c 2,15,-1
 329 298 l 2,16,17
 327 292 327 292 323 292 c 0,18,19
 320 292 320 292 318 294 c 0,20,21
 297 307 297 307 276 313.5 c 128,-1,22
 255 320 255 320 230 320 c 0,23,24
 176 320 176 320 142 295 c 128,-1,25
 108 270 108 270 92 229.5 c 128,-1,26
 76 189 76 189 76 141 c 0,27,28
 76 95 76 95 103 66 c 128,-1,29
 130 37 130 37 182 37 c 0,30,31
 242 37 242 37 287 82 c 0,32,33
 294 89 294 89 299 89 c 0,34,35
 306 89 306 89 306 79 c 0,36,37
 304 51 304 51 284 32 c 128,-1,38
 264 13 264 13 237 3 c 128,-1,39
 210 -7 210 -7 185 -9 c 1,40,-1
 138 -77 l 2,41,42
 134 -82 134 -82 130 -84 c 128,-1,43
 126 -86 126 -86 116 -86 c 2,44,-1
 83 -86 l 2,45,46
 79 -86 79 -86 79 -84 c 256,47,48
 79 -82 79 -82 81 -80 c 2,49,-1
 139 -7 l 1,0,1
EndSplineSet
EndChar

StartChar: egrave
Encoding: 232 232 165
Width: 406
GlyphClass: 1
Flags: W
LayerCount: 2
Fore
SplineSet
298 436 m 2,0,1
 298 435 298 435 298.5 435 c 128,-1,2
 299 435 299 435 299 435 c 1,3,4
 299 431 299 431 294 431 c 2,5,-1
 262 431 l 2,6,7
 248 431 248 431 239 440 c 2,8,-1
 177 496 l 2,9,10
 177 497 177 497 176.5 497 c 128,-1,11
 176 497 176 497 176 498 c 0,12,13
 176 502 176 502 181 502 c 2,14,-1
 226 502 l 2,15,16
 236 502 236 502 245 493 c 2,17,-1
 298 436 l 2,0,1
76 160 m 1,18,19
 75 153 75 153 75 146 c 128,-1,20
 75 139 75 139 75 134 c 0,21,22
 79 88 79 88 108.5 62.5 c 128,-1,23
 138 37 138 37 186 37 c 0,24,25
 262 37 262 37 310 85 c 0,26,27
 316 92 316 92 322 92 c 256,28,29
 328 92 328 92 328 83 c 0,30,31
 328 48 328 48 289.5 19.5 c 128,-1,32
 251 -9 251 -9 174 -9 c 0,33,34
 130 -9 130 -9 96.5 10 c 128,-1,35
 63 29 63 29 44 61.5 c 128,-1,36
 25 94 25 94 25 134 c 0,37,38
 25 202 25 202 48 254.5 c 128,-1,39
 71 307 71 307 115 337 c 128,-1,40
 159 367 159 367 222 367 c 0,41,42
 283 367 283 367 320 331 c 128,-1,43
 357 295 357 295 357 241 c 0,44,45
 357 227 357 227 355 207.5 c 128,-1,46
 353 188 353 188 349 176 c 0,47,48
 347 166 347 166 343.5 163 c 128,-1,49
 340 160 340 160 332 160 c 2,50,-1
 76 160 l 1,18,19
84 203 m 1,51,-1
 303 203 l 1,52,53
 307 226 307 226 307 238 c 0,54,55
 307 275 307 275 284.5 298 c 128,-1,56
 262 321 262 321 217 321 c 0,57,58
 171 321 171 321 136 291.5 c 128,-1,59
 101 262 101 262 84 203 c 1,51,-1
EndSplineSet
EndChar

StartChar: eacute
Encoding: 233 233 166
Width: 406
GlyphClass: 1
Flags: W
LayerCount: 2
Fore
SplineSet
171 436 m 2,0,-1
 240 493 l 2,1,2
 252 502 252 502 262 502 c 2,3,-1
 316 502 l 2,4,5
 320 502 320 502 320 499 c 0,6,7
 320 498 320 498 318 496 c 2,8,-1
 237 440 l 2,9,10
 224 431 224 431 210 431 c 2,11,-1
 173 431 l 2,12,13
 169 431 169 431 169 433 c 0,14,15
 169 434 169 434 171 436 c 2,0,-1
76 160 m 1,16,17
 75 153 75 153 75 146 c 128,-1,18
 75 139 75 139 75 134 c 0,19,20
 79 88 79 88 108.5 62.5 c 128,-1,21
 138 37 138 37 186 37 c 0,22,23
 262 37 262 37 310 85 c 0,24,25
 316 92 316 92 322 92 c 256,26,27
 328 92 328 92 328 83 c 0,28,29
 328 48 328 48 289.5 19.5 c 128,-1,30
 251 -9 251 -9 174 -9 c 0,31,32
 130 -9 130 -9 96.5 10 c 128,-1,33
 63 29 63 29 44 61.5 c 128,-1,34
 25 94 25 94 25 134 c 0,35,36
 25 202 25 202 48 254.5 c 128,-1,37
 71 307 71 307 115 337 c 128,-1,38
 159 367 159 367 222 367 c 0,39,40
 283 367 283 367 320 331 c 128,-1,41
 357 295 357 295 357 241 c 0,42,43
 357 227 357 227 355 207.5 c 128,-1,44
 353 188 353 188 349 176 c 0,45,46
 347 166 347 166 343.5 163 c 128,-1,47
 340 160 340 160 332 160 c 2,48,-1
 76 160 l 1,16,17
84 203 m 1,49,-1
 303 203 l 1,50,51
 307 226 307 226 307 238 c 0,52,53
 307 275 307 275 284.5 298 c 128,-1,54
 262 321 262 321 217 321 c 0,55,56
 171 321 171 321 136 291.5 c 128,-1,57
 101 262 101 262 84 203 c 1,49,-1
EndSplineSet
EndChar

StartChar: ecircumflex
Encoding: 234 234 167
Width: 406
GlyphClass: 1
Flags: W
LayerCount: 2
Fore
SplineSet
251 475 m 1,0,-1
 207 440 l 2,1,2
 195 431 195 431 180 431 c 2,3,-1
 144 431 l 2,4,5
 140 431 140 431 140 433 c 0,6,7
 140 434 140 434 142 436 c 2,8,-1
 215 493 l 2,9,10
 227 502 227 502 237 502 c 2,11,-1
 266 502 l 2,12,13
 277 502 277 502 285 493 c 2,14,-1
 338 436 l 2,15,16
 339 435 339 435 339 435 c 129,-1,17
 339 435 339 435 339 435 c 1,18,19
 339 431 339 431 334 431 c 2,20,-1
 304 431 l 2,21,22
 289 431 289 431 281 440 c 2,23,-1
 251 475 l 1,0,-1
76 160 m 1,24,25
 75 153 75 153 75 146 c 128,-1,26
 75 139 75 139 75 134 c 0,27,28
 79 88 79 88 108.5 62.5 c 128,-1,29
 138 37 138 37 186 37 c 0,30,31
 262 37 262 37 310 85 c 0,32,33
 316 92 316 92 322 92 c 256,34,35
 328 92 328 92 328 83 c 0,36,37
 328 48 328 48 289.5 19.5 c 128,-1,38
 251 -9 251 -9 174 -9 c 0,39,40
 130 -9 130 -9 96.5 10 c 128,-1,41
 63 29 63 29 44 61.5 c 128,-1,42
 25 94 25 94 25 134 c 0,43,44
 25 202 25 202 48 254.5 c 128,-1,45
 71 307 71 307 115 337 c 128,-1,46
 159 367 159 367 222 367 c 0,47,48
 283 367 283 367 320 331 c 128,-1,49
 357 295 357 295 357 241 c 0,50,51
 357 227 357 227 355 207.5 c 128,-1,52
 353 188 353 188 349 176 c 0,53,54
 347 166 347 166 343.5 163 c 128,-1,55
 340 160 340 160 332 160 c 2,56,-1
 76 160 l 1,24,25
84 203 m 1,57,-1
 303 203 l 1,58,59
 307 226 307 226 307 238 c 0,60,61
 307 275 307 275 284.5 298 c 128,-1,62
 262 321 262 321 217 321 c 0,63,64
 171 321 171 321 136 291.5 c 128,-1,65
 101 262 101 262 84 203 c 1,57,-1
EndSplineSet
EndChar

StartChar: edieresis
Encoding: 235 235 168
Width: 406
GlyphClass: 1
Flags: W
LayerCount: 2
Fore
SplineSet
151 453 m 0,0,1
 151 468 151 468 162 480 c 128,-1,2
 173 492 173 492 189 492 c 0,3,4
 201 492 201 492 210 484 c 128,-1,5
 219 476 219 476 219 464 c 0,6,7
 219 448 219 448 208.5 437 c 128,-1,8
 198 426 198 426 181 426 c 0,9,10
 170 426 170 426 161 433.5 c 128,-1,11
 152 441 152 441 151 453 c 0,0,1
264 453 m 0,12,13
 264 468 264 468 274.5 480 c 128,-1,14
 285 492 285 492 301 492 c 0,15,16
 313 492 313 492 322 484 c 128,-1,17
 331 476 331 476 331 464 c 0,18,19
 331 448 331 448 320.5 437 c 128,-1,20
 310 426 310 426 293 426 c 0,21,22
 282 426 282 426 273 433.5 c 128,-1,23
 264 441 264 441 264 453 c 0,12,13
76 160 m 1,24,25
 75 153 75 153 75 146 c 128,-1,26
 75 139 75 139 75 134 c 0,27,28
 79 88 79 88 108.5 62.5 c 128,-1,29
 138 37 138 37 186 37 c 0,30,31
 262 37 262 37 310 85 c 0,32,33
 316 92 316 92 322 92 c 256,34,35
 328 92 328 92 328 83 c 0,36,37
 328 48 328 48 289.5 19.5 c 128,-1,38
 251 -9 251 -9 174 -9 c 0,39,40
 130 -9 130 -9 96.5 10 c 128,-1,41
 63 29 63 29 44 61.5 c 128,-1,42
 25 94 25 94 25 134 c 0,43,44
 25 202 25 202 48 254.5 c 128,-1,45
 71 307 71 307 115 337 c 128,-1,46
 159 367 159 367 222 367 c 0,47,48
 283 367 283 367 320 331 c 128,-1,49
 357 295 357 295 357 241 c 0,50,51
 357 227 357 227 355 207.5 c 128,-1,52
 353 188 353 188 349 176 c 0,53,54
 347 166 347 166 343.5 163 c 128,-1,55
 340 160 340 160 332 160 c 2,56,-1
 76 160 l 1,24,25
84 203 m 1,57,-1
 303 203 l 1,58,59
 307 226 307 226 307 238 c 0,60,61
 307 275 307 275 284.5 298 c 128,-1,62
 262 321 262 321 217 321 c 0,63,64
 171 321 171 321 136 291.5 c 128,-1,65
 101 262 101 262 84 203 c 1,57,-1
EndSplineSet
EndChar

StartChar: igrave
Encoding: 236 236 169
Width: 170
GlyphClass: 1
Flags: W
LayerCount: 2
Fore
SplineSet
182 436 m 2,0,1
 183 435 183 435 183 435 c 129,-1,2
 183 435 183 435 183 435 c 1,3,4
 183 431 183 431 178 431 c 2,5,-1
 146 431 l 2,6,7
 133 431 133 431 123 440 c 2,8,-1
 61 496 l 1,9,-1
 61 498 l 2,10,11
 61 502 61 502 65 502 c 2,12,-1
 110 502 l 2,13,14
 120 502 120 502 129 493 c 2,15,-1
 182 436 l 2,0,1
18 0 m 2,16,17
 14 0 14 0 14 4 c 2,18,-1
 14 6 l 1,19,-1
 76 354 l 2,20,21
 76 360 76 360 82 360 c 2,22,-1
 85 360 l 2,23,24
 100 360 100 360 109 349.5 c 128,-1,25
 118 339 118 339 118 322 c 0,26,27
 118 318 118 318 118 315 c 128,-1,28
 118 312 118 312 117 308 c 2,29,-1
 64 6 l 2,30,31
 63 0 63 0 58 0 c 2,32,-1
 18 0 l 2,16,17
EndSplineSet
EndChar

StartChar: iacute
Encoding: 237 237 170
Width: 170
GlyphClass: 1
Flags: W
LayerCount: 2
Fore
SplineSet
49 436 m 2,0,-1
 117 493 l 2,1,2
 129 502 129 502 140 502 c 2,3,-1
 193 502 l 2,4,5
 197 502 197 502 197 499 c 0,6,7
 197 498 197 498 196.5 497.5 c 128,-1,8
 196 497 196 497 196 496 c 2,9,-1
 114 440 l 2,10,11
 101 431 101 431 88 431 c 2,12,-1
 51 431 l 2,13,14
 47 431 47 431 47 433 c 0,15,16
 47 434 47 434 49 436 c 2,0,-1
18 0 m 2,17,18
 14 0 14 0 14 4 c 2,19,-1
 14 6 l 1,20,-1
 76 354 l 2,21,22
 76 360 76 360 82 360 c 2,23,-1
 85 360 l 2,24,25
 100 360 100 360 109 349.5 c 128,-1,26
 118 339 118 339 118 322 c 0,27,28
 118 318 118 318 118 315 c 128,-1,29
 118 312 118 312 117 308 c 2,30,-1
 64 6 l 2,31,32
 63 0 63 0 58 0 c 2,33,-1
 18 0 l 2,17,18
EndSplineSet
EndChar

StartChar: icircumflex
Encoding: 238 238 171
Width: 170
GlyphClass: 1
Flags: W
LayerCount: 2
Fore
SplineSet
125 475 m 1,0,-1
 81 440 l 2,1,2
 69 431 69 431 55 431 c 2,3,-1
 19 431 l 2,4,5
 15 431 15 431 15 433 c 0,6,7
 15 434 15 434 17 436 c 2,8,-1
 89 493 l 2,9,10
 101 502 101 502 112 502 c 2,11,-1
 141 502 l 2,12,13
 151 502 151 502 160 493 c 2,14,-1
 212 436 l 2,15,16
 213 435 213 435 213.5 435 c 128,-1,17
 214 435 214 435 214 435 c 1,18,19
 214 431 214 431 209 431 c 2,20,-1
 179 431 l 2,21,22
 164 431 164 431 156 440 c 2,23,-1
 125 475 l 1,0,-1
18 0 m 2,24,25
 14 0 14 0 14 4 c 2,26,-1
 14 6 l 1,27,-1
 76 354 l 2,28,29
 76 360 76 360 82 360 c 2,30,-1
 85 360 l 2,31,32
 100 360 100 360 109 349.5 c 128,-1,33
 118 339 118 339 118 322 c 0,34,35
 118 318 118 318 118 315 c 128,-1,36
 118 312 118 312 117 308 c 2,37,-1
 64 6 l 2,38,39
 63 0 63 0 58 0 c 2,40,-1
 18 0 l 2,24,25
EndSplineSet
EndChar

StartChar: idieresis
Encoding: 239 239 172
Width: 170
GlyphClass: 1
Flags: W
LayerCount: 2
Fore
SplineSet
29 453 m 0,0,1
 29 468 29 468 39.5 480 c 128,-1,2
 50 492 50 492 66 492 c 0,3,4
 78 492 78 492 87.5 484 c 128,-1,5
 97 476 97 476 97 464 c 0,6,7
 97 448 97 448 86 437 c 128,-1,8
 75 426 75 426 59 426 c 0,9,10
 47 426 47 426 38 433.5 c 128,-1,11
 29 441 29 441 29 453 c 0,0,1
141 453 m 0,12,13
 141 468 141 468 152 480 c 128,-1,14
 163 492 163 492 178 492 c 0,15,16
 191 492 191 492 200 484 c 128,-1,17
 209 476 209 476 209 464 c 0,18,19
 209 448 209 448 198 437 c 128,-1,20
 187 426 187 426 171 426 c 0,21,22
 159 426 159 426 150 433.5 c 128,-1,23
 141 441 141 441 141 453 c 0,12,13
18 0 m 2,24,25
 14 0 14 0 14 4 c 2,26,-1
 14 6 l 1,27,-1
 76 354 l 2,28,29
 76 360 76 360 82 360 c 2,30,-1
 85 360 l 2,31,32
 100 360 100 360 109 349.5 c 128,-1,33
 118 339 118 339 118 322 c 0,34,35
 118 318 118 318 118 315 c 128,-1,36
 118 312 118 312 117 308 c 2,37,-1
 64 6 l 2,38,39
 63 0 63 0 58 0 c 2,40,-1
 18 0 l 2,24,25
EndSplineSet
EndChar

StartChar: eth
Encoding: 240 240 173
Width: 443
GlyphClass: 1
Flags: W
LayerCount: 2
Fore
SplineSet
210 483 m 1,0,-1
 172 549 l 1,1,-1
 172 551 l 2,2,3
 172 556 172 556 178 556 c 2,4,-1
 197 556 l 2,5,6
 230 556 230 556 247 523 c 2,7,-1
 257 506 l 1,8,-1
 318 534 l 2,9,10
 319 535 319 535 321 535 c 256,11,12
 323 535 323 535 323 532 c 2,13,-1
 337 507 l 2,14,15
 338 505 338 505 338 503 c 256,16,17
 338 501 338 501 334 498 c 2,18,-1
 276 469 l 1,19,-1
 364 307 l 2,20,21
 392 259 392 259 392 205 c 0,22,23
 390 146 390 146 364 97 c 128,-1,24
 338 48 338 48 292 19.5 c 128,-1,25
 246 -9 246 -9 183 -9 c 0,26,27
 116 -9 116 -9 73.5 32.5 c 128,-1,28
 31 74 31 74 30 140 c 0,29,30
 29 201 29 201 54 252.5 c 128,-1,31
 79 304 79 304 126 335.5 c 128,-1,32
 173 367 173 367 236 367 c 0,33,34
 247 366 247 366 258 365 c 128,-1,35
 269 364 269 364 280 362 c 1,36,-1
 230 448 l 1,37,-1
 154 413 l 1,38,39
 154 413 154 413 153.5 412.5 c 128,-1,40
 153 412 153 412 152 412 c 0,41,42
 149 412 149 412 148 416 c 2,43,-1
 134 442 l 2,44,45
 134 443 134 443 133.5 443.5 c 128,-1,46
 133 444 133 444 133 445 c 0,47,48
 134 448 134 448 138 449 c 2,49,-1
 210 483 l 1,0,-1
184 38 m 0,50,51
 232 38 232 38 267.5 63 c 128,-1,52
 303 88 303 88 322 127.5 c 128,-1,53
 341 167 341 167 340 212 c 0,54,55
 340 262 340 262 311 291 c 128,-1,56
 282 320 282 320 234 320 c 256,57,58
 186 320 186 320 151 293 c 128,-1,59
 116 266 116 266 98 224.5 c 128,-1,60
 80 183 80 183 81 138 c 0,61,62
 83 92 83 92 110.5 65 c 128,-1,63
 138 38 138 38 184 38 c 0,50,51
EndSplineSet
EndChar

StartChar: ntilde
Encoding: 241 241 174
Width: 439
GlyphClass: 1
Flags: W
LayerCount: 2
Fore
SplineSet
156 431 m 2,0,1
 151 431 151 431 151 434 c 0,2,3
 151 456 151 456 168.5 475.5 c 128,-1,4
 186 495 186 495 208 495 c 0,5,6
 218 495 218 495 230.5 491.5 c 128,-1,7
 243 488 243 488 261 480 c 0,8,9
 284 468 284 468 293 468 c 0,10,11
 308 468 308 468 316 485 c 0,12,13
 319 491 319 491 326 491 c 2,14,-1
 352 491 l 2,15,16
 357 491 357 491 358 487 c 0,17,18
 359 467 359 467 339 447.5 c 128,-1,19
 319 428 319 428 294 428 c 0,20,21
 284 428 284 428 272 431.5 c 128,-1,22
 260 435 260 435 243 443 c 0,23,24
 230 451 230 451 223 453 c 128,-1,25
 216 455 216 455 210 455 c 0,26,27
 198 455 198 455 191 438 c 0,28,29
 189 431 189 431 183 431 c 2,30,-1
 156 431 l 2,0,1
119 307 m 1,31,32
 165 367 165 367 250 367 c 0,33,34
 307 367 307 367 341 334.5 c 128,-1,35
 375 302 375 302 375 247 c 0,36,37
 375 231 375 231 372 214 c 2,38,-1
 335 6 l 2,39,40
 335 0 335 0 329 0 c 2,41,-1
 289 0 l 2,42,43
 285 0 285 0 285 4 c 2,44,-1
 285 6 l 1,45,-1
 319 200 l 2,46,47
 322 217 322 217 322 234 c 0,48,49
 322 276 322 276 301.5 298 c 128,-1,50
 281 320 281 320 232 320 c 0,51,52
 178 320 178 320 143 287 c 128,-1,53
 108 254 108 254 97 193 c 2,54,-1
 64 6 l 2,55,56
 63 0 63 0 58 0 c 2,57,-1
 18 0 l 2,58,59
 14 0 14 0 14 4 c 2,60,-1
 14 6 l 1,61,-1
 76 354 l 2,62,63
 76 360 76 360 82 360 c 2,64,-1
 87 360 l 2,65,66
 101 360 101 360 110.5 349 c 128,-1,67
 120 338 120 338 120 321 c 0,68,69
 120 319 120 319 119.5 315.5 c 128,-1,70
 119 312 119 312 119 307 c 1,31,32
EndSplineSet
EndChar

StartChar: ograve
Encoding: 242 242 175
Width: 443
GlyphClass: 1
Flags: W
LayerCount: 2
Fore
SplineSet
315 436 m 2,0,1
 316 435 316 435 316 435 c 129,-1,2
 316 435 316 435 316 435 c 1,3,4
 316 431 316 431 311 431 c 2,5,-1
 279 431 l 2,6,7
 266 431 266 431 256 440 c 2,8,-1
 194 496 l 2,9,10
 194 498 194 498 194 498 c 2,11,12
 192 502 192 502 198 502 c 2,13,-1
 243 502 l 2,14,15
 253 502 253 502 262 493 c 2,16,-1
 315 436 l 2,0,1
189 -9 m 0,17,18
 144 -9 144 -9 108 10 c 128,-1,19
 72 29 72 29 51.5 62.5 c 128,-1,20
 31 96 31 96 30 140 c 0,21,22
 29 201 29 201 52.5 252.5 c 128,-1,23
 76 304 76 304 121.5 335.5 c 128,-1,24
 167 367 167 367 230 367 c 0,25,26
 279 367 279 367 316 346 c 128,-1,27
 353 325 353 325 373.5 288.5 c 128,-1,28
 394 252 394 252 392 205 c 0,29,30
 390 146 390 146 365.5 97 c 128,-1,31
 341 48 341 48 296.5 19.5 c 128,-1,32
 252 -9 252 -9 189 -9 c 0,17,18
190 38 m 0,33,34
 238 38 238 38 272 63 c 128,-1,35
 306 88 306 88 323.5 127.5 c 128,-1,36
 341 167 341 167 340 212 c 0,37,38
 340 262 340 262 308 291 c 128,-1,39
 276 320 276 320 228 320 c 256,40,41
 180 320 180 320 146.5 293 c 128,-1,42
 113 266 113 266 96.5 224.5 c 128,-1,43
 80 183 80 183 81 138 c 0,44,45
 83 92 83 92 113.5 65 c 128,-1,46
 144 38 144 38 190 38 c 0,33,34
EndSplineSet
EndChar

StartChar: oacute
Encoding: 243 243 176
Width: 443
GlyphClass: 1
Flags: W
LayerCount: 2
Fore
SplineSet
186 436 m 2,0,-1
 254 493 l 2,1,2
 266 502 266 502 277 502 c 2,3,-1
 330 502 l 2,4,5
 334 502 334 502 334 499 c 0,6,7
 334 498 334 498 333.5 497.5 c 128,-1,8
 333 497 333 497 333 496 c 2,9,-1
 251 440 l 2,10,11
 238 431 238 431 224 431 c 2,12,-1
 188 431 l 2,13,14
 184 431 184 431 184 433 c 0,15,16
 184 434 184 434 186 436 c 2,0,-1
189 -9 m 0,17,18
 144 -9 144 -9 108 10 c 128,-1,19
 72 29 72 29 51.5 62.5 c 128,-1,20
 31 96 31 96 30 140 c 0,21,22
 29 201 29 201 52.5 252.5 c 128,-1,23
 76 304 76 304 121.5 335.5 c 128,-1,24
 167 367 167 367 230 367 c 0,25,26
 279 367 279 367 316 346 c 128,-1,27
 353 325 353 325 373.5 288.5 c 128,-1,28
 394 252 394 252 392 205 c 0,29,30
 390 146 390 146 365.5 97 c 128,-1,31
 341 48 341 48 296.5 19.5 c 128,-1,32
 252 -9 252 -9 189 -9 c 0,17,18
190 38 m 0,33,34
 238 38 238 38 272 63 c 128,-1,35
 306 88 306 88 323.5 127.5 c 128,-1,36
 341 167 341 167 340 212 c 0,37,38
 340 262 340 262 308 291 c 128,-1,39
 276 320 276 320 228 320 c 256,40,41
 180 320 180 320 146.5 293 c 128,-1,42
 113 266 113 266 96.5 224.5 c 128,-1,43
 80 183 80 183 81 138 c 0,44,45
 83 92 83 92 113.5 65 c 128,-1,46
 144 38 144 38 190 38 c 0,33,34
EndSplineSet
EndChar

StartChar: ocircumflex
Encoding: 244 244 177
Width: 443
GlyphClass: 1
Flags: W
LayerCount: 2
Fore
SplineSet
263 475 m 1,0,-1
 220 440 l 2,1,2
 208 431 208 431 193 431 c 2,3,-1
 157 431 l 2,4,5
 153 431 153 431 153 433 c 0,6,7
 153 434 153 434 155 436 c 2,8,-1
 227 493 l 2,9,10
 240 502 240 502 250 502 c 2,11,-1
 279 502 l 2,12,13
 290 502 290 502 298 493 c 2,14,-1
 351 436 l 2,15,16
 352 435 352 435 352 435 c 129,-1,17
 352 435 352 435 352 435 c 1,18,19
 352 431 352 431 347 431 c 2,20,-1
 317 431 l 2,21,22
 302 431 302 431 294 440 c 2,23,-1
 263 475 l 1,0,-1
189 -9 m 0,24,25
 144 -9 144 -9 108 10 c 128,-1,26
 72 29 72 29 51.5 62.5 c 128,-1,27
 31 96 31 96 30 140 c 0,28,29
 29 201 29 201 52.5 252.5 c 128,-1,30
 76 304 76 304 121.5 335.5 c 128,-1,31
 167 367 167 367 230 367 c 0,32,33
 279 367 279 367 316 346 c 128,-1,34
 353 325 353 325 373.5 288.5 c 128,-1,35
 394 252 394 252 392 205 c 0,36,37
 390 146 390 146 365.5 97 c 128,-1,38
 341 48 341 48 296.5 19.5 c 128,-1,39
 252 -9 252 -9 189 -9 c 0,24,25
190 38 m 0,40,41
 238 38 238 38 272 63 c 128,-1,42
 306 88 306 88 323.5 127.5 c 128,-1,43
 341 167 341 167 340 212 c 0,44,45
 340 262 340 262 308 291 c 128,-1,46
 276 320 276 320 228 320 c 256,47,48
 180 320 180 320 146.5 293 c 128,-1,49
 113 266 113 266 96.5 224.5 c 128,-1,50
 80 183 80 183 81 138 c 0,51,52
 83 92 83 92 113.5 65 c 128,-1,53
 144 38 144 38 190 38 c 0,40,41
EndSplineSet
EndChar

StartChar: otilde
Encoding: 245 245 178
Width: 443
GlyphClass: 1
Flags: W
LayerCount: 2
Fore
SplineSet
158 431 m 2,0,1
 153 431 153 431 153 434 c 0,2,3
 153 456 153 456 170.5 475.5 c 128,-1,4
 188 495 188 495 210 495 c 0,5,6
 220 495 220 495 232.5 491.5 c 128,-1,7
 245 488 245 488 263 480 c 0,8,9
 286 468 286 468 295 468 c 0,10,11
 310 468 310 468 318 485 c 0,12,13
 321 491 321 491 328 491 c 2,14,-1
 354 491 l 2,15,16
 359 491 359 491 360 487 c 0,17,18
 361 467 361 467 341 447.5 c 128,-1,19
 321 428 321 428 296 428 c 0,20,21
 286 428 286 428 274 431.5 c 128,-1,22
 262 435 262 435 245 443 c 0,23,24
 232 451 232 451 225 453 c 128,-1,25
 218 455 218 455 212 455 c 0,26,27
 200 455 200 455 193 438 c 0,28,29
 191 431 191 431 185 431 c 2,30,-1
 158 431 l 2,0,1
189 -9 m 0,31,32
 144 -9 144 -9 108 10 c 128,-1,33
 72 29 72 29 51.5 62.5 c 128,-1,34
 31 96 31 96 30 140 c 0,35,36
 29 201 29 201 52.5 252.5 c 128,-1,37
 76 304 76 304 121.5 335.5 c 128,-1,38
 167 367 167 367 230 367 c 0,39,40
 279 367 279 367 316 346 c 128,-1,41
 353 325 353 325 373.5 288.5 c 128,-1,42
 394 252 394 252 392 205 c 0,43,44
 390 146 390 146 365.5 97 c 128,-1,45
 341 48 341 48 296.5 19.5 c 128,-1,46
 252 -9 252 -9 189 -9 c 0,31,32
190 38 m 0,47,48
 238 38 238 38 272 63 c 128,-1,49
 306 88 306 88 323.5 127.5 c 128,-1,50
 341 167 341 167 340 212 c 0,51,52
 340 262 340 262 308 291 c 128,-1,53
 276 320 276 320 228 320 c 256,54,55
 180 320 180 320 146.5 293 c 128,-1,56
 113 266 113 266 96.5 224.5 c 128,-1,57
 80 183 80 183 81 138 c 0,58,59
 83 92 83 92 113.5 65 c 128,-1,60
 144 38 144 38 190 38 c 0,47,48
EndSplineSet
EndChar

StartChar: odieresis
Encoding: 246 246 179
Width: 443
GlyphClass: 1
Flags: W
LayerCount: 2
Fore
SplineSet
166 453 m 0,0,1
 166 468 166 468 176.5 480 c 128,-1,2
 187 492 187 492 203 492 c 0,3,4
 215 492 215 492 224.5 484 c 128,-1,5
 234 476 234 476 234 464 c 0,6,7
 234 448 234 448 223 437 c 128,-1,8
 212 426 212 426 196 426 c 0,9,10
 184 426 184 426 175 433.5 c 128,-1,11
 166 441 166 441 166 453 c 0,0,1
278 453 m 0,12,13
 278 468 278 468 289 480 c 128,-1,14
 300 492 300 492 315 492 c 0,15,16
 328 492 328 492 337 484 c 128,-1,17
 346 476 346 476 346 464 c 0,18,19
 346 448 346 448 335 437 c 128,-1,20
 324 426 324 426 308 426 c 0,21,22
 296 426 296 426 287 433.5 c 128,-1,23
 278 441 278 441 278 453 c 0,12,13
189 -9 m 0,24,25
 144 -9 144 -9 108 10 c 128,-1,26
 72 29 72 29 51.5 62.5 c 128,-1,27
 31 96 31 96 30 140 c 0,28,29
 29 201 29 201 52.5 252.5 c 128,-1,30
 76 304 76 304 121.5 335.5 c 128,-1,31
 167 367 167 367 230 367 c 0,32,33
 279 367 279 367 316 346 c 128,-1,34
 353 325 353 325 373.5 288.5 c 128,-1,35
 394 252 394 252 392 205 c 0,36,37
 390 146 390 146 365.5 97 c 128,-1,38
 341 48 341 48 296.5 19.5 c 128,-1,39
 252 -9 252 -9 189 -9 c 0,24,25
190 38 m 0,40,41
 238 38 238 38 272 63 c 128,-1,42
 306 88 306 88 323.5 127.5 c 128,-1,43
 341 167 341 167 340 212 c 0,44,45
 340 262 340 262 308 291 c 128,-1,46
 276 320 276 320 228 320 c 256,47,48
 180 320 180 320 146.5 293 c 128,-1,49
 113 266 113 266 96.5 224.5 c 128,-1,50
 80 183 80 183 81 138 c 0,51,52
 83 92 83 92 113.5 65 c 128,-1,53
 144 38 144 38 190 38 c 0,40,41
EndSplineSet
EndChar

StartChar: divide
Encoding: 247 247 180
Width: 384
GlyphClass: 1
Flags: W
LayerCount: 2
Fore
SplineSet
161 394 m 0,0,1
 161 408 161 408 170 417 c 128,-1,2
 179 426 179 426 191 426 c 0,3,4
 204 426 204 426 213 417 c 128,-1,5
 222 408 222 408 222 394 c 0,6,7
 222 383 222 383 213 373.5 c 128,-1,8
 204 364 204 364 191 364 c 0,9,10
 179 364 179 364 170 373.5 c 128,-1,11
 161 383 161 383 161 394 c 0,0,1
45 249 m 2,12,13
 40 249 40 249 40 255 c 2,14,-1
 40 289 l 2,15,16
 40 295 40 295 45 295 c 2,17,-1
 304 295 l 2,18,19
 323 295 323 295 333 284.5 c 128,-1,20
 343 274 343 274 343 260 c 2,21,-1
 343 255 l 2,22,23
 343 249 343 249 338 249 c 2,24,-1
 45 249 l 2,12,13
161 148 m 0,25,26
 161 161 161 161 170 170 c 128,-1,27
 179 179 179 179 191 179 c 0,28,29
 204 179 204 179 213 170 c 128,-1,30
 222 161 222 161 222 148 c 0,31,32
 222 136 222 136 213 127 c 128,-1,33
 204 118 204 118 191 118 c 0,34,35
 179 118 179 118 170 127 c 128,-1,36
 161 136 161 136 161 148 c 0,25,26
EndSplineSet
EndChar

StartChar: oslash
Encoding: 248 248 181
Width: 443
GlyphClass: 1
Flags: W
LayerCount: 2
Fore
SplineSet
183 -9 m 0,0,1
 116 -9 116 -9 73.5 32.5 c 128,-1,2
 31 74 31 74 30 140 c 0,3,4
 29 201 29 201 54 252.5 c 128,-1,5
 79 304 79 304 126 335.5 c 128,-1,6
 173 367 173 367 236 367 c 0,7,8
 285 367 285 367 320.5 346 c 128,-1,9
 356 325 356 325 375 288.5 c 128,-1,10
 394 252 394 252 392 205 c 0,11,12
 390 146 390 146 364 97 c 128,-1,13
 338 48 338 48 292 19.5 c 128,-1,14
 246 -9 246 -9 183 -9 c 0,0,1
105 71 m 1,15,-1
 296 303 l 1,16,17
 282 312 282 312 266.5 315.5 c 128,-1,18
 251 319 251 319 234 320 c 0,19,20
 186 320 186 320 151 293 c 128,-1,21
 116 266 116 266 98 224.5 c 128,-1,22
 80 183 80 183 81 138 c 0,23,24
 83 119 83 119 88 102 c 128,-1,25
 93 85 93 85 105 71 c 1,15,-1
324 274 m 1,26,-1
 139 46 l 1,27,28
 150 42 150 42 161.5 40 c 128,-1,29
 173 38 173 38 184 38 c 0,30,31
 232 38 232 38 267.5 63 c 128,-1,32
 303 88 303 88 322 127.5 c 128,-1,33
 341 167 341 167 340 212 c 0,34,35
 339 229 339 229 336 244.5 c 128,-1,36
 333 260 333 260 324 274 c 1,26,-1
EndSplineSet
EndChar

StartChar: ugrave
Encoding: 249 249 182
Width: 423
GlyphClass: 1
Flags: W
LayerCount: 2
Fore
SplineSet
292 436 m 2,0,1
 293 435 293 435 293 435 c 129,-1,2
 293 435 293 435 293 435 c 1,3,4
 293 431 293 431 288 431 c 2,5,-1
 256 431 l 2,6,7
 243 431 243 431 233 440 c 2,8,-1
 172 496 l 2,9,10
 171 497 171 497 171 498 c 0,11,12
 171 502 171 502 175 502 c 2,13,-1
 220 502 l 2,14,15
 228 502 228 502 231 500 c 128,-1,16
 234 498 234 498 239 493 c 2,17,-1
 292 436 l 2,0,1
343 146 m 2,18,19
 329 64 329 64 285.5 27 c 128,-1,20
 242 -10 242 -10 163 -10 c 0,21,22
 102 -10 102 -10 69.5 24 c 128,-1,23
 37 58 37 58 38 121 c 0,24,25
 38 133 38 133 39 145 c 128,-1,26
 40 157 40 157 42 169 c 2,27,-1
 75 354 l 2,28,29
 77 360 77 360 80 360 c 2,30,-1
 85 360 l 2,31,32
 100 360 100 360 109.5 349.5 c 128,-1,33
 119 339 119 339 119 322 c 0,34,35
 119 318 119 318 118.5 315 c 128,-1,36
 118 312 118 312 117 308 c 2,37,-1
 91 156 l 2,38,39
 89 147 89 147 88 137.5 c 128,-1,40
 87 128 87 128 87 120 c 0,41,42
 87 36 87 36 171 36 c 0,43,44
 224 36 224 36 254 66 c 128,-1,45
 284 96 284 96 294 153 c 2,46,-1
 330 354 l 2,47,48
 332 360 332 360 336 360 c 2,49,-1
 340 360 l 2,50,51
 355 360 355 360 364 349.5 c 128,-1,52
 373 339 373 339 373 322 c 0,53,54
 373 318 373 318 373 315 c 128,-1,55
 373 312 373 312 372 308 c 2,56,-1
 343 146 l 2,18,19
EndSplineSet
EndChar

StartChar: uacute
Encoding: 250 250 183
Width: 423
GlyphClass: 1
Flags: W
LayerCount: 2
Fore
SplineSet
176 436 m 2,0,-1
 244 493 l 2,1,2
 256 502 256 502 267 502 c 2,3,-1
 320 502 l 2,4,5
 324 502 324 502 324 499 c 0,6,7
 324 498 324 498 323.5 497.5 c 128,-1,8
 323 497 323 497 323 496 c 2,9,-1
 241 440 l 2,10,11
 228 431 228 431 215 431 c 2,12,-1
 178 431 l 2,13,14
 174 431 174 431 174 433 c 0,15,16
 174 434 174 434 176 436 c 2,0,-1
343 146 m 2,17,18
 329 64 329 64 285.5 27 c 128,-1,19
 242 -10 242 -10 163 -10 c 0,20,21
 102 -10 102 -10 69.5 24 c 128,-1,22
 37 58 37 58 38 121 c 0,23,24
 38 133 38 133 39 145 c 128,-1,25
 40 157 40 157 42 169 c 2,26,-1
 75 354 l 2,27,28
 77 360 77 360 80 360 c 2,29,-1
 85 360 l 2,30,31
 100 360 100 360 109.5 349.5 c 128,-1,32
 119 339 119 339 119 322 c 0,33,34
 119 318 119 318 118.5 315 c 128,-1,35
 118 312 118 312 117 308 c 2,36,-1
 91 156 l 2,37,38
 89 147 89 147 88 137.5 c 128,-1,39
 87 128 87 128 87 120 c 0,40,41
 87 36 87 36 171 36 c 0,42,43
 224 36 224 36 254 66 c 128,-1,44
 284 96 284 96 294 153 c 2,45,-1
 330 354 l 2,46,47
 332 360 332 360 336 360 c 2,48,-1
 340 360 l 2,49,50
 355 360 355 360 364 349.5 c 128,-1,51
 373 339 373 339 373 322 c 0,52,53
 373 318 373 318 373 315 c 128,-1,54
 373 312 373 312 372 308 c 2,55,-1
 343 146 l 2,17,18
EndSplineSet
EndChar

StartChar: ucircumflex
Encoding: 251 251 184
Width: 423
GlyphClass: 1
Flags: W
LayerCount: 2
Fore
SplineSet
244 475 m 1,0,-1
 200 440 l 2,1,2
 188 431 188 431 173 431 c 2,3,-1
 137 431 l 2,4,5
 134 431 134 431 134 433 c 256,6,7
 134 435 134 435 136 436 c 2,8,-1
 208 493 l 2,9,10
 220 502 220 502 230 502 c 2,11,-1
 259 502 l 2,12,13
 270 502 270 502 278 493 c 2,14,-1
 331 436 l 2,15,16
 332 435 332 435 332 435 c 129,-1,17
 332 435 332 435 332 435 c 1,18,19
 332 431 332 431 327 431 c 2,20,-1
 298 431 l 2,21,22
 282 431 282 431 274 440 c 2,23,-1
 244 475 l 1,0,-1
343 146 m 2,24,25
 329 64 329 64 285.5 27 c 128,-1,26
 242 -10 242 -10 163 -10 c 0,27,28
 102 -10 102 -10 69.5 24 c 128,-1,29
 37 58 37 58 38 121 c 0,30,31
 38 133 38 133 39 145 c 128,-1,32
 40 157 40 157 42 169 c 2,33,-1
 75 354 l 2,34,35
 77 360 77 360 80 360 c 2,36,-1
 85 360 l 2,37,38
 100 360 100 360 109.5 349.5 c 128,-1,39
 119 339 119 339 119 322 c 0,40,41
 119 318 119 318 118.5 315 c 128,-1,42
 118 312 118 312 117 308 c 2,43,-1
 91 156 l 2,44,45
 89 147 89 147 88 137.5 c 128,-1,46
 87 128 87 128 87 120 c 0,47,48
 87 36 87 36 171 36 c 0,49,50
 224 36 224 36 254 66 c 128,-1,51
 284 96 284 96 294 153 c 2,52,-1
 330 354 l 2,53,54
 332 360 332 360 336 360 c 2,55,-1
 340 360 l 2,56,57
 355 360 355 360 364 349.5 c 128,-1,58
 373 339 373 339 373 322 c 0,59,60
 373 318 373 318 373 315 c 128,-1,61
 373 312 373 312 372 308 c 2,62,-1
 343 146 l 2,24,25
EndSplineSet
EndChar

